<svg width="50" height="50" viewBox="0 0 50 50" fill="none" xmlns="http://www.w3.org/2000/svg">
<g clip-path="url(#clip0_132_286)">
<path d="M3.95 29.0042L4.0625 29.1083C3.9625 28.3146 3.9125 27.5083 3.9125 26.6875C3.9125 18.5208 8.98333 11.5167 16.1417 8.66042C17.0103 8.31104 17.9037 8.02692 18.8146 7.81042L17.4458 10.3688C17.2958 10.6479 17.5125 10.9604 17.7958 10.9604C17.8437 10.9604 17.8917 10.9521 17.9375 10.9354L23.9875 8.6875L26.875 7.61458L28.3583 7.0625L30.1396 6.4C30.4729 6.27708 30.4917 5.81667 30.1729 5.6625L28.0062 4.62708L25.6292 3.48958L24.2458 2.82708L18.4292 0.0416667C18.3708 0.0145833 18.3125 0 18.2542 0C17.9854 0 17.7687 0.279167 17.8854 0.558333L19.2312 3.73125C18.575 3.84583 17.9271 3.9875 17.2896 4.16042C7.34583 6.82292 0 15.9146 0 26.6854C0 27.7333 0.0708333 28.7667 0.204167 29.7771C0.315711 29.5243 0.471648 29.2936 0.664583 29.0958C1.10833 28.6417 1.725 28.3812 2.36042 28.3812C2.94994 28.3806 3.51786 28.6032 3.95 29.0042ZM36.0167 43.6833C35.7972 43.42 35.6384 43.1116 35.5516 42.78C35.4648 42.4483 35.4522 42.1017 35.5146 41.7646C32.0674 44.5682 27.758 46.0959 23.3146 46.0896C18.6958 46.0896 14.5792 44.5167 11.2667 41.8854C10.4992 41.274 9.77779 40.607 9.10833 39.8896L11.9396 39.9458C12.3104 39.9458 12.4875 39.4958 12.2187 39.25L7.46458 34.8854L4.77292 32.4146L2.62708 30.4458C2.55409 30.3778 2.45811 30.3399 2.35833 30.3396C2.21042 30.3396 2.06875 30.4229 1.99792 30.5583C1.975 30.6 1.9625 30.6479 1.95625 30.6979C1.95625 30.7146 1.95 30.7333 1.95 30.7521L1.96875 31.5292L2.11875 37.3187L2.28958 43.7708C2.29583 44.0104 2.49167 44.1625 2.69375 44.1625C2.80208 44.1625 2.91458 44.1187 2.99792 44.0167L5.2125 41.3708L6.52292 42.8542C10.7708 47.2542 16.7271 50 23.3125 50C29.0458 50 34.3021 47.9229 38.3667 44.475C38.1912 44.5159 38.0115 44.5362 37.8312 44.5354C37.1271 44.5354 36.4667 44.225 36.0167 43.6812V43.6833ZM48.7604 34.6167L45.4125 34.1417L45.9646 32.2458C46.411 30.4261 46.6363 28.5591 46.6354 26.6854C46.6354 16.9667 40.6562 8.61667 32.1833 5.12292C32.3125 5.43333 32.375 5.77708 32.3604 6.12917C32.3393 6.59111 32.1827 7.03661 31.91 7.41007C31.6373 7.78353 31.2607 8.06841 30.8271 8.22917L30.0937 8.50208C37.4667 11.2521 42.7292 18.3667 42.7292 26.6854C42.7292 27.3875 42.6937 28.0792 42.6167 28.7604C42.5104 29.7583 42.3292 30.7292 42.0771 31.6729L40.5917 29.1792C40.5568 29.1195 40.5069 29.0701 40.4469 29.0357C40.387 29.0014 40.3191 28.9833 40.25 28.9833C40.1559 28.9819 40.0644 29.014 39.9919 29.074C39.9193 29.1339 39.8705 29.2177 39.8542 29.3104L38.6625 35.6521L37.4479 42.1062C37.4375 42.2521 37.4708 42.3521 37.5312 42.4292C37.6062 42.5208 37.7208 42.5792 37.8438 42.5792C37.9223 42.5794 37.9992 42.5562 38.0646 42.5125L43.5458 38.8979L48.9333 35.3458C49.2396 35.1417 49.1354 34.6646 48.7687 34.6146H48.7625L48.7604 34.6167ZM13.6104 41.2125C16.4816 43.1377 19.8619 44.1626 23.3187 44.1562C25.7214 44.1585 28.0985 43.6637 30.3006 42.7028C32.5027 41.7419 34.4822 40.3358 36.1146 38.5729L36.7312 35.2917L37.9229 28.95C38.1333 27.8375 39.1062 27.0292 40.2417 27.0292C40.4213 27.0306 40.6002 27.0523 40.775 27.0937L40.7854 26.6854C40.7853 24.8017 40.4807 22.9303 39.8833 21.1437C38.0042 22.0854 35.7729 22.8229 32.2875 22.8229C22.6104 22.8229 22.6104 17.1458 12.9333 17.1458C11.0979 17.1458 9.6125 17.3521 8.34167 17.6813C6.70415 20.3989 5.84107 23.5126 5.84583 26.6854C5.84618 28.2502 6.05639 29.8078 6.47083 31.3167L8.78958 33.4458L13.5437 37.8104C14.2646 38.4729 14.5021 39.4896 14.1479 40.4C14.0297 40.706 13.845 40.9831 13.6104 41.2125ZM21.55 26.7458C21.6923 26.0651 22.0988 25.4687 22.6804 25.0875C23.262 24.7063 23.9711 24.5714 24.6521 24.7125C25.3328 24.8548 25.9292 25.2613 26.3104 25.8429C26.6916 26.4245 26.8265 27.1336 26.6854 27.8146C26.5431 28.4953 26.1366 29.0917 25.555 29.4729C24.9734 29.8541 24.2643 29.989 23.5833 29.8479C22.9026 29.7056 22.3062 29.2991 21.925 28.7175C21.5438 28.1359 21.4089 27.4268 21.55 26.7458ZM20.1833 30.6104C20.6035 30.6991 20.9715 30.9505 21.2068 31.3096C21.4422 31.6687 21.5259 32.1064 21.4396 32.5271C21.3509 32.9472 21.0995 33.3152 20.7404 33.5506C20.3813 33.786 19.9436 33.8697 19.5229 33.7833C19.1028 33.6947 18.7348 33.4433 18.4994 33.0842C18.264 32.725 18.1803 32.2873 18.2667 31.8667C18.3553 31.4465 18.6067 31.0785 18.9658 30.8432C19.325 30.6078 19.7627 30.5241 20.1833 30.6104ZM13.575 30.1167C11.2812 29.6396 9.80833 27.3917 10.2875 25.0979C10.7667 22.8042 13.0125 21.3312 15.3062 21.8104C17.6 22.2896 19.0729 24.5354 18.5937 26.8292C18.1146 29.1229 15.8687 30.5958 13.575 30.1167Z" fill="#0C4CC8"/>
</g>
<defs>
<clipPath id="clip0_132_286">
<rect width="50" height="50" fill="white"/>
</clipPath>
</defs>
</svg>
