<svg width="50" height="50" viewBox="0 0 50 50" fill="none" xmlns="http://www.w3.org/2000/svg">
<g clip-path="url(#clip0_132_87)">
<path d="M25 48.1262C24.4674 48.1262 23.9413 47.9849 23.4782 47.7175L6.08692 37.6762C5.14779 37.1349 4.56519 36.124 4.56519 35.0414V14.9588C4.56519 13.874 5.14779 12.8653 6.08692 12.324L23.4782 2.28272C23.9413 2.01533 24.4674 1.87402 25 1.87402C25.5326 1.87402 26.0587 2.01533 26.5217 2.28272L43.913 12.324C44.8521 12.8653 45.4348 13.8762 45.4348 14.9588V35.0414C45.4348 36.1262 44.8521 37.1349 43.913 37.6762L26.5217 47.7175C26.0587 47.9849 25.5326 48.1262 25 48.1262Z" fill="#FFEFBE"/>
<path d="M25 3.17828C25.3043 3.17828 25.6065 3.25871 25.8696 3.41088L43.2609 13.4522C43.7978 13.7609 44.1304 14.3391 44.1304 14.9587V35.0413C44.1304 35.6609 43.7978 36.237 43.2609 36.5478L25.8696 46.5891C25.6065 46.7413 25.3043 46.8218 25 46.8218C24.6956 46.8218 24.3935 46.7413 24.1304 46.5891L6.73913 36.5478C6.20217 36.2391 5.86956 35.6609 5.86956 35.0413V14.9587C5.86956 14.3391 6.20217 13.7631 6.73913 13.4522L24.1304 3.41306C24.3935 3.26088 24.6956 3.18045 25 3.18045M25 0.571754C24.25 0.571754 23.4978 0.765232 22.8261 1.15436L5.43478 11.1935C4.08913 11.9696 3.26086 13.4065 3.26086 14.9587V35.0413C3.26086 36.5957 4.08913 38.0305 5.43478 38.8065L22.8261 48.8478C23.4978 49.237 24.25 49.4305 25 49.4305C25.75 49.4305 26.5022 49.237 27.1739 48.8478L44.5652 38.8065C45.9109 38.0305 46.7391 36.5935 46.7391 35.0413V14.9587C46.7391 13.4044 45.9109 11.9696 44.5652 11.1935L27.1739 1.15219C26.5022 0.763058 25.75 0.56958 25 0.56958V0.571754Z" fill="#F1D370"/>
<path d="M36.4586 20.613C36.4586 18.8326 36.0521 17.1478 35.3282 15.6456C33.4782 11.8043 29.5478 9.1543 24.9978 9.1543C18.6695 9.1543 13.5391 14.2847 13.5391 20.613C13.5391 24.363 15.3391 27.6913 18.1238 29.7782C19.9086 31.1195 22.0956 31.9499 24.4717 32.0565C24.476 32.0565 24.4804 32.0565 24.4847 32.0565C24.6521 32.063 24.8195 32.0673 24.9891 32.0673C24.9934 32.0673 24.9956 32.0673 24.9978 32.0673C25.8043 32.0673 26.5912 31.9847 27.3499 31.826C27.6543 31.763 27.9521 31.6869 28.2478 31.5999C29.5717 31.2086 30.7956 30.5847 31.8738 29.776C33.5108 28.5478 34.8021 26.8891 35.5934 24.9717C36.1478 23.626 36.4586 22.1543 36.4586 20.6108V20.613Z" fill="#DA8500"/>
<path d="M32.9891 22.752C33.0217 22.6281 33.0782 22.5085 33.1478 22.389C33.4847 21.8085 34.1478 21.2564 34.1478 20.6107C34.1478 20.5129 34.1325 20.4172 34.1064 20.3238C34.0934 20.2759 34.076 20.2303 34.0586 20.1846C34.0217 20.0933 33.9738 20.002 33.9195 19.9129C33.8651 19.8238 33.8043 19.7346 33.7412 19.6477C33.6956 19.5846 33.6478 19.5216 33.5999 19.4607C33.563 19.4107 33.5238 19.3629 33.4869 19.3129C33.2717 19.0346 33.0695 18.7585 32.9934 18.4694C32.8695 18.0085 33.0173 17.4368 33.0608 16.9129C33.0608 16.9042 33.0608 16.8955 33.0608 16.889C33.076 16.6803 33.0738 16.4803 33.0282 16.2977C33.0064 16.2064 32.9717 16.1172 32.926 16.0368C32.9021 15.9955 32.876 15.9564 32.8456 15.9194C32.8151 15.8825 32.7847 15.8477 32.7499 15.8151C32.2651 15.3498 31.3195 15.2346 30.8499 14.7651C30.5673 14.4825 30.413 14.0281 30.2325 13.6042C30.0717 13.2238 29.8891 12.8694 29.576 12.6868C29.563 12.6781 29.5478 12.6738 29.5347 12.6672C29.1369 12.4629 28.6064 12.5607 28.0891 12.6281C27.7564 12.6694 27.4282 12.6977 27.1434 12.6216C27.0978 12.6085 27.0521 12.5933 27.0064 12.5759C26.9891 12.5694 26.9717 12.5607 26.9543 12.552C26.926 12.539 26.8977 12.5281 26.8695 12.5129C26.8477 12.502 26.826 12.489 26.8021 12.4759C26.7804 12.4629 26.7564 12.4498 26.7347 12.4368C26.7086 12.4216 26.6847 12.4042 26.6586 12.3868C26.6391 12.3738 26.6217 12.3629 26.6021 12.3498C26.5717 12.3303 26.5434 12.3085 26.513 12.2868C26.4999 12.2781 26.4869 12.2672 26.4738 12.2585C26.3282 12.152 26.1847 12.0368 26.0369 11.9259C25.7086 11.6781 25.3717 11.4629 25.0043 11.4629C24.2238 11.4629 23.5825 12.4303 22.863 12.6216C22.1195 12.8194 21.0804 12.3107 20.4282 12.6868C19.7673 13.0694 19.6934 14.2259 19.1564 14.7629C18.6195 15.2998 17.463 15.3738 17.0804 16.0346C16.7043 16.6868 17.213 17.7238 17.0151 18.4694C16.8238 19.189 15.8564 19.8303 15.8564 20.6107C15.8564 21.3912 16.8238 22.0325 17.0151 22.752C17.2151 23.4955 16.7043 24.5346 17.0804 25.1868C17.463 25.8477 18.6195 25.9238 19.1564 26.4585C19.6934 26.9955 19.7673 28.152 20.4282 28.5346C21.0804 28.9107 22.1173 28.402 22.863 28.5998C23.5825 28.7912 24.2238 29.7585 25.0043 29.7585C25.176 29.7585 25.3434 29.7085 25.5043 29.6325C25.8217 29.4825 26.1217 29.2259 26.4217 29.002C26.4456 28.9846 26.4695 28.9651 26.4934 28.9477C26.5173 28.9303 26.5391 28.9151 26.563 28.8998C26.6086 28.8672 26.6543 28.8368 26.6999 28.8085C26.713 28.7998 26.726 28.7912 26.7391 28.7825C26.7978 28.7477 26.8543 28.7172 26.913 28.689C26.9282 28.6825 26.9434 28.6759 26.9564 28.6694C27.0173 28.6412 27.0804 28.6172 27.1412 28.602C27.1869 28.589 27.2347 28.5803 27.2847 28.5716C27.3325 28.5651 27.3825 28.5585 27.4325 28.5564C27.5804 28.5477 27.7325 28.5564 27.8912 28.5716C27.9021 28.5716 27.913 28.5716 27.9238 28.5759C28.0717 28.5912 28.2238 28.6129 28.3717 28.6325C28.3869 28.6325 28.3999 28.6368 28.4151 28.639C28.4847 28.6477 28.5543 28.6564 28.6238 28.6629C28.9738 28.6977 29.3086 28.6933 29.576 28.5368C29.6586 28.489 29.7325 28.4281 29.7978 28.3607C30.263 27.8759 30.3782 26.9303 30.8477 26.4607C31.0391 26.2694 31.3086 26.1368 31.5956 26.0151C31.8108 25.9238 32.0347 25.839 32.2412 25.739C32.3369 25.6933 32.4282 25.6433 32.5151 25.589C32.6021 25.5346 32.6782 25.4759 32.7478 25.4085C32.7499 25.4064 32.7521 25.402 32.7564 25.3998C32.8217 25.3368 32.8782 25.2651 32.9238 25.1868C32.9238 25.1868 32.9238 25.1846 32.9238 25.1825C33.2021 24.6977 32.9912 23.9998 32.9478 23.3694C32.9325 23.152 32.9369 22.9433 32.9869 22.752H32.9891Z" fill="#ECBF4E"/>
<path d="M29.3651 19.4695C29.3064 19.3847 29.2151 19.3216 29.0956 19.3043L27.8673 19.126L27.8369 19.1216L26.7238 18.9608C26.5912 18.9412 26.4782 18.8586 26.4195 18.739L25.3586 16.5912C25.2108 16.2912 24.7825 16.2912 24.6347 16.5912L23.5738 18.739C23.5151 18.8586 23.4021 18.9412 23.2695 18.9608L20.8999 19.3043C20.5695 19.3521 20.4369 19.7608 20.676 19.9934L22.3912 21.6651C22.4869 21.7586 22.5304 21.8912 22.5064 22.0238L22.1021 24.3847C22.0456 24.7151 22.3912 24.9673 22.6891 24.8108L24.8086 23.6956C24.926 23.6347 25.0673 23.6347 25.1847 23.6956L27.3043 24.8108C27.4564 24.8912 27.6217 24.8629 27.739 24.7716C27.7434 24.7673 27.7477 24.763 27.7521 24.7608C27.7738 24.7434 27.7956 24.7238 27.813 24.6999C27.8217 24.689 27.8282 24.676 27.8347 24.6629C27.8456 24.6456 27.8586 24.6282 27.8651 24.6086C27.8738 24.589 27.8782 24.5651 27.8825 24.5434C27.8847 24.5303 27.8912 24.5173 27.8934 24.5021C27.8977 24.4651 27.8977 24.426 27.8912 24.3847L27.863 24.2238L27.6651 23.0695L27.4847 22.0238C27.463 21.8934 27.5064 21.7586 27.5999 21.6651L29.3151 19.9934C29.4695 19.8434 29.4673 19.6216 29.3608 19.4695H29.3651Z" fill="#DA8500"/>
<path d="M31.8761 29.7803V40.8477L25 38.2564L18.1239 40.8477V29.7803C20.0391 31.2194 22.4196 32.0716 25 32.0716C27.5804 32.0716 29.9587 31.2194 31.8761 29.7803Z" fill="#ECBF4E"/>
<path d="M24.9999 38.2564L31.876 40.8477V29.7803C29.9607 31.2194 27.5803 32.0716 24.9999 32.0716V38.2585V38.2564Z" fill="#F1D370"/>
</g>
<defs>
<clipPath id="clip0_132_87">
<rect width="50" height="50" fill="white"/>
</clipPath>
</defs>
</svg>
