<svg width="45" height="50" viewBox="0 0 45 50" fill="none" xmlns="http://www.w3.org/2000/svg">
<g clip-path="url(#clip0_132_265)">
<path d="M22.4988 48.745C21.6716 48.7446 20.8591 48.527 20.1428 48.114L3.61394 38.5928C2.89826 38.179 2.30385 37.5851 1.89004 36.8705C1.47623 36.1559 1.25748 35.3455 1.25562 34.5201V15.4891C1.25502 14.6618 1.47263 13.8488 1.88659 13.1319C2.30054 12.4151 2.89627 11.8195 3.61394 11.405L20.1428 1.88381C20.8593 1.47053 21.6723 1.25293 22.5 1.25293C23.3276 1.25293 24.1406 1.47053 24.8572 1.88381L41.386 11.405C42.1037 11.8195 42.6994 12.4151 43.1134 13.1319C43.5273 13.8488 43.7449 14.6618 43.7443 15.4891V34.5292C43.7429 35.355 43.5243 36.1658 43.1105 36.8809C42.6966 37.596 42.102 38.1902 41.386 38.6042L24.8572 48.1254C24.1391 48.5347 23.3258 48.7483 22.4988 48.745Z" fill="#FFF2C1"/>
<path d="M22.4989 2.50558C23.1057 2.50354 23.7025 2.66064 24.2294 2.96114L40.7582 12.4823C41.2867 12.7868 41.7252 13.2253 42.0291 13.7533C42.333 14.2813 42.4916 14.8801 42.4887 15.489V34.5292C42.4888 35.1354 42.3289 35.7309 42.0251 36.2559C41.7213 36.7809 41.2844 37.2168 40.7582 37.5199L24.2294 47.0411C23.7036 47.344 23.1071 47.5035 22.5 47.5035C21.8929 47.5035 21.2964 47.344 20.7706 47.0411L4.24179 37.5199C3.71427 37.2161 3.27648 36.7787 2.97263 36.2519C2.66878 35.7252 2.50964 35.1278 2.51129 34.5201V15.489C2.51125 14.8829 2.67115 14.2873 2.97492 13.7623C3.27868 13.2373 3.71562 12.8014 4.24179 12.4983L20.7752 2.96114C21.3014 2.66092 21.8973 2.50383 22.5034 2.50558M22.5034 4.56221e-07C21.4544 -0.000408802 20.4238 0.274537 19.515 0.797231L2.98615 10.3184C2.07783 10.8435 1.32383 11.5976 0.799721 12.5051C0.275614 13.4126 -0.000175879 14.4417 8.41496e-08 15.489V34.5292C0.00142344 35.575 0.277972 36.6022 0.801999 37.5079C1.32603 38.4137 2.07917 39.1664 2.98615 39.6907L19.515 49.2005C20.4227 49.7228 21.4521 49.9978 22.5 49.9978C23.5479 49.9978 24.5773 49.7228 25.485 49.2005L42.0138 39.6793C42.9208 39.155 43.674 38.4023 44.198 37.4965C44.722 36.5908 44.9986 35.5636 45 34.5178V15.489C44.9995 14.441 44.7227 13.4115 44.1973 12.504C43.672 11.5964 42.9166 10.8427 42.007 10.3184L25.485 0.797231C24.5768 0.275022 23.5471 9.75004e-05 22.4989 4.56221e-07H22.5034Z" fill="#F4D670"/>
<path d="M11.6843 28.9007L11.5907 35.5336H5.78503L5.8832 28.5818C5.8832 25.8484 6.37405 23.6731 7.35573 22.0012C7.35573 22.0627 7.35573 22.1242 7.35573 22.1857C7.35116 24.7186 8.9698 27.0534 11.6843 28.9007Z" fill="#DD8800"/>
<path d="M28.7131 35.5336H14.4445C14.4482 33.9081 15.0605 32.3427 16.1613 31.1443C19.4077 32.3401 23.3367 33.0394 27.5762 33.0394C27.7885 33.0394 28.0008 33.0394 28.2109 33.0394C28.5432 33.8291 28.7139 34.6771 28.7131 35.5336Z" fill="#E49C00"/>
<path d="M35.8429 32.092V35.5338H31.5669V32.8278C33.0065 32.6739 34.4348 32.4281 35.8429 32.092Z" fill="#DD8800"/>
<path d="M24.969 20.9034L22.2294 24.1128L20.3688 26.4339C20.2968 26.5242 20.1985 26.5899 20.0875 26.622C19.9764 26.654 19.8581 26.6508 19.749 26.6127C19.6398 26.5747 19.5453 26.5037 19.4784 26.4096C19.4115 26.3156 19.3756 26.203 19.3757 26.0877V23.4614L17.289 23.4113C14.07 23.4113 11.6797 25.3839 11.6797 28.5956V28.894C8.96525 27.0467 7.34204 24.7119 7.34204 22.179C7.34204 22.1175 7.34204 22.056 7.34204 21.9945C9.10679 19.022 12.4194 17.6576 17.2982 17.6576L19.3848 17.7077V15.0335C19.3843 14.918 19.4198 14.8052 19.4865 14.7107C19.5532 14.6163 19.6478 14.5449 19.757 14.5066C19.8663 14.4682 19.9848 14.4648 20.096 14.4968C20.2073 14.5288 20.3058 14.5946 20.3779 14.685L22.2385 17.0038L24.9781 20.2178C25.0544 20.3163 25.0951 20.4377 25.0934 20.5622C25.0918 20.6867 25.0479 20.807 24.969 20.9034Z" fill="#00C272"/>
<path d="M28.2064 33.0281C27.9963 33.0281 27.784 33.0281 27.5717 33.0281C23.3367 33.0281 19.4077 32.3288 16.1567 31.133C16.8448 30.3847 17.6824 29.7885 18.6155 29.3829C19.5486 28.9772 20.5565 28.7711 21.5743 28.7777C24.5855 28.7891 27.1676 30.5476 28.2064 33.0281Z" fill="#00ABE2"/>
<path d="M40.1281 18.3044V22.7211H35.8429V32.092C34.4333 32.4283 33.0035 32.674 31.5623 32.8277V22.7211H27.2863V18.3044H40.1281Z" fill="#FF576D"/>
</g>
<defs>
<clipPath id="clip0_132_265">
<rect width="45" height="50" fill="white"/>
</clipPath>
</defs>
</svg>
