<svg width="45" height="50" viewBox="0 0 45 50" fill="none" xmlns="http://www.w3.org/2000/svg">
<g clip-path="url(#clip0_132_255)">
<path d="M22.4988 48.745C21.6716 48.7446 20.8591 48.527 20.1428 48.114L3.61394 38.5928C2.89826 38.179 2.30385 37.5851 1.89004 36.8705C1.47623 36.1559 1.25748 35.3455 1.25562 34.5201V15.4891C1.25502 14.6618 1.47263 13.8488 1.88659 13.1319C2.30054 12.4151 2.89627 11.8195 3.61394 11.405L20.1428 1.88381C20.8593 1.47053 21.6723 1.25293 22.5 1.25293C23.3276 1.25293 24.1406 1.47053 24.8572 1.88381L41.386 11.405C42.1037 11.8195 42.6994 12.4151 43.1134 13.1319C43.5273 13.8488 43.7449 14.6618 43.7443 15.4891V34.5292C43.7429 35.355 43.5243 36.1658 43.1105 36.8809C42.6966 37.596 42.102 38.1902 41.386 38.6042L24.8572 48.1254C24.1391 48.5347 23.3258 48.7483 22.4988 48.745Z" fill="#FFF2C1"/>
<path d="M22.4989 2.50558C23.1057 2.50354 23.7025 2.66064 24.2294 2.96114L40.7582 12.4823C41.2867 12.7868 41.7252 13.2253 42.0291 13.7533C42.333 14.2813 42.4916 14.8801 42.4887 15.489V34.5292C42.4888 35.1354 42.3289 35.7309 42.0251 36.2559C41.7213 36.7809 41.2844 37.2168 40.7582 37.5199L24.2294 47.0411C23.7036 47.344 23.1071 47.5035 22.5 47.5035C21.8929 47.5035 21.2964 47.344 20.7706 47.0411L4.24179 37.5199C3.71427 37.2161 3.27648 36.7787 2.97263 36.2519C2.66878 35.7252 2.50964 35.1278 2.51129 34.5201V15.489C2.51125 14.8829 2.67115 14.2873 2.97492 13.7623C3.27868 13.2373 3.71562 12.8014 4.24179 12.4983L20.7752 2.96114C21.3014 2.66092 21.8973 2.50383 22.5034 2.50558M22.5034 4.56221e-07C21.4544 -0.000408802 20.4238 0.274537 19.515 0.797231L2.98615 10.3184C2.07783 10.8435 1.32383 11.5976 0.799721 12.5051C0.275614 13.4126 -0.000175879 14.4417 8.41496e-08 15.489V34.5292C0.00142344 35.575 0.277972 36.6022 0.801999 37.5079C1.32603 38.4137 2.07917 39.1664 2.98615 39.6907L19.515 49.2005C20.4227 49.7228 21.4521 49.9978 22.5 49.9978C23.5479 49.9978 24.5773 49.7228 25.485 49.2005L42.0138 39.6793C42.9208 39.155 43.674 38.4023 44.198 37.4965C44.722 36.5908 44.9986 35.5636 45 34.5178V15.489C44.9995 14.441 44.7227 13.4115 44.1973 12.504C43.672 11.5964 42.9166 10.8427 42.007 10.3184L25.485 0.797231C24.5768 0.275022 23.5471 9.75004e-05 22.4989 4.56221e-07H22.5034Z" fill="#F4D670"/>
<path d="M22.4989 40.7839C19.3697 40.7839 16.3109 39.8582 13.7091 38.1237C11.1073 36.3892 9.07952 33.9239 7.88205 31.0395C6.68459 28.1551 6.37128 24.9813 6.98174 21.9193C7.5922 18.8572 9.09902 16.0446 11.3116 13.837C13.5243 11.6294 16.3433 10.126 19.4123 9.51694C22.4813 8.90786 25.6624 9.22046 28.5533 10.4152C31.4443 11.6099 33.9152 13.6332 35.6536 16.229C37.3921 18.8249 38.32 21.8768 38.32 24.9988C38.3151 29.1838 36.6467 33.196 33.6807 36.1553C30.7147 39.1145 26.6934 40.7791 22.4989 40.7839ZM22.4989 12.0495C19.9313 12.0495 17.4215 12.8091 15.2867 14.2324C13.1519 15.6556 11.4881 17.6785 10.5057 20.0452C9.52325 22.412 9.26631 25.0162 9.76738 27.5286C10.2684 30.0411 11.505 32.3488 13.3207 34.16C15.1363 35.9712 17.4495 37.2046 19.9678 37.7041C22.486 38.2035 25.0961 37.9467 27.4681 36.9661C29.84 35.9855 31.8672 34.3251 33.2933 32.1949C34.7194 30.0647 35.4804 27.5605 35.4799 24.9988C35.4763 21.5651 34.1074 18.2732 31.6737 15.8454C29.24 13.4177 25.9403 12.0525 22.4989 12.0495Z" fill="#EFC24E"/>
<path d="M22.4989 40.784C22.1223 40.784 21.7611 40.6347 21.4948 40.369C21.2285 40.1033 21.0789 39.7429 21.0789 39.3672C21.0789 38.9914 21.2285 38.6311 21.4948 38.3654C21.7611 38.0997 22.1223 37.9504 22.4989 37.9504C25.9406 37.9468 29.2402 36.5811 31.6739 34.153C34.1075 31.7249 35.4763 28.4327 35.48 24.9988C35.48 24.6231 35.6296 24.2627 35.8959 23.997C36.1622 23.7313 36.5234 23.582 36.9 23.582C37.2766 23.582 37.6378 23.7313 37.9041 23.997C38.1704 24.2627 38.32 24.6231 38.32 24.9988C38.3152 29.1838 36.6467 33.196 33.6808 36.1553C30.7148 39.1145 26.6934 40.7792 22.4989 40.784Z" fill="#00ABE2"/>
<path d="M22.4988 32.8914C20.9343 32.8914 19.4048 32.4285 18.1039 31.5612C16.8031 30.694 15.7891 29.4613 15.1904 28.0191C14.5917 26.577 14.435 24.99 14.7403 23.459C15.0455 21.928 15.7989 20.5217 16.9052 19.4179C18.0115 18.3141 19.421 17.5624 20.9555 17.2579C22.49 16.9533 24.0806 17.1096 25.5261 17.707C26.9715 18.3044 28.207 19.316 29.0762 20.6139C29.9454 21.9118 30.4094 23.4378 30.4094 24.9988C30.4076 27.0915 29.5735 29.0979 28.0904 30.5777C26.6073 32.0574 24.5963 32.8896 22.4988 32.8914ZM22.4988 19.933C21.4941 19.933 20.5119 20.2303 19.6765 20.7872C18.8411 21.3442 18.19 22.1359 17.8056 23.0621C17.4212 23.9883 17.3208 25.0075 17.5169 25.9906C17.7131 26.9738 18.1971 27.8769 18.9078 28.5856C19.6184 29.2943 20.5237 29.7768 21.5092 29.9721C22.4947 30.1674 23.5162 30.0667 24.4443 29.6827C25.3724 29.2988 26.1656 28.6488 26.7235 27.8151C27.2814 26.9813 27.5789 26.0013 27.5785 24.9988C27.5767 23.6554 27.0408 22.3676 26.0885 21.4179C25.1362 20.4682 23.8453 19.9342 22.4988 19.933Z" fill="#F4D670"/>
<path d="M28.9939 26.4226C28.8079 26.4226 28.6236 26.386 28.4517 26.3149C28.2799 26.2437 28.1237 26.1395 27.9922 26.0081C27.8608 25.8768 27.7566 25.7208 27.6856 25.5492C27.6146 25.3776 27.5782 25.1937 27.5785 25.0081C27.5791 23.6631 27.0443 22.3729 26.0918 21.4213C25.1392 20.4696 23.8469 19.9343 22.4988 19.9331C22.1234 19.9331 21.7634 19.7843 21.498 19.5195C21.2325 19.2546 21.0834 18.8954 21.0834 18.5209C21.0834 18.1463 21.2325 17.7871 21.498 17.5223C21.7634 17.2574 22.1234 17.1086 22.4988 17.1086C24.5959 17.1105 26.6066 17.9423 28.0896 19.4215C29.5727 20.9008 30.407 22.9067 30.4094 24.9989C30.4106 25.1853 30.3749 25.37 30.3043 25.5425C30.2338 25.715 30.1297 25.872 29.9982 26.0042C29.8667 26.1365 29.7102 26.2416 29.5379 26.3134C29.3655 26.3852 29.1807 26.4223 28.9939 26.4226Z" fill="#00C272"/>
</g>
<defs>
<clipPath id="clip0_132_255">
<rect width="45" height="50" fill="white"/>
</clipPath>
</defs>
</svg>
