<svg width="45" height="50" viewBox="0 0 45 50" fill="none" xmlns="http://www.w3.org/2000/svg">
<g clip-path="url(#clip0_132_277)">
<path d="M22.4988 48.7471C21.6724 48.7471 20.8574 48.5284 20.1405 48.1162L3.61394 38.5949C2.15968 37.7567 1.25562 36.1964 1.25562 34.52V15.4798C1.25562 13.8034 2.15968 12.2431 3.61394 11.4048L20.1428 1.88364C20.8596 1.47135 21.6747 1.25269 22.5011 1.25269C23.3276 1.25269 24.1426 1.47135 24.8594 1.88364L41.3883 11.4048C42.8425 12.2431 43.7466 13.8034 43.7466 15.4798V34.5222C43.7466 36.1987 42.8425 37.759 41.3883 38.5972L24.8594 48.1184C24.1426 48.5307 23.3276 48.7494 22.5011 48.7494L22.4988 48.7471Z" fill="#FFEFBE"/>
<path d="M22.4989 2.50558C23.097 2.50558 23.6929 2.66047 24.2294 2.96797L40.7582 12.4892C41.8289 13.1065 42.4887 14.2454 42.4887 15.4799V34.5223C42.4887 35.7569 41.8289 36.8958 40.7582 37.5131L24.2294 47.0343C23.6951 47.3418 23.097 47.4967 22.4989 47.4967C21.9007 47.4967 21.3049 47.3418 20.7684 47.0343L4.24179 37.5108C3.17107 36.8935 2.51129 35.7546 2.51129 34.5201V15.4799C2.51129 14.2454 3.17107 13.1065 4.24179 12.4892L20.7706 2.96797C21.3049 2.66047 21.903 2.50558 22.5011 2.50558M22.4989 0C21.4532 0 20.4213 0.275614 19.515 0.79723L2.98615 10.3184C1.14378 11.3799 0 13.357 0 15.4799V34.5223C0 36.643 1.14378 38.6201 2.98615 39.6816L19.515 49.2028C20.4213 49.7244 21.4532 50 22.5011 50C23.549 50 24.5809 49.7244 25.4873 49.2028L42.0161 39.6816C43.8585 38.6201 45.0023 36.643 45.0023 34.5223V15.4799C45.0023 13.357 43.8585 11.3799 42.0161 10.3207L25.485 0.79723C24.5787 0.275614 23.5468 0 22.4989 0Z" fill="#F1D370"/>
<path d="M8.31463 33.6476V29.3243H12.1866V21.1379C11.3784 21.5707 10.4241 22.0034 9.12509 22.4636L7.53613 18.4L14.2093 16.3545H17.0973V29.3243H20.072V33.6476H8.31463Z" fill="#DA8500"/>
<path d="M37.4639 24.9418C37.4639 31.0805 34.3727 34.0781 29.4027 34.0781C24.4326 34.0781 21.3414 31.0805 21.3414 24.9418C21.3414 18.8031 24.6632 15.9194 29.4027 15.9194C34.1421 15.9194 37.4639 18.8009 37.4639 24.9418ZM26.5147 24.9418C26.5147 27.9963 27.4096 29.6682 29.3456 29.6682C31.2816 29.6682 32.2929 27.9963 32.2929 24.9418C32.2929 21.8873 31.398 20.3885 29.4049 20.3885C27.4119 20.3885 26.517 21.8577 26.517 24.9418H26.5147Z" fill="#DA8500"/>
</g>
<defs>
<clipPath id="clip0_132_277">
<rect width="45" height="50" fill="white"/>
</clipPath>
</defs>
</svg>
