<svg xmlns="http://www.w3.org/2000/svg" width="360" height="102" viewBox="0 0 360 102">
    <g fill="none" fill-rule="evenodd">
        <path fill="#E8E8E8" d="M326.864 0c26.429 30.13 35.808 67.354 32.498 102H54.116C21.538 68.233-.19 31.536 0 0h326.864z"/>
        <path fill="#1D1D1B" d="M267.858 72.715c.203-1.633-.94-2.94-2.534-2.94h-14.64c-1.595 0-3.069 1.307-3.313 2.94l-.165 1.428c-.244 1.632.9 2.938 2.536 2.938h14.597c1.636 0 3.11-1.306 3.316-2.938l.203-1.428zm2.535-18.98c2.824 0 4.947 2.04 5.111 4.733v.654c-.04.164-.04.286-.04.45-.9 6.815-1.84 13.631-2.74 20.408-.203 1.633-1.675 2.938-3.31 2.938-.942 0-1.718-.45-2.168-1.183-1.105.734-2.372 1.183-3.682 1.183h-26.295c-2.864 0-4.988-2.04-5.152-4.734v-.654c.039-.163.039-.286.082-.449l.94-7.306c.45-3.224 3.395-5.837 6.624-5.837H266.1c1.064 0 2.004.286 2.82.776l.29-2.245c.204-1.592-.902-2.897-2.539-2.897h-29.24c-1.593 0-2.737-1.306-2.532-2.939.202-1.593 1.715-2.899 3.31-2.899h32.184zm-162.19-5.552c.205-1.632-.939-2.938-2.532-2.938H83.668c-.369 2.938-.778 5.878-1.146 8.775h21.96c1.636 0 3.111-1.305 3.312-2.897l.41-2.94zm-22.572-17.55c-.41 2.938-.778 5.837-1.187 8.775H103.504c1.592 0 3.107-1.305 3.312-2.938.12-.694.203-1.428.41-2.899.202-1.632-.942-2.938-2.539-2.938H85.631zm25.598 9.102c2.21.817 3.56 2.979 3.193 5.51l-1.146 8.775c-.407 3.224-3.396 5.838-6.626 5.838H68.577c-1.472 0-2.534-1.022-2.577-2.41v-.204c0-.122 2.62-19.795 3.928-29.508.203-1.633 1.675-2.94 3.31-2.94H108.368c3.23 0 5.522 2.613 5.07 5.837l-.776 5.837c-.123 1.224-.653 2.325-1.433 3.265zM186.968 83c-3.228 0-5.52-2.652-5.07-5.837l3.107-23.388c.41-3.183 3.396-5.837 6.624-5.837h37.952c1.636 0 2.782 1.308 2.536 2.94-.206 1.592-1.678 2.897-3.314 2.897h-23.391c-1.593 0-3.067 1.347-3.312 2.94l-2.332 17.51c-.203 1.591.94 2.938 2.534 2.938h23.435c1.594 0 2.74 1.307 2.534 2.899-.245 1.592-1.717 2.938-3.312 2.938h-37.991zM309.98 59.572c1.635 0 2.781 1.306 2.536 2.897-.205 1.633-1.677 2.94-3.314 2.94h-14.598c-.407 2.897-.778 5.837-1.185 8.734-.207 1.633.94 2.939 2.534 2.939h20.489c1.595 0 2.739 1.307 2.534 2.899-.203 1.632-1.717 2.938-3.312 2.938h-32.183c-3.192 0-5.48-2.613-5.073-5.837l3.519-26.285c.204-1.592 1.676-2.9 3.312-2.9h8.751c1.636 0 2.78 1.308 2.538 2.9-.37 2.938-.778 5.837-1.148 8.775h14.6zM125.218 30.673h5.848c1.595 0 2.737 1.306 2.535 2.939l-3.108 23.346c-.205 1.594-1.717 2.9-3.312 2.9h-5.848c-1.595 0-2.741-1.306-2.535-2.9l3.108-23.346c.204-1.633 1.676-2.939 3.312-2.939zM126.77 19h5.849c1.594 0 2.739 1.306 2.534 2.938l-.407 2.9c-.205 1.632-1.677 2.937-3.314 2.937h-5.847c-1.595 0-2.74-1.305-2.536-2.938l.41-2.899c.204-1.632 1.676-2.938 3.311-2.938zm51.733 35.02c-.45 3.225-3.435 5.838-6.626 5.838h-29.28c-3.19 0-5.48-2.613-5.072-5.837l2.33-17.51c.452-3.185 3.437-5.837 6.628-5.837h29.277c3.193 0 5.482 2.652 5.074 5.837l-2.331 17.51z"/>
        <path fill="#FFD400" d="M166.368 35.199c13.745 5.357 9.148 23.284-.414 22.791-8.86-.454-22.399-11.581-21.943-19.123.373-6.676 13.083-7.295 22.357-3.668zm-4.803.453c-1.117 0-2.568 3.75-3.186 8.324-.582 4.617-.167 8.367.95 8.367 1.119 0 2.567-3.75 3.146-8.367.621-4.574.207-8.324-.91-8.324z"/>
    </g>
</svg>
