<svg xmlns="http://www.w3.org/2000/svg" width="157" height="80"><path d="M68.403 72.7a3.397 3.397 0 013.426 3.414 3.403 3.403 0 01-3.426 3.414 3.393 3.393 0 01-3.416-3.414c0-1.9 1.5-3.414 3.416-3.414zm16.186 0a3.396 3.396 0 013.426 3.414c0 1.89-1.51 3.414-3.426 3.414a3.394 3.394 0 01-3.417-3.414c0-1.9 1.501-3.414 3.417-3.414zm-28.484.123c1.027 0 1.849.779 1.849 1.795a1.64 1.64 0 01-.716 1.374c.594.283.99.837.99 1.552 0 1.052-.85 1.862-1.915 1.862h-2.851v-6.583h2.643zm5.926 0v6.583h-.876v-6.584h.876zm29.638 0l3.397 4.908v-4.908h.877v6.583h-.707l-3.399-4.92v4.92h-.876v-6.583h.708zm11.476 0v.827h-3.02v2.022h2.784v.818h-2.783v2.088h3.065v.828h-3.944v-6.583h3.898zm-34.742.724c-1.443 0-2.549 1.119-2.549 2.567 0 1.439 1.106 2.558 2.549 2.558 1.443 0 2.547-1.12 2.547-2.558 0-1.448-1.104-2.567-2.547-2.567zm16.186 0c-1.444 0-2.547 1.119-2.547 2.567 0 1.439 1.103 2.558 2.547 2.558 1.445 0 2.548-1.12 2.548-2.558 0-1.448-1.103-2.567-2.548-2.567zm-28.276 2.905H54.34v2.136h1.973c.584 0 1.047-.47 1.047-1.074 0-.592-.463-1.062-1.047-1.062zm21.906-.329v.79h-3.446v-.79h3.446zm-22.114-2.482H54.34v2.012h1.765c.547 0 .981-.442.981-1.007a.99.99 0 00-.981-1.005zM12.369 37.424c3.778 0 6.674 1.613 8.538 4.255v-3.62h5.204v23.33c0 7.872-6.185 11.54-12.614 11.54-5.4 0-9.571-2.005-11.632-5.917l4.563-2.64c1.08 2.102 2.897 3.764 7.166 3.764 4.565 0 7.313-2.494 7.313-6.748v-2.983c-1.864 2.641-4.76 4.254-8.538 4.254-6.92 0-12.37-5.624-12.37-12.618 0-6.993 5.45-12.617 12.37-12.617zm47.409 0c7.311 0 12.318 5.868 12.318 12.912 0 .733-.098 1.515-.196 2.2H52.366c.833 3.815 3.926 5.77 7.852 5.77 2.945 0 5.154-1.32 6.332-3.032l4.368 2.544c-2.258 3.326-5.939 5.33-10.75 5.33-8.098 0-13.348-5.525-13.348-12.862 0-7.239 5.25-12.863 12.958-12.863zm67.528 0c7.313 0 12.32 5.868 12.32 12.912 0 .733-.1 1.515-.197 2.2h-19.534c.833 3.815 3.926 5.77 7.853 5.77 2.944 0 5.153-1.32 6.331-3.032l4.368 2.544c-2.258 3.326-5.938 5.33-10.749 5.33-8.098 0-13.349-5.525-13.349-12.862 0-7.239 5.251-12.863 12.957-12.863zm-45.25.635v24.453h-5.3V38.06h5.3zm18.797-.636c5.497 0 9.423 3.717 9.423 10.075v15.015h-5.3V48.036c0-3.717-2.161-5.673-5.497-5.673-3.486 0-6.234 2.053-6.234 7.042v13.108h-5.3V38.06h5.3v3.13c1.62-2.543 4.271-3.766 7.608-3.766zm-56.192.196v5.722c-3.484-.245-7.559 1.37-7.559 6.847v12.324h-5.3V38.06h5.3v4.108c1.473-3.326 4.467-4.549 7.559-4.549zm111.993 0v5.722c-3.486-.245-7.559 1.37-7.559 6.847v12.324h-5.3V38.06h5.3v4.108c1.473-3.326 4.466-4.549 7.559-4.549zm-143.55 4.743c-4.467 0-7.804 3.278-7.804 7.679 0 4.402 3.337 7.678 7.805 7.678 4.465 0 7.802-3.276 7.802-7.678 0-4.4-3.337-7.679-7.802-7.679zm46.624-.145c-3.975 0-6.676 2.347-7.412 6.015h14.43c-.736-4.207-3.829-6.015-7.018-6.015zm67.53 0c-3.976 0-6.676 2.347-7.412 6.015h14.43c-.736-4.207-3.83-6.015-7.018-6.015z"/><path fill="#009FE3" d="M85.423 24.285l-.355.099c-1.7.467-3.52.886-5.428 1.236l-.053.009.176-.035c1.366-.281 3.332-.73 5.591-1.292l.07-.017zm.32-12.694l.77.004c10.143.097 20.562 1.899 20.52 4.168-.043 2.507-12.644 6.27-21.3 8.444l-.31.078.036-.01c7.377-2.085 12.42-5.083 12.459-7.287.048-2.727-7.739-4.96-14.087-5.377.634-.014 1.272-.02 1.913-.02zM105.922 0C84.747 2.676 66.096 8.204 66.583 13.827c.328 3.808 8.581 6.694 20.38 7.927-19.966.45-36.968-3.215-37.337-8.485C49.213 7.393 71.588 2.038 94.4.449c4.138-.288 7.988-.436 11.52-.45z"/></svg>