<svg width="467" height="473" viewBox="0 0 467 473" fill="none" xmlns="http://www.w3.org/2000/svg">
<path d="M-479 473V410.919C-479 382.67 -464.547 359.677 -435.642 341.94C-406.736 324.202 -368.633 315.333 -321.333 315.333C-312.793 315.333 -304.581 315.498 -296.698 315.826C-288.815 316.155 -281.26 316.976 -274.033 318.29C-283.231 332.085 -290.128 346.538 -294.727 361.648C-299.326 376.758 -301.625 392.524 -301.625 408.948V473H-479ZM-242.5 473V408.948C-242.5 387.926 -236.752 368.71 -225.255 351.301C-213.759 333.892 -197.499 318.618 -176.477 305.479C-155.455 292.34 -130.327 282.486 -101.093 275.917C-71.8587 269.347 -40.1611 266.062 -6 266.062C28.8181 266.062 60.8441 269.347 90.0781 275.917C119.312 282.486 144.44 292.34 165.462 305.479C186.485 318.618 202.58 333.892 213.748 351.301C224.916 368.71 230.5 387.926 230.5 408.948V473H-242.5ZM289.625 473V408.948C289.625 391.867 287.49 375.772 283.22 360.663C278.95 345.553 272.544 331.428 264.004 318.29C271.231 316.976 278.621 316.155 286.176 315.826C293.731 315.498 301.45 315.333 309.333 315.333C356.633 315.333 394.736 324.038 423.642 341.447C452.547 358.856 467 382.013 467 410.919V473H289.625ZM-158.74 394.167H147.725C141.156 381.028 122.925 369.531 93.0344 359.677C63.1434 349.823 30.1319 344.896 -6 344.896C-42.132 344.896 -75.1434 349.823 -105.034 359.677C-134.925 369.531 -152.827 381.028 -158.74 394.167ZM-321.333 275.917C-343.012 275.917 -361.571 268.198 -377.009 252.759C-392.448 237.321 -400.167 218.762 -400.167 197.083C-400.167 174.747 -392.448 156.024 -377.009 140.915C-361.571 125.805 -343.012 118.25 -321.333 118.25C-298.997 118.25 -280.274 125.805 -265.165 140.915C-250.055 156.024 -242.5 174.747 -242.5 197.083C-242.5 218.762 -250.055 237.321 -265.165 252.759C-280.274 268.198 -298.997 275.917 -321.333 275.917ZM309.333 275.917C287.654 275.917 269.095 268.198 253.657 252.759C238.219 237.321 230.5 218.762 230.5 197.083C230.5 174.747 238.219 156.024 253.657 140.915C269.095 125.805 287.654 118.25 309.333 118.25C331.669 118.25 350.392 125.805 365.502 140.915C380.612 156.024 388.167 174.747 388.167 197.083C388.167 218.762 380.612 237.321 365.502 252.759C350.392 268.198 331.669 275.917 309.333 275.917ZM-6 236.5C-38.8472 236.5 -66.7674 225.003 -89.7604 202.01C-112.753 179.017 -124.25 151.097 -124.25 118.25C-124.25 84.7458 -112.753 56.6615 -89.7604 33.9969C-66.7674 11.3323 -38.8472 0 -6 0C27.5042 0 55.5886 11.3323 78.2531 33.9969C100.918 56.6615 112.25 84.7458 112.25 118.25C112.25 151.097 100.918 179.017 78.2531 202.01C55.5886 225.003 27.5042 236.5 -6 236.5ZM-6 157.667C5.16806 157.667 14.5295 153.889 22.0844 146.334C29.6392 138.78 33.4167 129.418 33.4167 118.25C33.4167 107.082 29.6392 97.7205 22.0844 90.1656C14.5295 82.6108 5.16806 78.8333 -6 78.8333C-17.1681 78.8333 -26.5295 82.6108 -34.0844 90.1656C-41.6393 97.7205 -45.4167 107.082 -45.4167 118.25C-45.4167 129.418 -41.6393 138.78 -34.0844 146.334C-26.5295 153.889 -17.1681 157.667 -6 157.667Z" fill="#94928D"/>
</svg>
