<svg width="469" height="473" viewBox="0 0 469 473" fill="none" xmlns="http://www.w3.org/2000/svg">
<path d="M946 473V410.919C946 382.67 931.547 359.677 902.642 341.94C873.736 324.202 835.633 315.333 788.333 315.333C779.793 315.333 771.581 315.498 763.698 315.826C755.815 316.155 748.26 316.976 741.033 318.29C750.231 332.085 757.128 346.538 761.727 361.648C766.326 376.758 768.625 392.524 768.625 408.948V473H946ZM709.5 473V408.948C709.5 387.926 703.752 368.71 692.255 351.301C680.759 333.892 664.499 318.618 643.477 305.479C622.455 292.34 597.327 282.486 568.093 275.917C538.859 269.347 507.161 266.062 473 266.062C438.182 266.062 406.156 269.347 376.922 275.917C347.688 282.486 322.56 292.34 301.538 305.479C280.515 318.618 264.42 333.892 253.252 351.301C242.084 368.71 236.5 387.926 236.5 408.948V473H709.5ZM177.375 473V408.948C177.375 391.867 179.51 375.772 183.78 360.663C188.05 345.553 194.456 331.428 202.996 318.29C195.769 316.976 188.379 316.155 180.824 315.826C173.269 315.498 165.55 315.333 157.667 315.333C110.367 315.333 72.2639 324.038 43.3583 341.447C14.4528 358.856 0 382.013 0 410.919V473H177.375ZM625.74 394.167H319.275C325.844 381.028 344.075 369.531 373.966 359.677C403.857 349.823 436.868 344.896 473 344.896C509.132 344.896 542.143 349.823 572.034 359.677C601.925 369.531 619.827 381.028 625.74 394.167ZM788.333 275.917C810.012 275.917 828.571 268.198 844.009 252.759C859.448 237.321 867.167 218.762 867.167 197.083C867.167 174.747 859.448 156.024 844.009 140.915C828.571 125.805 810.012 118.25 788.333 118.25C765.997 118.25 747.274 125.805 732.165 140.915C717.055 156.024 709.5 174.747 709.5 197.083C709.5 218.762 717.055 237.321 732.165 252.759C747.274 268.198 765.997 275.917 788.333 275.917ZM157.667 275.917C179.346 275.917 197.905 268.198 213.343 252.759C228.781 237.321 236.5 218.762 236.5 197.083C236.5 174.747 228.781 156.024 213.343 140.915C197.905 125.805 179.346 118.25 157.667 118.25C135.331 118.25 116.608 125.805 101.498 140.915C86.3882 156.024 78.8334 174.747 78.8334 197.083C78.8334 218.762 86.3882 237.321 101.498 252.759C116.608 268.198 135.331 275.917 157.667 275.917ZM473 236.5C505.847 236.5 533.767 225.003 556.76 202.01C579.753 179.017 591.25 151.097 591.25 118.25C591.25 84.7458 579.753 56.6615 556.76 33.9969C533.767 11.3323 505.847 0 473 0C439.496 0 411.411 11.3323 388.747 33.9969C366.082 56.6615 354.75 84.7458 354.75 118.25C354.75 151.097 366.082 179.017 388.747 202.01C411.411 225.003 439.496 236.5 473 236.5ZM473 157.667C461.832 157.667 452.47 153.889 444.916 146.334C437.361 138.78 433.583 129.418 433.583 118.25C433.583 107.082 437.361 97.7205 444.916 90.1656C452.47 82.6108 461.832 78.8333 473 78.8333C484.168 78.8333 493.53 82.6108 501.084 90.1656C508.639 97.7205 512.417 107.082 512.417 118.25C512.417 129.418 508.639 138.78 501.084 146.334C493.53 153.889 484.168 157.667 473 157.667Z" fill="#94928D"/>
</svg>
