<?xml version="1.0" encoding="UTF-8"?><svg xmlns="http://www.w3.org/2000/svg" viewBox="0 0 197.11 219.51"><defs><style>.cls-1{fill:#f1d370;}.cls-2{fill:#ffefbe;}.cls-3{fill:#e6ac24;}.cls-4{fill:#da8500;}.cls-5{fill:none;stroke:#39b24a;stroke-dasharray:0 60;stroke-miterlimit:10;stroke-width:2px;}</style></defs><g id="ELEMENTS"><rect class="cls-5" x="-24.11" y="-4801.08" width="245.34" height="5364.53"/></g><g id="Layer_1"><g><g><path class="cls-2" d="M98.55,214.01c-3.62,0-7.19-.96-10.33-2.77L15.83,169.44c-6.37-3.68-10.33-10.53-10.33-17.89V67.96c0-7.36,3.96-14.21,10.33-17.89L88.23,8.27c3.14-1.81,6.71-2.77,10.33-2.77s7.19,.96,10.33,2.77l72.4,41.8c6.37,3.68,10.33,10.53,10.33,17.89v83.6c0,7.36-3.96,14.21-10.33,17.89l-72.4,41.8c-3.14,1.81-6.71,2.77-10.33,2.77Z"/><path class="cls-1" d="M98.55,11c2.62,0,5.23,.68,7.58,2.03l72.4,41.8c4.69,2.71,7.58,7.71,7.58,13.13v83.6c0,5.42-2.89,10.42-7.58,13.13l-72.4,41.8c-2.34,1.35-4.96,2.03-7.58,2.03s-5.23-.68-7.58-2.03L18.58,164.68c-4.69-2.71-7.58-7.71-7.58-13.13V67.96c0-5.42,2.89-10.42,7.58-13.13L90.98,13.03c2.34-1.35,4.96-2.03,7.58-2.03M98.55,0C93.97,0,89.45,1.21,85.48,3.5L13.08,45.3C5.01,49.96,0,58.64,0,67.96v83.6c0,9.32,5.01,18,13.08,22.65l72.4,41.8c3.97,2.29,8.49,3.5,13.08,3.5s9.11-1.21,13.08-3.5l72.4-41.8c8.07-4.66,13.08-13.34,13.08-22.65V67.96c0-9.32-5.01-18-13.08-22.65L111.63,3.5C107.66,1.21,103.14,0,98.55,0h0Z"/></g><g><path class="cls-3" d="M155.98,94.71c-.77-1.12-1.97-1.95-3.55-2.17l-16.16-2.35-.39-.06h0l-14.64-2.11c-1.75-.26-3.23-1.34-4-2.92l-13.95-28.24c-1.95-3.94-7.57-3.94-9.52,0l-13.95,28.24c-.77,1.58-2.27,2.66-4,2.92l-31.16,4.51c-4.36,.63-6.09,6.01-2.94,9.07l22.56,21.99c1.26,1.22,1.83,2.98,1.52,4.71l-5.32,31.06c-.75,4.36,3.8,7.67,7.73,5.6l27.89-14.66c1.54-.81,3.41-.81,4.95,0l27.89,14.66c2.01,1.06,4.18,.69,5.71-.51,.06-.06,.12-.12,.18-.14,.3-.24,.57-.49,.81-.81,.12-.14,.2-.32,.3-.49,.14-.24,.32-.45,.39-.71,.12-.26,.18-.57,.24-.87,.02-.18,.12-.34,.14-.55,.06-.49,.06-1.01-.02-1.54h0l-.37-2.11-2.6-15.17h0l-2.36-13.76c-.3-1.71,.3-3.49,1.52-4.71l22.56-21.99h0c2.03-1.97,2.01-4.89,.59-6.9h-.02Z"/><path class="cls-4" d="M155.41,101.61c2.03-1.97,2.01-4.89,.59-6.9h-.02c-.77-1.12-1.97-1.95-3.55-2.17l-16.16-2.35-.39-.06-14.64-2.11c-1.17-.17-2.21-.72-3.01-1.53-1.9,35.67-25.54,65.39-57.56,75.44,.97,2.94,4.44,4.66,7.54,3.02l27.89-14.66c1.54-.81,3.41-.81,4.95,0l27.89,14.66c2.01,1.06,4.18,.69,5.72-.51,.06-.06,.12-.12,.18-.14,.3-.24,.57-.49,.81-.81,.12-.14,.2-.32,.3-.49,.14-.24,.32-.45,.39-.71,.12-.26,.18-.57,.24-.87,.02-.18,.12-.33,.14-.55,.06-.49,.06-1.01-.02-1.54l-.37-2.11-2.6-15.17-2.36-13.76c-.3-1.71,.3-3.49,1.52-4.71l22.56-21.99Z"/></g></g></g></svg>