<svg width="499" height="499" viewBox="0 0 499 499" fill="none" xmlns="http://www.w3.org/2000/svg">
<circle cx="55.5" cy="249.5" r="55.5" fill="#024A44"/>
<path d="M55.4999 221.125L50.3958 216.021L55.4999 210.917L60.6041 216.021L55.4999 221.125ZM39.4583 237.167V231.333C39.4583 230.507 39.7438 229.814 40.315 229.255C40.8862 228.696 41.5728 228.417 42.3749 228.417H47.151C47.6371 228.417 48.0989 228.538 48.5364 228.781C48.9739 229.024 49.3263 229.352 49.5937 229.766C50.2985 230.714 51.1675 231.455 52.2004 231.99C53.2334 232.524 54.3333 232.792 55.4999 232.792C56.6909 232.792 57.8029 232.524 58.8359 231.99C59.8688 231.455 60.7256 230.714 61.4062 229.766C61.7221 229.352 62.0928 229.024 62.5181 228.781C62.9435 228.538 63.3871 228.417 63.8489 228.417H68.6249C69.4513 228.417 70.144 228.696 70.703 229.255C71.2621 229.814 71.5416 230.507 71.5416 231.333V237.167H61.3333V233.849C60.4826 234.457 59.565 234.918 58.5806 235.234C57.5963 235.55 56.5694 235.708 55.4999 235.708C54.4548 235.708 53.4339 235.544 52.4374 235.216C51.4409 234.888 50.5173 234.42 49.6666 233.812V237.167H39.4583ZM43.8333 226.958C42.618 226.958 41.585 226.533 40.7343 225.682C39.8836 224.832 39.4583 223.799 39.4583 222.583C39.4583 221.344 39.8836 220.305 40.7343 219.466C41.585 218.628 42.618 218.208 43.8333 218.208C45.0728 218.208 46.1119 218.628 46.9504 219.466C47.789 220.305 48.2083 221.344 48.2083 222.583C48.2083 223.799 47.789 224.832 46.9504 225.682C46.1119 226.533 45.0728 226.958 43.8333 226.958ZM67.1666 226.958C65.9513 226.958 64.9183 226.533 64.0676 225.682C63.2169 224.832 62.7916 223.799 62.7916 222.583C62.7916 221.344 63.2169 220.305 64.0676 219.466C64.9183 218.628 65.9513 218.208 67.1666 218.208C68.4062 218.208 69.4452 218.628 70.2838 219.466C71.1223 220.305 71.5416 221.344 71.5416 222.583C71.5416 223.799 71.1223 224.832 70.2838 225.682C69.4452 226.533 68.4062 226.958 67.1666 226.958Z" fill="#FCF8F5"/>
<path d="M27.245 253.5H29.675V262.02H34.94V264H27.245V253.5ZM40.1391 262.245C40.5591 262.245 40.9291 262.185 41.2491 262.065C41.5791 261.935 41.8841 261.735 42.1641 261.465L43.4091 262.815C42.6491 263.685 41.5391 264.12 40.0791 264.12C39.1691 264.12 38.3641 263.945 37.6641 263.595C36.9641 263.235 36.4241 262.74 36.0441 262.11C35.6641 261.48 35.4741 260.765 35.4741 259.965C35.4741 259.175 35.6591 258.465 36.0291 257.835C36.4091 257.195 36.9241 256.7 37.5741 256.35C38.2341 255.99 38.9741 255.81 39.7941 255.81C40.5641 255.81 41.2641 255.975 41.8941 256.305C42.5241 256.625 43.0241 257.095 43.3941 257.715C43.7741 258.325 43.9641 259.05 43.9641 259.89L37.9941 261.045C38.1641 261.445 38.4291 261.745 38.7891 261.945C39.1591 262.145 39.6091 262.245 40.1391 262.245ZM39.7941 257.58C39.2041 257.58 38.7241 257.77 38.3541 258.15C37.9841 258.53 37.7891 259.055 37.7691 259.725L41.6991 258.96C41.5891 258.54 41.3641 258.205 41.0241 257.955C40.6841 257.705 40.2741 257.58 39.7941 257.58ZM53.862 255.93V262.65C53.862 264.13 53.477 265.23 52.707 265.95C51.937 266.67 50.812 267.03 49.332 267.03C48.552 267.03 47.812 266.935 47.112 266.745C46.412 266.555 45.832 266.28 45.372 265.92L46.302 264.24C46.642 264.52 47.072 264.74 47.592 264.9C48.112 265.07 48.632 265.155 49.152 265.155C49.962 265.155 50.557 264.97 50.937 264.6C51.327 264.24 51.522 263.69 51.522 262.95V262.605C50.912 263.275 50.062 263.61 48.972 263.61C48.232 263.61 47.552 263.45 46.932 263.13C46.322 262.8 45.837 262.34 45.477 261.75C45.117 261.16 44.937 260.48 44.937 259.71C44.937 258.94 45.117 258.26 45.477 257.67C45.837 257.08 46.322 256.625 46.932 256.305C47.552 255.975 48.232 255.81 48.972 255.81C50.142 255.81 51.032 256.195 51.642 256.965V255.93H53.862ZM49.437 261.69C50.057 261.69 50.562 261.51 50.952 261.15C51.352 260.78 51.552 260.3 51.552 259.71C51.552 259.12 51.352 258.645 50.952 258.285C50.562 257.915 50.057 257.73 49.437 257.73C48.817 257.73 48.307 257.915 47.907 258.285C47.507 258.645 47.307 259.12 47.307 259.71C47.307 260.3 47.507 260.78 47.907 261.15C48.307 261.51 48.817 261.69 49.437 261.69ZM64.23 255.93V264H61.995V263.07C61.415 263.77 60.575 264.12 59.475 264.12C58.715 264.12 58.025 263.95 57.405 263.61C56.795 263.27 56.315 262.785 55.965 262.155C55.615 261.525 55.44 260.795 55.44 259.965C55.44 259.135 55.615 258.405 55.965 257.775C56.315 257.145 56.795 256.66 57.405 256.32C58.025 255.98 58.715 255.81 59.475 255.81C60.505 255.81 61.31 256.135 61.89 256.785V255.93H64.23ZM59.88 262.2C60.47 262.2 60.96 262 61.35 261.6C61.74 261.19 61.935 260.645 61.935 259.965C61.935 259.285 61.74 258.745 61.35 258.345C60.96 257.935 60.47 257.73 59.88 257.73C59.28 257.73 58.785 257.935 58.395 258.345C58.005 258.745 57.81 259.285 57.81 259.965C57.81 260.645 58.005 261.19 58.395 261.6C58.785 262 59.28 262.2 59.88 262.2ZM70.2964 264.12C69.4364 264.12 68.6614 263.945 67.9714 263.595C67.2914 263.235 66.7564 262.74 66.3664 262.11C65.9864 261.48 65.7964 260.765 65.7964 259.965C65.7964 259.165 65.9864 258.45 66.3664 257.82C66.7564 257.19 67.2914 256.7 67.9714 256.35C68.6614 255.99 69.4364 255.81 70.2964 255.81C71.1464 255.81 71.8864 255.99 72.5164 256.35C73.1564 256.7 73.6214 257.205 73.9114 257.865L72.0964 258.84C71.6764 258.1 71.0714 257.73 70.2814 257.73C69.6714 257.73 69.1664 257.93 68.7664 258.33C68.3664 258.73 68.1664 259.275 68.1664 259.965C68.1664 260.655 68.3664 261.2 68.7664 261.6C69.1664 262 69.6714 262.2 70.2814 262.2C71.0814 262.2 71.6864 261.83 72.0964 261.09L73.9114 262.08C73.6214 262.72 73.1564 263.22 72.5164 263.58C71.8864 263.94 71.1464 264.12 70.2964 264.12ZM83.3887 255.93V262.65C83.3887 264.13 83.0137 265.23 82.2637 265.95C81.5137 266.67 80.4237 267.03 78.9937 267.03C78.2337 267.03 77.5137 266.935 76.8337 266.745C76.1637 266.555 75.5987 266.28 75.1387 265.92L76.0687 264.24C76.4087 264.52 76.8237 264.74 77.3137 264.9C77.8037 265.06 78.2987 265.14 78.7987 265.14C79.5787 265.14 80.1487 264.96 80.5087 264.6C80.8687 264.24 81.0487 263.69 81.0487 262.95V262.68C80.7487 262.98 80.3937 263.21 79.9837 263.37C79.5737 263.53 79.1337 263.61 78.6637 263.61C77.6037 263.61 76.7637 263.31 76.1437 262.71C75.5237 262.1 75.2137 261.19 75.2137 259.98V255.93H77.5537V259.635C77.5537 260.945 78.0987 261.6 79.1887 261.6C79.7487 261.6 80.1987 261.42 80.5387 261.06C80.8787 260.69 81.0487 260.145 81.0487 259.425V255.93H83.3887Z" fill="#FCF8F5"/>
<circle cx="249.5" cy="55.5" r="55.5" fill="#024A44"/>
<path d="M243.667 38.7917V35.875H246.838C246.717 36.3611 246.638 36.8472 246.601 37.3333C246.565 37.8194 246.571 38.3055 246.62 38.7917H243.667ZM243.667 46.0833C241.649 46.0833 239.93 45.3724 238.508 43.9505C237.086 42.5286 236.375 40.809 236.375 38.7917V25.6667C235.573 25.6667 234.886 25.3811 234.315 24.8099C233.744 24.2387 233.458 23.5521 233.458 22.75V19.8333C233.458 19.0312 233.744 18.3446 234.315 17.7734C234.886 17.2022 235.573 16.9167 236.375 16.9167H250.958C251.76 16.9167 252.447 17.2022 253.018 17.7734C253.589 18.3446 253.875 19.0312 253.875 19.8333V22.75C253.875 23.5521 253.589 24.2387 253.018 24.8099C252.447 25.3811 251.76 25.6667 250.958 25.6667V30.0781C250.375 30.4427 249.84 30.868 249.354 31.3542C248.868 31.8403 248.443 32.375 248.078 32.9583H243.667V30.0417H248.042V25.6667H239.292V38.7917C239.292 40.0069 239.717 41.0399 240.568 41.8906C241.418 42.7413 242.451 43.1667 243.667 43.1667C244.396 43.1667 245.058 43.0087 245.654 42.6927C246.249 42.3767 246.753 41.9392 247.167 41.3802C247.361 41.8663 247.58 42.3281 247.823 42.7656C248.066 43.2031 248.358 43.6285 248.698 44.0417C248.042 44.6736 247.288 45.1719 246.437 45.5364C245.587 45.901 244.663 46.0833 243.667 46.0833ZM236.375 22.75H250.958V19.8333H236.375V22.75ZM256.062 41.7083C257.083 41.7083 257.946 41.3559 258.651 40.651C259.356 39.9462 259.708 39.0833 259.708 38.0625C259.708 37.0417 259.356 36.1788 258.651 35.4739C257.946 34.7691 257.083 34.4167 256.062 34.4167C255.042 34.4167 254.179 34.7691 253.474 35.4739C252.769 36.1788 252.417 37.0417 252.417 38.0625C252.417 39.0833 252.769 39.9462 253.474 40.651C254.179 41.3559 255.042 41.7083 256.062 41.7083ZM263.5 47.5417L259.562 43.6042C259.028 43.9444 258.469 44.1996 257.885 44.3698C257.302 44.5399 256.694 44.625 256.062 44.625C254.24 44.625 252.69 43.987 251.414 42.7109C250.138 41.4349 249.5 39.8854 249.5 38.0625C249.5 36.2396 250.138 34.6901 251.414 33.4141C252.69 32.138 254.24 31.5 256.062 31.5C257.885 31.5 259.435 32.138 260.711 33.4141C261.987 34.6901 262.625 36.2396 262.625 38.0625C262.625 38.6944 262.54 39.3021 262.37 39.8854C262.2 40.4687 261.944 41.0278 261.604 41.5625L265.542 45.5L263.5 47.5417Z" fill="#FCF8F5"/>
<path d="M211.245 59.5H216.015C217.155 59.5 218.16 59.72 219.03 60.16C219.91 60.59 220.59 61.2 221.07 61.99C221.56 62.78 221.805 63.7 221.805 64.75C221.805 65.8 221.56 66.72 221.07 67.51C220.59 68.3 219.91 68.915 219.03 69.355C218.16 69.785 217.155 70 216.015 70H211.245V59.5ZM215.895 68.005C216.945 68.005 217.78 67.715 218.4 67.135C219.03 66.545 219.345 65.75 219.345 64.75C219.345 63.75 219.03 62.96 218.4 62.38C217.78 61.79 216.945 61.495 215.895 61.495H213.675V68.005H215.895ZM223.473 61.93H225.813V70H223.473V61.93ZM224.643 60.805C224.213 60.805 223.863 60.68 223.593 60.43C223.323 60.18 223.188 59.87 223.188 59.5C223.188 59.13 223.323 58.82 223.593 58.57C223.863 58.32 224.213 58.195 224.643 58.195C225.073 58.195 225.423 58.315 225.693 58.555C225.963 58.795 226.098 59.095 226.098 59.455C226.098 59.845 225.963 60.17 225.693 60.43C225.423 60.68 225.073 60.805 224.643 60.805ZM230.699 70.12C230.029 70.12 229.374 70.04 228.734 69.88C228.094 69.71 227.584 69.5 227.204 69.25L227.984 67.57C228.344 67.8 228.779 67.99 229.289 68.14C229.799 68.28 230.299 68.35 230.789 68.35C231.779 68.35 232.274 68.105 232.274 67.615C232.274 67.385 232.139 67.22 231.869 67.12C231.599 67.02 231.184 66.935 230.624 66.865C229.964 66.765 229.419 66.65 228.989 66.52C228.559 66.39 228.184 66.16 227.864 65.83C227.554 65.5 227.399 65.03 227.399 64.42C227.399 63.91 227.544 63.46 227.834 63.07C228.134 62.67 228.564 62.36 229.124 62.14C229.694 61.92 230.364 61.81 231.134 61.81C231.704 61.81 232.269 61.875 232.829 62.005C233.399 62.125 233.869 62.295 234.239 62.515L233.459 64.18C232.749 63.78 231.974 63.58 231.134 63.58C230.634 63.58 230.259 63.65 230.009 63.79C229.759 63.93 229.634 64.11 229.634 64.33C229.634 64.58 229.769 64.755 230.039 64.855C230.309 64.955 230.739 65.05 231.329 65.14C231.989 65.25 232.529 65.37 232.949 65.5C233.369 65.62 233.734 65.845 234.044 66.175C234.354 66.505 234.509 66.965 234.509 67.555C234.509 68.055 234.359 68.5 234.059 68.89C233.759 69.28 233.319 69.585 232.739 69.805C232.169 70.015 231.489 70.12 230.699 70.12ZM239.853 70.12C238.993 70.12 238.218 69.945 237.528 69.595C236.848 69.235 236.313 68.74 235.923 68.11C235.543 67.48 235.353 66.765 235.353 65.965C235.353 65.165 235.543 64.45 235.923 63.82C236.313 63.19 236.848 62.7 237.528 62.35C238.218 61.99 238.993 61.81 239.853 61.81C240.703 61.81 241.443 61.99 242.073 62.35C242.713 62.7 243.178 63.205 243.468 63.865L241.653 64.84C241.233 64.1 240.628 63.73 239.838 63.73C239.228 63.73 238.723 63.93 238.323 64.33C237.923 64.73 237.723 65.275 237.723 65.965C237.723 66.655 237.923 67.2 238.323 67.6C238.723 68 239.228 68.2 239.838 68.2C240.638 68.2 241.243 67.83 241.653 67.09L243.468 68.08C243.178 68.72 242.713 69.22 242.073 69.58C241.443 69.94 240.703 70.12 239.853 70.12ZM248.553 70.12C247.703 70.12 246.938 69.945 246.258 69.595C245.588 69.235 245.063 68.74 244.683 68.11C244.303 67.48 244.113 66.765 244.113 65.965C244.113 65.165 244.303 64.45 244.683 63.82C245.063 63.19 245.588 62.7 246.258 62.35C246.938 61.99 247.703 61.81 248.553 61.81C249.403 61.81 250.163 61.99 250.833 62.35C251.503 62.7 252.028 63.19 252.408 63.82C252.788 64.45 252.978 65.165 252.978 65.965C252.978 66.765 252.788 67.48 252.408 68.11C252.028 68.74 251.503 69.235 250.833 69.595C250.163 69.945 249.403 70.12 248.553 70.12ZM248.553 68.2C249.153 68.2 249.643 68 250.023 67.6C250.413 67.19 250.608 66.645 250.608 65.965C250.608 65.285 250.413 64.745 250.023 64.345C249.643 63.935 249.153 63.73 248.553 63.73C247.953 63.73 247.458 63.935 247.068 64.345C246.678 64.745 246.483 65.285 246.483 65.965C246.483 66.645 246.678 67.19 247.068 67.6C247.458 68 247.953 68.2 248.553 68.2ZM262.332 61.93L258.927 70H256.512L253.122 61.93H255.537L257.772 67.42L260.082 61.93H262.332ZM267.132 68.245C267.552 68.245 267.922 68.185 268.242 68.065C268.572 67.935 268.877 67.735 269.157 67.465L270.402 68.815C269.642 69.685 268.532 70.12 267.072 70.12C266.162 70.12 265.357 69.945 264.657 69.595C263.957 69.235 263.417 68.74 263.037 68.11C262.657 67.48 262.467 66.765 262.467 65.965C262.467 65.175 262.652 64.465 263.022 63.835C263.402 63.195 263.917 62.7 264.567 62.35C265.227 61.99 265.967 61.81 266.787 61.81C267.557 61.81 268.257 61.975 268.887 62.305C269.517 62.625 270.017 63.095 270.387 63.715C270.767 64.325 270.957 65.05 270.957 65.89L264.987 67.045C265.157 67.445 265.422 67.745 265.782 67.945C266.152 68.145 266.602 68.245 267.132 68.245ZM266.787 63.58C266.197 63.58 265.717 63.77 265.347 64.15C264.977 64.53 264.782 65.055 264.762 65.725L268.692 64.96C268.582 64.54 268.357 64.205 268.017 63.955C267.677 63.705 267.267 63.58 266.787 63.58ZM274.765 62.995C275.045 62.605 275.42 62.31 275.89 62.11C276.37 61.91 276.92 61.81 277.54 61.81V63.97C277.28 63.95 277.105 63.94 277.015 63.94C276.345 63.94 275.82 64.13 275.44 64.51C275.06 64.88 274.87 65.44 274.87 66.19V70H272.53V61.93H274.765V62.995ZM287.12 61.93V68.65C287.12 70.13 286.745 71.23 285.995 71.95C285.245 72.67 284.155 73.03 282.725 73.03C281.965 73.03 281.245 72.935 280.565 72.745C279.895 72.555 279.33 72.28 278.87 71.92L279.8 70.24C280.14 70.52 280.555 70.74 281.045 70.9C281.535 71.06 282.03 71.14 282.53 71.14C283.31 71.14 283.88 70.96 284.24 70.6C284.6 70.24 284.78 69.69 284.78 68.95V68.68C284.48 68.98 284.125 69.21 283.715 69.37C283.305 69.53 282.865 69.61 282.395 69.61C281.335 69.61 280.495 69.31 279.875 68.71C279.255 68.1 278.945 67.19 278.945 65.98V61.93H281.285V65.635C281.285 66.945 281.83 67.6 282.92 67.6C283.48 67.6 283.93 67.42 284.27 67.06C284.61 66.69 284.78 66.145 284.78 65.425V61.93H287.12Z" fill="#FCF8F5"/>
<circle cx="443.5" cy="249.5" r="55.5" fill="#024A44"/>
<g clip-path="url(#clip0_44_1504)">
<path d="M426 234.25V231.953C426 230.908 426.535 230.057 427.604 229.401C428.674 228.745 430.083 228.417 431.833 228.417C432.149 228.417 432.453 228.423 432.745 228.435C433.036 228.447 433.316 228.477 433.583 228.526C433.243 229.036 432.988 229.571 432.818 230.13C432.648 230.689 432.562 231.273 432.562 231.88V234.25H426ZM434.75 234.25V231.88C434.75 231.102 434.963 230.391 435.388 229.747C435.813 229.103 436.415 228.538 437.193 228.052C437.97 227.566 438.9 227.201 439.982 226.958C441.063 226.715 442.236 226.594 443.5 226.594C444.788 226.594 445.973 226.715 447.055 226.958C448.136 227.201 449.066 227.566 449.844 228.052C450.622 228.538 451.217 229.103 451.63 229.747C452.043 230.391 452.25 231.102 452.25 231.88V234.25H434.75ZM454.437 234.25V231.88C454.437 231.248 454.359 230.653 454.201 230.094C454.043 229.535 453.806 229.012 453.49 228.526C453.757 228.477 454.03 228.447 454.31 228.435C454.589 228.423 454.875 228.417 455.167 228.417C456.917 228.417 458.326 228.739 459.396 229.383C460.465 230.027 461 230.884 461 231.953V234.25H454.437ZM437.849 231.333H449.188C448.944 230.847 448.27 230.422 447.164 230.057C446.058 229.693 444.837 229.51 443.5 229.51C442.163 229.51 440.942 229.693 439.836 230.057C438.73 230.422 438.068 230.847 437.849 231.333ZM431.833 226.958C431.031 226.958 430.345 226.673 429.773 226.102C429.202 225.53 428.917 224.844 428.917 224.042C428.917 223.215 429.202 222.523 429.773 221.964C430.345 221.405 431.031 221.125 431.833 221.125C432.66 221.125 433.352 221.405 433.911 221.964C434.47 222.523 434.75 223.215 434.75 224.042C434.75 224.844 434.47 225.53 433.911 226.102C433.352 226.673 432.66 226.958 431.833 226.958ZM455.167 226.958C454.365 226.958 453.678 226.673 453.107 226.102C452.536 225.53 452.25 224.844 452.25 224.042C452.25 223.215 452.536 222.523 453.107 221.964C453.678 221.405 454.365 221.125 455.167 221.125C455.993 221.125 456.686 221.405 457.245 221.964C457.804 222.523 458.083 223.215 458.083 224.042C458.083 224.844 457.804 225.53 457.245 226.102C456.686 226.673 455.993 226.958 455.167 226.958ZM443.5 225.5C442.285 225.5 441.252 225.075 440.401 224.224C439.55 223.373 439.125 222.34 439.125 221.125C439.125 219.885 439.55 218.846 440.401 218.008C441.252 217.169 442.285 216.75 443.5 216.75C444.74 216.75 445.779 217.169 446.617 218.008C447.456 218.846 447.875 219.885 447.875 221.125C447.875 222.34 447.456 223.373 446.617 224.224C445.779 225.075 444.74 225.5 443.5 225.5ZM443.5 222.583C443.913 222.583 444.26 222.444 444.539 222.164C444.819 221.885 444.958 221.538 444.958 221.125C444.958 220.712 444.819 220.365 444.539 220.086C444.26 219.806 443.913 219.667 443.5 219.667C443.087 219.667 442.74 219.806 442.461 220.086C442.181 220.365 442.042 220.712 442.042 221.125C442.042 221.538 442.181 221.885 442.461 222.164C442.74 222.444 443.087 222.583 443.5 222.583Z" fill="#FCF8F5"/>
</g>
<path d="M403.27 264.18C402.2 264.18 401.23 263.95 400.36 263.49C399.5 263.02 398.82 262.375 398.32 261.555C397.83 260.725 397.585 259.79 397.585 258.75C397.585 257.71 397.83 256.78 398.32 255.96C398.82 255.13 399.5 254.485 400.36 254.025C401.23 253.555 402.205 253.32 403.285 253.32C404.195 253.32 405.015 253.48 405.745 253.8C406.485 254.12 407.105 254.58 407.605 255.18L406.045 256.62C405.335 255.8 404.455 255.39 403.405 255.39C402.755 255.39 402.175 255.535 401.665 255.825C401.155 256.105 400.755 256.5 400.465 257.01C400.185 257.52 400.045 258.1 400.045 258.75C400.045 259.4 400.185 259.98 400.465 260.49C400.755 261 401.155 261.4 401.665 261.69C402.175 261.97 402.755 262.11 403.405 262.11C404.455 262.11 405.335 261.695 406.045 260.865L407.605 262.305C407.105 262.915 406.485 263.38 405.745 263.7C405.005 264.02 404.18 264.18 403.27 264.18ZM412.643 264.12C411.793 264.12 411.028 263.945 410.348 263.595C409.678 263.235 409.153 262.74 408.773 262.11C408.393 261.48 408.203 260.765 408.203 259.965C408.203 259.165 408.393 258.45 408.773 257.82C409.153 257.19 409.678 256.7 410.348 256.35C411.028 255.99 411.793 255.81 412.643 255.81C413.493 255.81 414.253 255.99 414.923 256.35C415.593 256.7 416.118 257.19 416.498 257.82C416.878 258.45 417.068 259.165 417.068 259.965C417.068 260.765 416.878 261.48 416.498 262.11C416.118 262.74 415.593 263.235 414.923 263.595C414.253 263.945 413.493 264.12 412.643 264.12ZM412.643 262.2C413.243 262.2 413.733 262 414.113 261.6C414.503 261.19 414.698 260.645 414.698 259.965C414.698 259.285 414.503 258.745 414.113 258.345C413.733 257.935 413.243 257.73 412.643 257.73C412.043 257.73 411.548 257.935 411.158 258.345C410.768 258.745 410.573 259.285 410.573 259.965C410.573 260.645 410.768 261.19 411.158 261.6C411.548 262 412.043 262.2 412.643 262.2ZM428.967 255.81C429.977 255.81 430.777 256.11 431.367 256.71C431.967 257.3 432.267 258.19 432.267 259.38V264H429.927V259.74C429.927 259.1 429.792 258.625 429.522 258.315C429.262 257.995 428.887 257.835 428.397 257.835C427.847 257.835 427.412 258.015 427.092 258.375C426.772 258.725 426.612 259.25 426.612 259.95V264H424.272V259.74C424.272 258.47 423.762 257.835 422.742 257.835C422.202 257.835 421.772 258.015 421.452 258.375C421.132 258.725 420.972 259.25 420.972 259.95V264H418.632V255.93H420.867V256.86C421.167 256.52 421.532 256.26 421.962 256.08C422.402 255.9 422.882 255.81 423.402 255.81C423.972 255.81 424.487 255.925 424.947 256.155C425.407 256.375 425.777 256.7 426.057 257.13C426.387 256.71 426.802 256.385 427.302 256.155C427.812 255.925 428.367 255.81 428.967 255.81ZM444.699 255.81C445.709 255.81 446.509 256.11 447.099 256.71C447.699 257.3 447.999 258.19 447.999 259.38V264H445.659V259.74C445.659 259.1 445.524 258.625 445.254 258.315C444.994 257.995 444.619 257.835 444.129 257.835C443.579 257.835 443.144 258.015 442.824 258.375C442.504 258.725 442.344 259.25 442.344 259.95V264H440.004V259.74C440.004 258.47 439.494 257.835 438.474 257.835C437.934 257.835 437.504 258.015 437.184 258.375C436.864 258.725 436.704 259.25 436.704 259.95V264H434.364V255.93H436.599V256.86C436.899 256.52 437.264 256.26 437.694 256.08C438.134 255.9 438.614 255.81 439.134 255.81C439.704 255.81 440.219 255.925 440.679 256.155C441.139 256.375 441.509 256.7 441.789 257.13C442.119 256.71 442.534 256.385 443.034 256.155C443.544 255.925 444.099 255.81 444.699 255.81ZM458.227 255.93V264H456.007V263.04C455.697 263.39 455.327 263.66 454.897 263.85C454.467 264.03 454.002 264.12 453.502 264.12C452.442 264.12 451.602 263.815 450.982 263.205C450.362 262.595 450.052 261.69 450.052 260.49V255.93H452.392V260.145C452.392 261.445 452.937 262.095 454.027 262.095C454.587 262.095 455.037 261.915 455.377 261.555C455.717 261.185 455.887 260.64 455.887 259.92V255.93H458.227ZM465.299 255.81C466.299 255.81 467.104 256.11 467.714 256.71C468.334 257.31 468.644 258.2 468.644 259.38V264H466.304V259.74C466.304 259.1 466.164 258.625 465.884 258.315C465.604 257.995 465.199 257.835 464.669 257.835C464.079 257.835 463.609 258.02 463.259 258.39C462.909 258.75 462.734 259.29 462.734 260.01V264H460.394V255.93H462.629V256.875C462.939 256.535 463.324 256.275 463.784 256.095C464.244 255.905 464.749 255.81 465.299 255.81ZM470.766 255.93H473.106V264H470.766V255.93ZM471.936 254.805C471.506 254.805 471.156 254.68 470.886 254.43C470.616 254.18 470.481 253.87 470.481 253.5C470.481 253.13 470.616 252.82 470.886 252.57C471.156 252.32 471.506 252.195 471.936 252.195C472.366 252.195 472.716 252.315 472.986 252.555C473.256 252.795 473.391 253.095 473.391 253.455C473.391 253.845 473.256 254.17 472.986 254.43C472.716 254.68 472.366 254.805 471.936 254.805ZM480.137 263.61C479.907 263.78 479.622 263.91 479.282 264C478.952 264.08 478.607 264.12 478.247 264.12C477.277 264.12 476.532 263.875 476.012 263.385C475.492 262.895 475.232 262.175 475.232 261.225V254.145H477.572V256.11H479.567V257.91H477.572V261.195C477.572 261.535 477.657 261.8 477.827 261.99C477.997 262.17 478.242 262.26 478.562 262.26C478.922 262.26 479.242 262.16 479.522 261.96L480.137 263.61ZM489.589 255.93V262.65C489.589 264.13 489.214 265.23 488.464 265.95C487.714 266.67 486.624 267.03 485.194 267.03C484.434 267.03 483.714 266.935 483.034 266.745C482.364 266.555 481.799 266.28 481.339 265.92L482.269 264.24C482.609 264.52 483.024 264.74 483.514 264.9C484.004 265.06 484.499 265.14 484.999 265.14C485.779 265.14 486.349 264.96 486.709 264.6C487.069 264.24 487.249 263.69 487.249 262.95V262.68C486.949 262.98 486.594 263.21 486.184 263.37C485.774 263.53 485.334 263.61 484.864 263.61C483.804 263.61 482.964 263.31 482.344 262.71C481.724 262.1 481.414 261.19 481.414 259.98V255.93H483.754V259.635C483.754 260.945 484.299 261.6 485.389 261.6C485.949 261.6 486.399 261.42 486.739 261.06C487.079 260.69 487.249 260.145 487.249 259.425V255.93H489.589Z" fill="#FCF8F5"/>
<circle cx="249.5" cy="443.5" r="55.5" fill="#024A44"/>
<path d="M249.5 434.083C248.868 434.083 248.297 433.931 247.786 433.628C247.276 433.324 246.875 432.917 246.583 432.406C245.781 432.406 245.095 432.121 244.523 431.549C243.952 430.978 243.667 430.292 243.667 429.49V424.313C242.233 423.365 241.084 422.113 240.221 420.557C239.358 419.002 238.927 417.313 238.927 415.49C238.927 412.549 239.954 410.051 242.008 407.997C244.062 405.944 246.559 404.917 249.5 404.917C252.441 404.917 254.938 405.944 256.992 407.997C259.046 410.051 260.073 412.549 260.073 415.49C260.073 417.361 259.641 419.063 258.779 420.594C257.916 422.125 256.767 423.365 255.333 424.313V429.49C255.333 430.292 255.048 430.978 254.476 431.549C253.905 432.121 253.219 432.406 252.417 432.406C252.125 432.917 251.724 433.324 251.213 433.628C250.703 433.931 250.132 434.083 249.5 434.083ZM246.583 429.49H252.417V428.177H246.583V429.49ZM246.583 426.719H252.417V425.333H246.583V426.719ZM246.292 422.417H248.406V418.479L245.198 415.271L246.729 413.74L249.5 416.51L252.271 413.74L253.802 415.271L250.594 418.479V422.417H252.708C254.021 421.785 255.09 420.855 255.917 419.628C256.743 418.4 257.156 417.021 257.156 415.49C257.156 413.351 256.415 411.54 254.932 410.057C253.45 408.575 251.639 407.833 249.5 407.833C247.361 407.833 245.55 408.575 244.068 410.057C242.585 411.54 241.844 413.351 241.844 415.49C241.844 417.021 242.257 418.4 243.083 419.628C243.91 420.855 244.979 421.785 246.292 422.417Z" fill="#FCF8F5"/>
<path d="M210.845 449.45V456.05H212.66V458H206.585V456.05H208.415V449.45H206.585V447.5H212.66V449.45H210.845ZM219.236 449.81C220.236 449.81 221.041 450.11 221.651 450.71C222.271 451.31 222.581 452.2 222.581 453.38V458H220.241V453.74C220.241 453.1 220.101 452.625 219.821 452.315C219.541 451.995 219.136 451.835 218.606 451.835C218.016 451.835 217.546 452.02 217.196 452.39C216.846 452.75 216.671 453.29 216.671 454.01V458H214.331V449.93H216.566V450.875C216.876 450.535 217.261 450.275 217.721 450.095C218.181 449.905 218.686 449.81 219.236 449.81ZM229.607 449.81C230.607 449.81 231.412 450.11 232.022 450.71C232.642 451.31 232.952 452.2 232.952 453.38V458H230.612V453.74C230.612 453.1 230.472 452.625 230.192 452.315C229.912 451.995 229.507 451.835 228.977 451.835C228.387 451.835 227.917 452.02 227.567 452.39C227.217 452.75 227.042 453.29 227.042 454.01V458H224.702V449.93H226.937V450.875C227.247 450.535 227.632 450.275 228.092 450.095C228.552 449.905 229.057 449.81 229.607 449.81ZM239.001 458.12C238.151 458.12 237.386 457.945 236.706 457.595C236.036 457.235 235.511 456.74 235.131 456.11C234.751 455.48 234.561 454.765 234.561 453.965C234.561 453.165 234.751 452.45 235.131 451.82C235.511 451.19 236.036 450.7 236.706 450.35C237.386 449.99 238.151 449.81 239.001 449.81C239.851 449.81 240.611 449.99 241.281 450.35C241.951 450.7 242.476 451.19 242.856 451.82C243.236 452.45 243.426 453.165 243.426 453.965C243.426 454.765 243.236 455.48 242.856 456.11C242.476 456.74 241.951 457.235 241.281 457.595C240.611 457.945 239.851 458.12 239.001 458.12ZM239.001 456.2C239.601 456.2 240.091 456 240.471 455.6C240.861 455.19 241.056 454.645 241.056 453.965C241.056 453.285 240.861 452.745 240.471 452.345C240.091 451.935 239.601 451.73 239.001 451.73C238.401 451.73 237.906 451.935 237.516 452.345C237.126 452.745 236.931 453.285 236.931 453.965C236.931 454.645 237.126 455.19 237.516 455.6C237.906 456 238.401 456.2 239.001 456.2ZM252.78 449.93L249.375 458H246.96L243.57 449.93H245.985L248.22 455.42L250.53 449.93H252.78ZM261.706 449.93V458H259.471V457.07C258.891 457.77 258.051 458.12 256.951 458.12C256.191 458.12 255.501 457.95 254.881 457.61C254.271 457.27 253.791 456.785 253.441 456.155C253.091 455.525 252.916 454.795 252.916 453.965C252.916 453.135 253.091 452.405 253.441 451.775C253.791 451.145 254.271 450.66 254.881 450.32C255.501 449.98 256.191 449.81 256.951 449.81C257.981 449.81 258.786 450.135 259.366 450.785V449.93H261.706ZM257.356 456.2C257.946 456.2 258.436 456 258.826 455.6C259.216 455.19 259.411 454.645 259.411 453.965C259.411 453.285 259.216 452.745 258.826 452.345C258.436 451.935 257.946 451.73 257.356 451.73C256.756 451.73 256.261 451.935 255.871 452.345C255.481 452.745 255.286 453.285 255.286 453.965C255.286 454.645 255.481 455.19 255.871 455.6C256.261 456 256.756 456.2 257.356 456.2ZM268.732 457.61C268.502 457.78 268.217 457.91 267.877 458C267.547 458.08 267.202 458.12 266.842 458.12C265.872 458.12 265.127 457.875 264.607 457.385C264.087 456.895 263.827 456.175 263.827 455.225V448.145H266.167V450.11H268.162V451.91H266.167V455.195C266.167 455.535 266.252 455.8 266.422 455.99C266.592 456.17 266.837 456.26 267.157 456.26C267.517 456.26 267.837 456.16 268.117 455.96L268.732 457.61ZM270.054 449.93H272.394V458H270.054V449.93ZM271.224 448.805C270.794 448.805 270.444 448.68 270.174 448.43C269.904 448.18 269.769 447.87 269.769 447.5C269.769 447.13 269.904 446.82 270.174 446.57C270.444 446.32 270.794 446.195 271.224 446.195C271.654 446.195 272.004 446.315 272.274 446.555C272.544 446.795 272.679 447.095 272.679 447.455C272.679 447.845 272.544 448.17 272.274 448.43C272.004 448.68 271.654 448.805 271.224 448.805ZM278.405 458.12C277.555 458.12 276.79 457.945 276.11 457.595C275.44 457.235 274.915 456.74 274.535 456.11C274.155 455.48 273.965 454.765 273.965 453.965C273.965 453.165 274.155 452.45 274.535 451.82C274.915 451.19 275.44 450.7 276.11 450.35C276.79 449.99 277.555 449.81 278.405 449.81C279.255 449.81 280.015 449.99 280.685 450.35C281.355 450.7 281.88 451.19 282.26 451.82C282.64 452.45 282.83 453.165 282.83 453.965C282.83 454.765 282.64 455.48 282.26 456.11C281.88 456.74 281.355 457.235 280.685 457.595C280.015 457.945 279.255 458.12 278.405 458.12ZM278.405 456.2C279.005 456.2 279.495 456 279.875 455.6C280.265 455.19 280.46 454.645 280.46 453.965C280.46 453.285 280.265 452.745 279.875 452.345C279.495 451.935 279.005 451.73 278.405 451.73C277.805 451.73 277.31 451.935 276.92 452.345C276.53 452.745 276.335 453.285 276.335 453.965C276.335 454.645 276.53 455.19 276.92 455.6C277.31 456 277.805 456.2 278.405 456.2ZM289.299 449.81C290.299 449.81 291.104 450.11 291.714 450.71C292.334 451.31 292.644 452.2 292.644 453.38V458H290.304V453.74C290.304 453.1 290.164 452.625 289.884 452.315C289.604 451.995 289.199 451.835 288.669 451.835C288.079 451.835 287.609 452.02 287.259 452.39C286.909 452.75 286.734 453.29 286.734 454.01V458H284.394V449.93H286.629V450.875C286.939 450.535 287.324 450.275 287.784 450.095C288.244 449.905 288.749 449.81 289.299 449.81Z" fill="#FCF8F5"/>
<circle cx="249.5" cy="249.5" r="77.5" fill="#FA9F42"/>
<path d="M205.167 272L202.062 267.515H201.878H198.635V272H194.909V255.9H201.878C203.304 255.9 204.538 256.138 205.581 256.613C206.639 257.088 207.452 257.763 208.019 258.637C208.586 259.511 208.87 260.546 208.87 261.742C208.87 262.938 208.579 263.973 207.996 264.847C207.429 265.706 206.616 266.365 205.558 266.825L209.169 272H205.167ZM205.098 261.742C205.098 260.837 204.807 260.147 204.224 259.672C203.641 259.181 202.79 258.936 201.671 258.936H198.635V264.548H201.671C202.79 264.548 203.641 264.303 204.224 263.812C204.807 263.321 205.098 262.631 205.098 261.742ZM217.802 269.309C218.446 269.309 219.013 269.217 219.504 269.033C220.01 268.834 220.478 268.527 220.907 268.113L222.816 270.183C221.651 271.517 219.949 272.184 217.71 272.184C216.315 272.184 215.08 271.916 214.007 271.379C212.934 270.827 212.106 270.068 211.523 269.102C210.94 268.136 210.649 267.04 210.649 265.813C210.649 264.602 210.933 263.513 211.5 262.547C212.083 261.566 212.872 260.807 213.869 260.27C214.881 259.718 216.016 259.442 217.273 259.442C218.454 259.442 219.527 259.695 220.493 260.201C221.459 260.692 222.226 261.412 222.793 262.363C223.376 263.298 223.667 264.41 223.667 265.698L214.513 267.469C214.774 268.082 215.18 268.542 215.732 268.849C216.299 269.156 216.989 269.309 217.802 269.309ZM217.273 262.156C216.368 262.156 215.632 262.447 215.065 263.03C214.498 263.613 214.199 264.418 214.168 265.445L220.194 264.272C220.025 263.628 219.68 263.114 219.159 262.731C218.638 262.348 218.009 262.156 217.273 262.156ZM230.242 272.184C229.215 272.184 228.21 272.061 227.229 271.816C226.248 271.555 225.466 271.233 224.883 270.85L226.079 268.274C226.631 268.627 227.298 268.918 228.08 269.148C228.862 269.363 229.629 269.47 230.38 269.47C231.898 269.47 232.657 269.094 232.657 268.343C232.657 267.99 232.45 267.737 232.036 267.584C231.622 267.431 230.986 267.3 230.127 267.193C229.115 267.04 228.279 266.863 227.62 266.664C226.961 266.465 226.386 266.112 225.895 265.606C225.42 265.1 225.182 264.379 225.182 263.444C225.182 262.662 225.404 261.972 225.849 261.374C226.309 260.761 226.968 260.285 227.827 259.948C228.701 259.611 229.728 259.442 230.909 259.442C231.783 259.442 232.649 259.542 233.508 259.741C234.382 259.925 235.103 260.186 235.67 260.523L234.474 263.076C233.385 262.463 232.197 262.156 230.909 262.156C230.142 262.156 229.567 262.263 229.184 262.478C228.801 262.693 228.609 262.969 228.609 263.306C228.609 263.689 228.816 263.958 229.23 264.111C229.644 264.264 230.303 264.41 231.208 264.548C232.22 264.717 233.048 264.901 233.692 265.1C234.336 265.284 234.896 265.629 235.371 266.135C235.846 266.641 236.084 267.346 236.084 268.251C236.084 269.018 235.854 269.7 235.394 270.298C234.934 270.896 234.259 271.364 233.37 271.701C232.496 272.023 231.453 272.184 230.242 272.184ZM244.531 269.309C245.175 269.309 245.742 269.217 246.233 269.033C246.739 268.834 247.206 268.527 247.636 268.113L249.545 270.183C248.379 271.517 246.677 272.184 244.439 272.184C243.043 272.184 241.809 271.916 240.736 271.379C239.662 270.827 238.834 270.068 238.252 269.102C237.669 268.136 237.378 267.04 237.378 265.813C237.378 264.602 237.661 263.513 238.229 262.547C238.811 261.566 239.601 260.807 240.598 260.27C241.61 259.718 242.744 259.442 244.002 259.442C245.182 259.442 246.256 259.695 247.222 260.201C248.188 260.692 248.954 261.412 249.522 262.363C250.104 263.298 250.396 264.41 250.396 265.698L241.242 267.469C241.502 268.082 241.909 268.542 242.461 268.849C243.028 269.156 243.718 269.309 244.531 269.309ZM244.002 262.156C243.097 262.156 242.361 262.447 241.794 263.03C241.226 263.613 240.927 264.418 240.897 265.445L246.923 264.272C246.754 263.628 246.409 263.114 245.888 262.731C245.366 262.348 244.738 262.156 244.002 262.156ZM265.365 259.626V272H261.938V270.574C261.049 271.647 259.761 272.184 258.074 272.184C256.909 272.184 255.851 271.923 254.9 271.402C253.965 270.881 253.229 270.137 252.692 269.171C252.156 268.205 251.887 267.086 251.887 265.813C251.887 264.54 252.156 263.421 252.692 262.455C253.229 261.489 253.965 260.745 254.9 260.224C255.851 259.703 256.909 259.442 258.074 259.442C259.654 259.442 260.888 259.94 261.777 260.937V259.626H265.365ZM258.695 269.24C259.6 269.24 260.351 268.933 260.949 268.32C261.547 267.691 261.846 266.856 261.846 265.813C261.846 264.77 261.547 263.942 260.949 263.329C260.351 262.7 259.6 262.386 258.695 262.386C257.775 262.386 257.016 262.7 256.418 263.329C255.82 263.942 255.521 264.77 255.521 265.813C255.521 266.856 255.82 267.691 256.418 268.32C257.016 268.933 257.775 269.24 258.695 269.24ZM272.114 261.259C272.544 260.661 273.119 260.209 273.839 259.902C274.575 259.595 275.419 259.442 276.369 259.442V262.754C275.971 262.723 275.702 262.708 275.564 262.708C274.537 262.708 273.732 262.999 273.149 263.582C272.567 264.149 272.275 265.008 272.275 266.158V272H268.687V259.626H272.114V261.259ZM284.37 272.184C283.052 272.184 281.863 271.916 280.805 271.379C279.763 270.827 278.942 270.068 278.344 269.102C277.762 268.136 277.47 267.04 277.47 265.813C277.47 264.586 277.762 263.49 278.344 262.524C278.942 261.558 279.763 260.807 280.805 260.27C281.863 259.718 283.052 259.442 284.37 259.442C285.674 259.442 286.808 259.718 287.774 260.27C288.756 260.807 289.469 261.581 289.913 262.593L287.13 264.088C286.486 262.953 285.559 262.386 284.347 262.386C283.412 262.386 282.638 262.693 282.024 263.306C281.411 263.919 281.104 264.755 281.104 265.813C281.104 266.871 281.411 267.707 282.024 268.32C282.638 268.933 283.412 269.24 284.347 269.24C285.574 269.24 286.502 268.673 287.13 267.538L289.913 269.056C289.469 270.037 288.756 270.804 287.774 271.356C286.808 271.908 285.674 272.184 284.37 272.184ZM299.41 259.442C300.944 259.442 302.178 259.902 303.113 260.822C304.064 261.742 304.539 263.107 304.539 264.916V272H300.951V265.468C300.951 264.487 300.737 263.758 300.307 263.283C299.878 262.792 299.257 262.547 298.444 262.547C297.54 262.547 296.819 262.831 296.282 263.398C295.746 263.95 295.477 264.778 295.477 265.882V272H291.889V254.934H295.477V260.914C295.953 260.439 296.528 260.078 297.202 259.833C297.877 259.572 298.613 259.442 299.41 259.442Z" fill="black"/>
<path d="M235.417 239.917V237.833C235.417 233.007 236.424 229.092 238.438 226.089C240.451 223.085 243.229 220.056 246.771 217C243.229 213.944 240.451 210.915 238.438 207.911C236.424 204.908 235.417 200.993 235.417 196.167V194.083H239.583V196.167C239.583 196.549 239.592 196.905 239.609 197.234C239.627 197.564 239.653 197.903 239.688 198.25H260.313C260.347 197.903 260.373 197.564 260.391 197.234C260.408 196.905 260.417 196.549 260.417 196.167V194.083H264.583V196.167C264.583 200.993 263.576 204.908 261.563 207.911C259.549 210.915 256.771 213.944 253.229 217C256.771 220.056 259.549 223.085 261.563 226.089C263.576 229.092 264.583 233.007 264.583 237.833V239.917H260.417V237.833C260.417 237.451 260.408 237.095 260.391 236.766C260.373 236.436 260.347 236.097 260.313 235.75H239.688C239.653 236.097 239.627 236.436 239.609 236.766C239.592 237.095 239.583 237.451 239.583 237.833V239.917H235.417ZM242.604 206.583H257.396C257.847 205.924 258.238 205.264 258.568 204.604C258.898 203.944 259.201 203.215 259.479 202.417H240.521C240.799 203.181 241.103 203.901 241.432 204.578C241.762 205.255 242.153 205.924 242.604 206.583ZM250 214.292C250.695 213.701 251.372 213.111 252.031 212.521C252.691 211.931 253.316 211.34 253.906 210.75H246.094C246.684 211.34 247.309 211.931 247.969 212.521C248.629 213.111 249.306 213.701 250 214.292ZM246.094 223.25H253.906C253.316 222.66 252.691 222.069 252.031 221.479C251.372 220.889 250.695 220.299 250 219.708C249.306 220.299 248.629 220.889 247.969 221.479C247.309 222.069 246.684 222.66 246.094 223.25ZM240.521 231.583H259.479C259.201 230.819 258.898 230.099 258.568 229.422C258.238 228.745 257.847 228.076 257.396 227.417H242.604C242.153 228.076 241.762 228.736 241.432 229.396C241.103 230.056 240.799 230.785 240.521 231.583Z" fill="black"/>
<defs>
<clipPath id="clip0_44_1504">
<rect width="35" height="35" fill="white" transform="translate(426 208)"/>
</clipPath>
</defs>
</svg>
