<svg xmlns="http://www.w3.org/2000/svg" viewBox="0 0 197.11 219.51"><defs><style>.cls-1{fill:#fff2c1;}.cls-2{fill:#f4d670;}.cls-3{fill:#e9af24;}.cls-4{fill:#0080bb;}.cls-5{fill:#45c4eb;}.cls-6{fill:#d80;}.cls-7{fill:#efc24e;}</style></defs><g id="Layer_1" data-name="Layer 1"><path class="cls-1" d="M98.55,214a20.65,20.65,0,0,1-10.32-2.77l-72.4-41.8A20.7,20.7,0,0,1,5.5,151.55V68A20.7,20.7,0,0,1,15.83,50.07l72.4-41.8a20.63,20.63,0,0,1,20.65,0l72.4,41.8A20.7,20.7,0,0,1,191.61,68v83.59a20.7,20.7,0,0,1-10.33,17.89l-72.4,41.8A20.66,20.66,0,0,1,98.55,214Z"/><path class="cls-2" d="M98.55,11a15.17,15.17,0,0,1,7.58,2l72.4,41.8A15.16,15.16,0,0,1,186.11,68v83.59a15.16,15.16,0,0,1-7.58,13.13l-72.4,41.8a15.15,15.15,0,0,1-15.15,0l-72.4-41.8A15.16,15.16,0,0,1,11,151.55V68a15.16,15.16,0,0,1,7.58-13.13L91,13a15.16,15.16,0,0,1,7.57-2m0-11A26.19,26.19,0,0,0,85.48,3.5L13.08,45.3A26.23,26.23,0,0,0,0,68v83.59a26.23,26.23,0,0,0,13.08,22.66L85.48,216a26.17,26.17,0,0,0,26.15,0l72.4-41.8a26.23,26.23,0,0,0,13.08-22.66V68A26.23,26.23,0,0,0,184,45.3L111.63,3.5A26.2,26.2,0,0,0,98.55,0Z"/><rect class="cls-3" x="131.37" y="132.85" width="5.27" height="38.94" rx="2.63" transform="translate(-44.01 55.02) rotate(-20)"/><rect class="cls-4" x="108.46" y="57.31" width="12.91" height="85.09" transform="translate(-27.22 45.32) rotate(-20)"/><rect class="cls-3" x="59.85" y="133.62" width="5.27" height="37.72" rx="2.63" transform="translate(69.05 317.14) rotate(-160)"/><rect class="cls-5" x="75.37" y="56.9" width="12.84" height="85.09" transform="matrix(-0.94, -0.34, 0.34, -0.94, 124.63, 220.87)"/><rect class="cls-6" x="94.94" y="34.79" width="7.22" height="19.57" rx="3.61"/><rect class="cls-7" x="93.4" y="61.09" width="10.53" height="83.27" rx="5.27" transform="translate(-4.06 201.39) rotate(-90)"/><circle class="cls-2" cx="98.55" cy="55.33" r="10.53"/></g></svg>