<svg width="119" height="126" viewBox="0 0 119 126" fill="none" xmlns="http://www.w3.org/2000/svg">
<path d="M59.5001 122.569C58.0423 122.569 56.6024 122.205 55.3351 121.516L7.73507 95.6362C5.16467 94.2411 3.57007 91.6358 3.57007 88.8455V37.0858C3.57007 34.2899 5.16467 31.6902 7.73507 30.295L55.3351 4.41516C56.6024 3.72601 58.0423 3.36182 59.5001 3.36182C60.9578 3.36182 62.3977 3.72601 63.6651 4.41516L111.265 30.295C113.835 31.6902 115.43 34.2955 115.43 37.0858V88.8455C115.43 91.6414 113.835 94.2411 111.265 95.6362L63.6651 121.516C62.3977 122.205 60.9578 122.569 59.5001 122.569Z" fill="#FFEFBE"/>
<path d="M59.5 6.7235C60.333 6.7235 61.1601 6.93081 61.88 7.32301L109.48 33.2029C110.95 33.9985 111.86 35.4889 111.86 37.0857V88.8454C111.86 90.4423 110.95 91.927 109.48 92.7283L61.88 118.608C61.1601 119 60.333 119.208 59.5 119.208C58.667 119.208 57.84 119 57.12 118.608L9.52 92.7283C8.05035 91.9326 7.14 90.4423 7.14 88.8454V37.0857C7.14 35.4889 8.05035 34.0041 9.52 33.2029L57.12 7.32861C57.84 6.93641 58.667 6.7291 59.5 6.7291M59.5 0.00560304C57.4473 0.00560304 55.3886 0.504262 53.55 1.50718L5.95 27.3815C2.26695 29.3817 0 33.0852 0 37.0857V88.8454C0 92.8515 2.26695 96.5494 5.95 98.5497L53.55 124.43C55.3886 125.432 57.4473 125.931 59.5 125.931C61.5528 125.931 63.6115 125.432 65.45 124.43L113.05 98.5497C116.733 96.5494 119 92.8459 119 88.8454V37.0857C119 33.0796 116.733 29.3817 113.05 27.3815L65.45 1.50158C63.6115 0.49866 61.5528 0 59.5 0V0.00560304Z" fill="#F1D370"/>
<path d="M90.8624 51.6589C90.8624 47.0702 89.7498 42.7279 87.7684 38.8563C82.705 28.9559 71.9474 22.126 59.494 22.126C42.1736 22.126 28.1316 35.3489 28.1316 51.6589C28.1316 61.324 33.0582 69.902 40.6801 75.2808C45.5651 78.7378 51.5508 80.8782 58.0541 81.1527C58.066 81.1527 58.0779 81.1527 58.0898 81.1527C58.548 81.1695 59.0061 81.1807 59.4702 81.1807C59.4821 81.1807 59.4881 81.1807 59.494 81.1807C61.7015 81.1807 63.8554 80.9678 65.9319 80.5588C66.7649 80.3963 67.5801 80.2002 68.3893 79.9761C72.0128 78.9676 75.3627 77.3595 78.3139 75.2752C82.7942 72.1096 86.3285 67.8346 88.4943 62.8928C90.0116 59.4246 90.8624 55.6314 90.8624 51.6533V51.6589Z" fill="#DA8500"/>
<path d="M81.3661 57.1721C81.4553 56.8528 81.61 56.5446 81.8004 56.2364C82.7227 54.7405 84.5374 53.3173 84.5374 51.6532C84.5374 51.4011 84.4958 51.1546 84.4244 50.9137C84.3887 50.7904 84.3411 50.6727 84.2935 50.5551C84.1923 50.3198 84.0614 50.0844 83.9127 49.8547C83.7639 49.625 83.5973 49.3953 83.4248 49.1712C83.2998 49.0087 83.1689 48.8462 83.038 48.6893C82.9369 48.5604 82.8298 48.4372 82.7286 48.3083C82.1396 47.5911 81.5862 46.8796 81.378 46.1344C81.0388 44.9466 81.4434 43.473 81.5624 42.1227C81.5624 42.1003 81.5624 42.0779 81.5624 42.0611C81.6041 41.5232 81.5981 41.0077 81.4732 40.5371C81.4137 40.3017 81.3185 40.072 81.1935 39.8647C81.1281 39.7583 81.0567 39.6574 80.9734 39.5622C80.8901 39.4669 80.8068 39.3773 80.7116 39.2932C79.3847 38.0942 76.7965 37.7972 75.5113 36.587C74.7378 35.8586 74.3153 34.6876 73.8215 33.595C73.3812 32.6145 72.8814 31.7013 72.0246 31.2306C71.9889 31.2082 71.9472 31.197 71.9115 31.1802C70.8227 30.6535 69.3709 30.9056 67.9548 31.0793C67.0444 31.1858 66.146 31.2586 65.3665 31.0625C65.2416 31.0289 65.1166 30.9897 64.9917 30.9449C64.9441 30.9281 64.8965 30.9056 64.8489 30.8832C64.7715 30.8496 64.6942 30.8216 64.6168 30.7824C64.5573 30.7544 64.4978 30.7207 64.4324 30.6871C64.3729 30.6535 64.3074 30.6199 64.2479 30.5863C64.1765 30.5471 64.1111 30.5022 64.0397 30.4574C63.9861 30.4238 63.9385 30.3958 63.885 30.3622C63.8017 30.3117 63.7243 30.2557 63.641 30.1997C63.6053 30.1773 63.5696 30.1493 63.5339 30.1268C63.1353 29.8523 62.7426 29.5553 62.338 29.2696C61.4395 28.6309 60.5173 28.0762 59.5117 28.0762C57.3757 28.0762 55.6204 30.5695 53.651 31.0625C51.6161 31.5724 48.772 30.2613 46.987 31.2306C45.1782 32.2167 44.9759 35.1975 43.5062 36.5814C42.0366 37.9653 38.8712 38.1558 37.824 39.8591C36.7946 41.54 38.1869 44.2126 37.6455 46.1344C37.1219 47.9889 34.4741 49.6418 34.4741 51.6532C34.4741 53.6647 37.1219 55.3176 37.6455 57.1721C38.1929 59.0883 36.7946 61.7665 37.824 63.4474C38.8712 65.1507 42.0366 65.3468 43.5062 66.7251C44.9759 68.109 45.1782 71.0898 46.987 72.0759C48.772 73.0452 51.6101 71.7341 53.651 72.244C55.6204 72.737 57.3757 75.2303 59.5117 75.2303C59.9818 75.2303 60.4399 75.1015 60.8802 74.9054C61.7489 74.5188 62.57 73.8576 63.3911 73.2805C63.4566 73.2357 63.522 73.1853 63.5875 73.1404C63.6529 73.0956 63.7124 73.0564 63.7779 73.0172C63.9028 72.9331 64.0278 72.8547 64.1527 72.7819C64.1884 72.7594 64.2241 72.737 64.2598 72.7146C64.4205 72.625 64.5752 72.5465 64.7358 72.4737C64.7775 72.4569 64.8191 72.4401 64.8548 72.4233C65.0214 72.3504 65.194 72.2888 65.3606 72.2496C65.4855 72.216 65.6164 72.1935 65.7533 72.1711C65.8842 72.1543 66.021 72.1375 66.1579 72.1319C66.5625 72.1095 66.979 72.1319 67.4133 72.1711C67.4431 72.1711 67.4728 72.1711 67.5026 72.1823C67.9072 72.2216 68.3237 72.2776 68.7283 72.328C68.7699 72.328 68.8056 72.3392 68.8473 72.3448C69.0377 72.3672 69.2281 72.3897 69.4185 72.4065C70.3764 72.4961 71.2927 72.4849 72.0246 72.0815C72.2507 71.9582 72.453 71.8013 72.6315 71.6277C73.9048 70.3782 74.2201 67.9409 75.5053 66.7307C76.0289 66.2376 76.7667 65.8959 77.5521 65.5821C78.1412 65.3468 78.754 65.1283 79.3193 64.8705C79.5811 64.7529 79.831 64.624 80.069 64.4839C80.307 64.3439 80.5152 64.1926 80.7056 64.0189C80.7116 64.0133 80.7175 64.0021 80.7294 63.9965C80.9079 63.834 81.0626 63.6491 81.1876 63.4474C81.1876 63.4474 81.1876 63.4418 81.1876 63.4362C81.9492 62.1867 81.372 60.3882 81.253 58.7634C81.2114 58.2031 81.2233 57.6652 81.3601 57.1721H81.3661Z" fill="#ECBF4E"/>
<path d="M71.4477 48.7118C71.287 48.4933 71.0371 48.3308 70.7099 48.286L67.3481 47.8265L67.2648 47.8153L64.2184 47.4007C63.8555 47.3503 63.5461 47.1374 63.3854 46.8292L60.4818 41.2935C60.0772 40.5203 58.9051 40.5203 58.5005 41.2935L55.5969 46.8292C55.4362 47.1374 55.1268 47.3503 54.7639 47.4007L48.2784 48.286C47.374 48.4092 47.011 49.4626 47.6655 50.0621L52.3601 54.3707C52.6219 54.6117 52.7409 54.9534 52.6754 55.2952L51.5687 61.38C51.414 62.2316 52.3601 62.8816 53.1752 62.4782L58.9765 59.6039C59.2978 59.447 59.6845 59.447 60.0058 59.6039L65.8071 62.4782C66.2236 62.6855 66.6758 62.6126 66.9971 62.3773C67.009 62.3661 67.0209 62.3549 67.0328 62.3493C67.0923 62.3045 67.1518 62.254 67.1994 62.1924C67.2232 62.1644 67.241 62.1308 67.2589 62.0972C67.2886 62.0523 67.3243 62.0075 67.3422 61.9571C67.366 61.9067 67.3779 61.845 67.3898 61.789C67.3957 61.7554 67.4136 61.7218 67.4195 61.6825C67.4314 61.5873 67.4314 61.4864 67.4136 61.38L67.3362 60.9654L66.7948 57.9902L66.3009 55.2952C66.2414 54.959 66.3604 54.6117 66.6163 54.3707L71.3108 50.0621C71.7333 49.6755 71.7273 49.104 71.4358 48.7118H71.4477Z" fill="#DA8500"/>
<path d="M78.3196 75.2864V103.811L59.4998 97.1321L40.6799 103.811V75.2864C45.9219 78.9955 52.4371 81.1918 59.4998 81.1918C66.5624 81.1918 73.0717 78.9955 78.3196 75.2864Z" fill="#ECBF4E"/>
<path d="M59.5 97.1321L78.3199 103.811V75.2864C73.0779 78.9955 66.5627 81.1918 59.5 81.1918V97.1378V97.1321Z" fill="#F1D370"/>
</svg>
