<svg xmlns="http://www.w3.org/2000/svg" viewBox="0 0 197.11 219.51"><defs><style>.cls-1{fill:#fff2c1;}.cls-2{fill:#f4d670;}.cls-3{fill:#d80;}.cls-4,.cls-5,.cls-9{fill:#e9af24;}.cls-4{stroke:#e9af24;}.cls-4,.cls-5{stroke-linecap:round;stroke-miterlimit:10;stroke-width:8px;}.cls-5{stroke:#efc24e;}.cls-6{fill:#e49c00;}.cls-7{fill:#45c4eb;}.cls-8{fill:#f9e88f;}.cls-10{fill:#0080bb;}.cls-11{fill:#efc24e;}</style></defs><g id="Layer_1" data-name="Layer 1"><path class="cls-1" d="M98.55,214a20.65,20.65,0,0,1-10.32-2.77l-72.4-41.8A20.7,20.7,0,0,1,5.5,151.55V68A20.7,20.7,0,0,1,15.83,50.07l72.4-41.8a20.63,20.63,0,0,1,20.65,0l72.4,41.8A20.7,20.7,0,0,1,191.61,68v83.59a20.7,20.7,0,0,1-10.33,17.89l-72.4,41.8A20.66,20.66,0,0,1,98.55,214Z"/><path class="cls-2" d="M98.55,11a15.17,15.17,0,0,1,7.58,2l72.4,41.8A15.16,15.16,0,0,1,186.11,68v83.59a15.16,15.16,0,0,1-7.58,13.13l-72.4,41.8a15.15,15.15,0,0,1-15.15,0l-72.4-41.8A15.16,15.16,0,0,1,11,151.55V68a15.16,15.16,0,0,1,7.58-13.13L91,13a15.16,15.16,0,0,1,7.57-2m0-11A26.19,26.19,0,0,0,85.48,3.5L13.08,45.3A26.23,26.23,0,0,0,0,68v83.59a26.23,26.23,0,0,0,13.08,22.66L85.48,216a26.17,26.17,0,0,0,26.15,0l72.4-41.8a26.23,26.23,0,0,0,13.08-22.66V68A26.23,26.23,0,0,0,184,45.3L111.63,3.5A26.2,26.2,0,0,0,98.55,0Z"/><path class="cls-3" d="M170.25,69.47v8.31H156.18q4.2-5.37,8.08-11.31h2.82A3.08,3.08,0,0,1,170.25,69.47Z"/><line class="cls-4" x1="98.38" y1="148.95" x2="71.32" y2="170.64"/><line class="cls-5" x1="98.73" y1="148.95" x2="125.79" y2="170.64"/><rect class="cls-6" x="86.71" y="145.64" width="23.34" height="7.75"/><path class="cls-7" d="M156.18,77.78q-4.74,6.07-9.83,11.43c-22,23.35-48.17,37.07-70.56,45.12a208.4,208.4,0,0,1-42.95,10.49v-67Z"/><path class="cls-8" d="M146.35,89.09v.12c-22,23.35-48.17,37.07-70.56,45.12h-25V89.09Z"/><path class="cls-9" d="M164.26,66.47q-3.88,6-8.08,11.31H26.86V69.47a3,3,0,0,1,3-3Z"/><path class="cls-10" d="M164.27,77.78v67.86H32.84v-8.28a131.27,131.27,0,0,0,17.91-3h95.6V89.21q5.09-5.37,9.83-11.43Z"/><path class="cls-11" d="M146.35,89.21v45.12H50.75C72.14,128.82,112.21,118.1,146.35,89.21Z"/></g></svg>