<svg width="615" height="966" viewBox="0 0 615 966" fill="none" xmlns="http://www.w3.org/2000/svg">
<path d="M0.773193 965.806V921.94C0.773193 820.319 21.9747 737.89 64.3777 674.651C106.781 611.412 165.268 547.624 239.838 483.289C165.268 418.953 106.781 355.166 64.3777 291.927C21.9747 228.688 0.773193 146.258 0.773193 44.6375V0.772331H88.5035V44.6375C88.5035 52.6794 88.6863 60.1731 89.0518 67.1184C89.4174 74.0637 89.9657 81.1918 90.6968 88.5026H524.962C525.693 81.1918 526.241 74.0637 526.607 67.1184C526.972 60.1731 527.155 52.6794 527.155 44.6375V0.772331H614.885V44.6375C614.885 146.258 593.684 228.688 551.281 291.927C508.878 355.166 450.391 418.953 375.82 483.289C450.391 547.624 508.878 611.412 551.281 674.651C593.684 737.89 614.885 820.319 614.885 921.94V965.806H527.155V921.94C527.155 913.898 526.972 906.405 526.607 899.46C526.241 892.514 525.693 885.386 524.962 878.075H90.6968C89.9657 885.386 89.4174 892.514 89.0518 899.46C88.6863 906.405 88.5035 913.898 88.5035 921.94V965.806H0.773193ZM152.108 263.963H463.551C473.055 250.073 481.279 236.182 488.225 222.291C495.17 208.401 501.567 193.048 507.416 176.233H108.243C114.092 192.317 120.489 207.487 127.434 221.743C134.379 235.999 142.604 250.073 152.108 263.963ZM307.829 426.264C322.451 413.836 336.707 401.407 350.598 388.979C364.488 376.55 377.648 364.122 390.076 351.694H225.582C238.011 364.122 251.17 376.55 265.061 388.979C278.951 401.407 293.208 413.836 307.829 426.264ZM225.582 614.884H390.076C377.648 602.456 364.488 590.027 350.598 577.599C336.707 565.171 322.451 552.742 307.829 540.314C293.208 552.742 278.951 565.171 265.061 577.599C251.17 590.027 238.011 602.456 225.582 614.884ZM108.243 790.345H507.416C501.567 774.261 495.17 759.091 488.225 744.835C481.279 730.579 473.055 716.505 463.551 702.615H152.108C142.604 716.505 134.379 730.396 127.434 744.287C120.489 758.177 114.092 773.53 108.243 790.345Z" fill="#92918C"/>
</svg>
