<svg width="89" height="60" viewBox="0 0 89 60" fill="none" xmlns="http://www.w3.org/2000/svg">
<g clip-path="url(#clip0_36_1365)">
<path fill-rule="evenodd" clip-rule="evenodd" d="M4.86791 48.2602L13.5126 38.4865L46.4718 60H0" fill="#024A44"/>
<path d="M21.0959 3.23711H20.3784V8.91889H21.0959V3.23711Z" fill="#2D8438"/>
<path d="M69.8697 29.5452H17.3616V43.2836H69.8697V29.5452Z" fill="#FBCB9A"/>
<path d="M71.2622 27.0831H59.4138V47.3456H71.2622V27.0831Z" fill="#FA9F42"/>
<path d="M27.4388 7.56573H18.9436V13.5042H27.4388V7.56573Z" fill="#FA9F42"/>
<path d="M29.6908 12.9858H16.6914V44.0362H29.6908V12.9858Z" fill="#FA9F42"/>
<path fill-rule="evenodd" clip-rule="evenodd" d="M33.2383 26.9909L36.9328 20.893H52.1519L55.8514 26.9984" fill="#2D8438"/>
<path d="M43.0339 22.286H37.3015V27.4569H43.0339V22.286Z" fill="#FA9F42"/>
<path d="M55.854 26.9286H33.2334V44.0287H55.854V26.9286Z" fill="#FA9F42"/>
<path d="M51.9128 22.286H46.1804V27.4569H51.9128V22.286Z" fill="#FA9F42"/>
<path fill-rule="evenodd" clip-rule="evenodd" d="M71.225 27.1554H59.3567L65.2909 22.5925L71.225 27.1554Z" fill="#2D8438"/>
<path d="M39.5485 28.5235H38.136V31.7083H39.5485V28.5235Z" fill="#FCF8F5"/>
<path d="M42.4435 28.5235H41.031V31.7083H42.4435V28.5235Z" fill="#FCF8F5"/>
<path d="M48.2355 28.5235H46.823V31.7083H48.2355V28.5235Z" fill="#FCF8F5"/>
<path d="M51.1306 28.5235H49.718V31.7083H51.1306V28.5235Z" fill="#FCF8F5"/>
<path d="M45.3408 28.5235H43.9282V31.7083H45.3408V28.5235Z" fill="#FCF8F5"/>
<path d="M39.5485 32.9518H38.136V36.1366H39.5485V32.9518Z" fill="#FCF8F5"/>
<path d="M42.4435 32.9518H41.031V36.1366H42.4435V32.9518Z" fill="#FCF8F5"/>
<path d="M48.2355 32.9518H46.823V36.1366H48.2355V32.9518Z" fill="#FCF8F5"/>
<path d="M51.1306 32.9518H49.718V36.1366H51.1306V32.9518Z" fill="#FCF8F5"/>
<path d="M45.3408 32.9518H43.9282V36.1366H45.3408V32.9518Z" fill="#FCF8F5"/>
<path d="M22.4362 10.4639H21.0237V12.9061H22.4362V10.4639Z" fill="#FCF8F5"/>
<path d="M21.7338 11.4956C22.1232 11.4956 22.4389 11.0493 22.4389 10.4988C22.4389 9.9483 22.1232 9.50202 21.7338 9.50202C21.3445 9.50202 21.0288 9.9483 21.0288 10.4988C21.0288 11.0493 21.3445 11.4956 21.7338 11.4956Z" fill="#FCF8F5"/>
<path d="M25.2961 10.4639H23.8835V12.9061H25.2961V10.4639Z" fill="#FCF8F5"/>
<path d="M24.5937 11.4956C24.9831 11.4956 25.2987 11.0493 25.2987 10.4988C25.2987 9.9483 24.9831 9.50202 24.5937 9.50202C24.2043 9.50202 23.8887 9.9483 23.8887 10.4988C23.8887 11.0493 24.2043 11.4956 24.5937 11.4956Z" fill="#FCF8F5"/>
<path d="M62.2216 29.1166H60.8091V31.2074H62.2216V29.1166Z" fill="#FCF8F5"/>
<path d="M61.5192 29.9988C61.9086 29.9988 62.2243 29.6161 62.2243 29.144C62.2243 28.6719 61.9086 28.2892 61.5192 28.2892C61.1299 28.2892 60.8142 28.6719 60.8142 29.144C60.8142 29.6161 61.1299 29.9988 61.5192 29.9988Z" fill="#FCF8F5"/>
<path d="M62.2216 29.0717H60.8091V31.1625H62.2216V29.0717Z" fill="#FCF8F5"/>
<path d="M61.519 31.9874C61.9084 31.9874 62.224 31.6047 62.224 31.1326C62.224 30.6605 61.9084 30.2779 61.519 30.2779C61.1296 30.2779 60.814 30.6605 60.814 31.1326C60.814 31.6047 61.1296 31.9874 61.519 31.9874Z" fill="#FCF8F5"/>
<path d="M65.9086 29.1166H64.4961V31.2074H65.9086V29.1166Z" fill="#FCF8F5"/>
<path d="M65.2036 29.9988C65.5929 29.9988 65.9086 29.6161 65.9086 29.144C65.9086 28.6719 65.5929 28.2892 65.2036 28.2892C64.8142 28.2892 64.4985 28.6719 64.4985 29.144C64.4985 29.6161 64.8142 29.9988 65.2036 29.9988Z" fill="#FCF8F5"/>
<path d="M65.9086 29.0717H64.4961V31.1625H65.9086V29.0717Z" fill="#FCF8F5"/>
<path d="M65.2036 31.9874C65.5929 31.9874 65.9086 31.6047 65.9086 31.1326C65.9086 30.6605 65.5929 30.2779 65.2036 30.2779C64.8142 30.2779 64.4985 30.6605 64.4985 31.1326C64.4985 31.6047 64.8142 31.9874 65.2036 31.9874Z" fill="#FCF8F5"/>
<path d="M69.6057 29.1166H68.1931V31.2074H69.6057V29.1166Z" fill="#FCF8F5"/>
<path d="M68.9006 29.9988C69.29 29.9988 69.6056 29.6161 69.6056 29.144C69.6056 28.6719 69.29 28.2892 68.9006 28.2892C68.5112 28.2892 68.1956 28.6719 68.1956 29.144C68.1956 29.6161 68.5112 29.9988 68.9006 29.9988Z" fill="#FCF8F5"/>
<path d="M69.6057 29.0717H68.1931V31.1625H69.6057V29.0717Z" fill="#FCF8F5"/>
<path d="M68.9006 31.9874C69.29 31.9874 69.6056 31.6047 69.6056 31.1326C69.6056 30.6605 69.29 30.2779 68.9006 30.2779C68.5112 30.2779 68.1956 30.6605 68.1956 31.1326C68.1956 31.6047 68.5112 31.9874 68.9006 31.9874Z" fill="#FCF8F5"/>
<path fill-rule="evenodd" clip-rule="evenodd" d="M24.0654 2.13565L20.3684 4.2713V0L24.0654 2.13565Z" fill="#2D8438"/>
<path d="M39.5163 24.479H38.1038V26.9211H39.5163V24.479Z" fill="#FCF8F5"/>
<path d="M38.8112 25.5107C39.2006 25.5107 39.5162 25.0644 39.5162 24.5139C39.5162 23.9633 39.2006 23.5171 38.8112 23.5171C38.4218 23.5171 38.1062 23.9633 38.1062 24.5139C38.1062 25.0644 38.4218 25.5107 38.8112 25.5107Z" fill="#FCF8F5"/>
<path d="M42.3937 24.479H40.9812V26.9211H42.3937V24.479Z" fill="#FCF8F5"/>
<path d="M41.6887 25.5107C42.078 25.5107 42.3937 25.0644 42.3937 24.5139C42.3937 23.9633 42.078 23.5171 41.6887 23.5171C41.2993 23.5171 40.9836 23.9633 40.9836 24.5139C40.9836 25.0644 41.2993 25.5107 41.6887 25.5107Z" fill="#FCF8F5"/>
<path d="M48.2009 24.479H46.7883V26.9211H48.2009V24.479Z" fill="#FCF8F5"/>
<path d="M47.4985 25.5107C47.8879 25.5107 48.2035 25.0644 48.2035 24.5139C48.2035 23.9633 47.8879 23.517 47.4985 23.517C47.1091 23.517 46.7935 23.9633 46.7935 24.5139C46.7935 25.0644 47.1091 25.5107 47.4985 25.5107Z" fill="#FCF8F5"/>
<path d="M51.133 24.479H49.7205V26.9211H51.133V24.479Z" fill="#FCF8F5"/>
<path d="M50.4279 25.5107C50.8173 25.5107 51.133 25.0644 51.133 24.5139C51.133 23.9633 50.8173 23.5171 50.4279 23.5171C50.0386 23.5171 49.7229 23.9633 49.7229 24.5139C49.7229 25.0644 50.0386 25.5107 50.4279 25.5107Z" fill="#FCF8F5"/>
<path d="M29.9273 12.8612H16.502V13.8381H29.9273V12.8612Z" fill="#2D8438"/>
<path fill-rule="evenodd" clip-rule="evenodd" d="M13.373 38.5339H73.7884L83.3822 48.158H27.8871L14.2001 39.2391" fill="#2D8438"/>
<path d="M52.1269 40.6571H4.89526V48.1381H52.1269V40.6571Z" fill="#FA9F42"/>
<path d="M42.9543 56.1374C44.8929 56.1374 46.4644 53.0435 46.4644 49.2271C46.4644 45.4106 44.8929 42.3167 42.9543 42.3167C41.0156 42.3167 39.4441 45.4106 39.4441 49.2271C39.4441 53.0435 41.0156 56.1374 42.9543 56.1374Z" fill="#2D8438"/>
<path fill-rule="evenodd" clip-rule="evenodd" d="M26.791 48.1455L41.9926 59.995H89.0026L83.3051 48.0782" fill="#27645F"/>
<path d="M13.5351 56.1374C15.4737 56.1374 17.0453 53.0435 17.0453 49.2271C17.0453 45.4106 15.4737 42.3167 13.5351 42.3167C11.5965 42.3167 10.0249 45.4106 10.0249 49.2271C10.0249 53.0435 11.5965 56.1374 13.5351 56.1374Z" fill="#024A44"/>
<path d="M24.905 33.7991H20.1716V38.5339H24.905V33.7991Z" fill="#FBCB9A"/>
<path d="M22.541 36.7346C23.8604 36.7346 24.9301 35.3991 24.9301 33.7517C24.9301 32.1043 23.8604 30.7688 22.541 30.7688C21.2215 30.7688 20.1519 32.1043 20.1519 33.7517C20.1519 35.3991 21.2215 36.7346 22.541 36.7346Z" fill="#FBCB9A"/>
<path fill-rule="evenodd" clip-rule="evenodd" d="M43.0363 22.296H37.3289L40.1838 21.2668L43.0388 22.296H43.0363Z" fill="#FA9F42"/>
<path fill-rule="evenodd" clip-rule="evenodd" d="M51.843 22.296H46.1355L48.9905 21.2668L51.8454 22.296H51.843Z" fill="#FA9F42"/>
</g>
<defs>
<clipPath id="clip0_36_1365">
<rect width="89" height="60" fill="white"/>
</clipPath>
</defs>
</svg>
