<svg width="43" height="29" viewBox="0 0 43 29" fill="none" xmlns="http://www.w3.org/2000/svg">
<g clip-path="url(#clip0_60_6183)">
<path fill-rule="evenodd" clip-rule="evenodd" d="M2.35191 23.3257L6.52854 18.6018L22.4527 29H0" fill="#024A44"/>
<path d="M10.1924 1.56461H9.8457V4.3108H10.1924V1.56461Z" fill="#3BAE49"/>
<path d="M33.7573 14.2802H8.38818V20.9204H33.7573V14.2802Z" fill="#FBCB9A"/>
<path d="M34.4301 13.0902H28.7056V22.8837H34.4301V13.0902Z" fill="#FA9F42"/>
<path d="M13.2568 3.65677H9.15234V6.52702H13.2568V3.65677Z" fill="#FA9F42"/>
<path d="M14.345 6.27649H8.06445V21.2842H14.345V6.27649Z" fill="#FA9F42"/>
<path fill-rule="evenodd" clip-rule="evenodd" d="M16.0591 13.0456L17.8441 10.0983H25.1971L26.9845 13.0492" fill="#3BAE49"/>
<path d="M20.7915 10.7716H18.022V13.2708H20.7915V10.7716Z" fill="#FA9F42"/>
<path d="M26.9857 13.0155H16.0566V21.2806H26.9857V13.0155Z" fill="#FA9F42"/>
<path d="M25.0816 10.7716H22.312V13.2708H25.0816V10.7716Z" fill="#FA9F42"/>
<path fill-rule="evenodd" clip-rule="evenodd" d="M34.4119 13.1251H28.6777L31.5448 10.9197L34.4119 13.1251Z" fill="#3BAE49"/>
<path d="M19.1078 13.7864H18.4253V15.3257H19.1078V13.7864Z" fill="#FCF8F5"/>
<path d="M20.5062 13.7864H19.8237V15.3257H20.5062V13.7864Z" fill="#FCF8F5"/>
<path d="M23.305 13.7864H22.6226V15.3257H23.305V13.7864Z" fill="#FCF8F5"/>
<path d="M24.7035 13.7864H24.021V15.3257H24.7035V13.7864Z" fill="#FCF8F5"/>
<path d="M21.9061 13.7864H21.2236V15.3257H21.9061V13.7864Z" fill="#FCF8F5"/>
<path d="M19.1078 15.9267H18.4253V17.466H19.1078V15.9267Z" fill="#FCF8F5"/>
<path d="M20.5062 15.9267H19.8237V17.466H20.5062V15.9267Z" fill="#FCF8F5"/>
<path d="M23.305 15.9267H22.6226V17.466H23.305V15.9267Z" fill="#FCF8F5"/>
<path d="M24.7035 15.9267H24.021V17.466H24.7035V15.9267Z" fill="#FCF8F5"/>
<path d="M21.9061 15.9267H21.2236V17.466H21.9061V15.9267Z" fill="#FCF8F5"/>
<path d="M10.8402 5.05757H10.1577V6.23795H10.8402V5.05757Z" fill="#FCF8F5"/>
<path d="M10.5013 5.55622C10.6894 5.55622 10.8419 5.34051 10.8419 5.07443C10.8419 4.80834 10.6894 4.59264 10.5013 4.59264C10.3131 4.59264 10.1606 4.80834 10.1606 5.07443C10.1606 5.34051 10.3131 5.55622 10.5013 5.55622Z" fill="#FCF8F5"/>
<path d="M12.2215 5.05757H11.5391V6.23795H12.2215V5.05757Z" fill="#FCF8F5"/>
<path d="M11.8821 5.55622C12.0703 5.55622 12.2228 5.34051 12.2228 5.07443C12.2228 4.80834 12.0703 4.59264 11.8821 4.59264C11.694 4.59264 11.5415 4.80834 11.5415 5.07443C11.5415 5.34051 11.694 5.55622 11.8821 5.55622Z" fill="#FCF8F5"/>
<path d="M30.0619 14.073H29.3794V15.0836H30.0619V14.073Z" fill="#FCF8F5"/>
<path d="M29.7225 14.4994C29.9106 14.4994 30.0631 14.3144 30.0631 14.0863C30.0631 13.8581 29.9106 13.6731 29.7225 13.6731C29.5343 13.6731 29.3818 13.8581 29.3818 14.0863C29.3818 14.3144 29.5343 14.4994 29.7225 14.4994Z" fill="#FCF8F5"/>
<path d="M30.0619 14.0513H29.3794V15.0619H30.0619V14.0513Z" fill="#FCF8F5"/>
<path d="M29.7225 15.4606C29.9106 15.4606 30.0631 15.2756 30.0631 15.0474C30.0631 14.8193 29.9106 14.6343 29.7225 14.6343C29.5343 14.6343 29.3818 14.8193 29.3818 15.0474C29.3818 15.2756 29.5343 15.4606 29.7225 15.4606Z" fill="#FCF8F5"/>
<path d="M31.8436 14.073H31.1611V15.0836H31.8436V14.073Z" fill="#FCF8F5"/>
<path d="M31.5032 14.4994C31.6914 14.4994 31.8439 14.3144 31.8439 14.0863C31.8439 13.8581 31.6914 13.6731 31.5032 13.6731C31.3151 13.6731 31.1626 13.8581 31.1626 14.0863C31.1626 14.3144 31.3151 14.4994 31.5032 14.4994Z" fill="#FCF8F5"/>
<path d="M31.8436 14.0513H31.1611V15.0619H31.8436V14.0513Z" fill="#FCF8F5"/>
<path d="M31.5027 15.4606C31.6909 15.4606 31.8434 15.2756 31.8434 15.0474C31.8434 14.8193 31.6909 14.6343 31.5027 14.6343C31.3146 14.6343 31.1621 14.8193 31.1621 15.0474C31.1621 15.2756 31.3146 15.4606 31.5027 15.4606Z" fill="#FCF8F5"/>
<path d="M33.6297 14.073H32.9473V15.0836H33.6297V14.073Z" fill="#FCF8F5"/>
<path d="M33.2894 14.4994C33.4775 14.4994 33.63 14.3144 33.63 14.0863C33.63 13.8581 33.4775 13.6731 33.2894 13.6731C33.1012 13.6731 32.9487 13.8581 32.9487 14.0863C32.9487 14.3144 33.1012 14.4994 33.2894 14.4994Z" fill="#FCF8F5"/>
<path d="M33.6297 14.0513H32.9473V15.0619H33.6297V14.0513Z" fill="#FCF8F5"/>
<path d="M33.2889 15.4606C33.477 15.4606 33.6295 15.2756 33.6295 15.0474C33.6295 14.8193 33.477 14.6343 33.2889 14.6343C33.1007 14.6343 32.9482 14.8193 32.9482 15.0474C32.9482 15.2756 33.1007 15.4606 33.2889 15.4606Z" fill="#FCF8F5"/>
<path fill-rule="evenodd" clip-rule="evenodd" d="M11.627 1.03223L9.84082 2.06446V0L11.627 1.03223Z" fill="#3BAE49"/>
<path d="M19.0921 11.8315H18.4097V13.0119H19.0921V11.8315Z" fill="#FCF8F5"/>
<path d="M18.7518 12.3301C18.9399 12.3301 19.0924 12.1144 19.0924 11.8484C19.0924 11.5823 18.9399 11.3666 18.7518 11.3666C18.5636 11.3666 18.4111 11.5823 18.4111 11.8484C18.4111 12.1144 18.5636 12.3301 18.7518 12.3301Z" fill="#FCF8F5"/>
<path d="M20.4823 11.8315H19.7998V13.0119H20.4823V11.8315Z" fill="#FCF8F5"/>
<path d="M20.1419 12.3301C20.33 12.3301 20.4825 12.1144 20.4825 11.8484C20.4825 11.5823 20.33 11.3666 20.1419 11.3666C19.9538 11.3666 19.8013 11.5823 19.8013 11.8484C19.8013 12.1144 19.9538 12.3301 20.1419 12.3301Z" fill="#FCF8F5"/>
<path d="M23.2879 11.8315H22.6055V13.0119H23.2879V11.8315Z" fill="#FCF8F5"/>
<path d="M22.949 12.3301C23.1372 12.3301 23.2897 12.1144 23.2897 11.8484C23.2897 11.5823 23.1372 11.3666 22.949 11.3666C22.7609 11.3666 22.6084 11.5823 22.6084 11.8484C22.6084 12.1144 22.7609 12.3301 22.949 12.3301Z" fill="#FCF8F5"/>
<path d="M24.7049 11.8315H24.0225V13.0119H24.7049V11.8315Z" fill="#FCF8F5"/>
<path d="M24.3646 12.3301C24.5527 12.3301 24.7052 12.1144 24.7052 11.8484C24.7052 11.5823 24.5527 11.3666 24.3646 11.3666C24.1764 11.3666 24.0239 11.5823 24.0239 11.8484C24.0239 12.1144 24.1764 12.3301 24.3646 12.3301Z" fill="#FCF8F5"/>
<path d="M14.4596 6.21626H7.97314V6.68842H14.4596V6.21626Z" fill="#3BAE49"/>
<path fill-rule="evenodd" clip-rule="evenodd" d="M6.46094 18.6247H35.6504L40.2856 23.2764H13.4733L6.86055 18.9656" fill="#3BAE49"/>
<path d="M25.185 19.6509H2.36523V23.2667H25.185V19.6509Z" fill="#FA9F42"/>
<path d="M20.7531 27.1331C21.6897 27.1331 22.449 25.6377 22.449 23.7931C22.449 21.9485 21.6897 20.4531 20.7531 20.4531C19.8164 20.4531 19.0571 21.9485 19.0571 23.7931C19.0571 25.6377 19.8164 27.1331 20.7531 27.1331Z" fill="#3BAE49"/>
<path fill-rule="evenodd" clip-rule="evenodd" d="M12.9438 23.2703L20.2885 28.9976H43.0011L40.2484 23.2378" fill="#27645F"/>
<path d="M6.53919 27.1331C7.47582 27.1331 8.23512 25.6377 8.23512 23.7931C8.23512 21.9485 7.47582 20.4531 6.53919 20.4531C5.60255 20.4531 4.84326 21.9485 4.84326 23.7931C4.84326 25.6377 5.60255 27.1331 6.53919 27.1331Z" fill="#024A44"/>
<path d="M12.033 16.3362H9.74609V18.6247H12.033V16.3362Z" fill="#FBCB9A"/>
<path d="M10.8906 17.7551C11.5281 17.7551 12.0449 17.1096 12.0449 16.3133C12.0449 15.5171 11.5281 14.8716 10.8906 14.8716C10.2531 14.8716 9.73633 15.5171 9.73633 16.3133C9.73633 17.1096 10.2531 17.7551 10.8906 17.7551Z" fill="#FBCB9A"/>
<path fill-rule="evenodd" clip-rule="evenodd" d="M20.7927 10.7764H18.0352L19.4145 10.2789L20.7939 10.7764H20.7927Z" fill="#FA9F42"/>
<path fill-rule="evenodd" clip-rule="evenodd" d="M25.0476 10.7764H22.29L23.6694 10.2789L25.0488 10.7764H25.0476Z" fill="#FA9F42"/>
</g>
<defs>
<clipPath id="clip0_60_6183">
<rect width="43" height="29" fill="white"/>
</clipPath>
</defs>
</svg>
