<svg width="300" height="1000" viewBox="0 0 300 1000" fill="none" xmlns="http://www.w3.org/2000/svg">
    <rect width="300" height="1000" fill="black"/>
    <g id="Frame 8">
        <rect width="300" height="1000" fill="white"/>
        <path id="30" d="M87 185.066C87 185.465 86.5549 185.703 86.2226 185.482L79.7773 181.185C79.6094 181.073 79.3906 181.073 79.2226 181.185L72.7773 185.482C72.4451 185.703 72 185.465 72 185.066V136.268C72 136.1 72.0836 135.944 72.2226 135.852L79.2227 131.185C79.3906 131.073 79.6094 131.073 79.7774 131.185L86.7774 135.852C86.9165 135.944 87 136.1 87 136.268V185.066Z" fill="#FA9F42"/>
        <path id="29" d="M87 237.066C87 237.465 86.5549 237.703 86.2226 237.482L79.7773 233.185C79.6094 233.073 79.3906 233.073 79.2226 233.185L72.7773 237.482C72.4451 237.703 72 237.465 72 237.066V188.268C72 188.1 72.0836 187.944 72.2226 187.852L79.2227 183.185C79.3906 183.073 79.6094 183.073 79.7774 183.185L86.7774 187.852C86.9165 187.944 87 188.1 87 188.268V237.066Z" fill="#FA9F42"/>
        <path id="28" d="M87 289.066C87 289.465 86.5549 289.703 86.2226 289.482L79.7773 285.185C79.6094 285.073 79.3906 285.073 79.2226 285.185L72.7773 289.482C72.4451 289.703 72 289.465 72 289.066V240.268C72 240.1 72.0836 239.944 72.2226 239.852L79.2227 235.185C79.3906 235.073 79.6094 235.073 79.7774 235.185L86.7774 239.852C86.9165 239.944 87 240.1 87 240.268V289.066Z" fill="#FA9F42"/>
        <path id="27" d="M87 341.066C87 341.465 86.5549 341.703 86.2226 341.482L79.7773 337.185C79.6094 337.073 79.3906 337.073 79.2226 337.185L72.7773 341.482C72.4451 341.703 72 341.465 72 341.066V292.268C72 292.1 72.0836 291.944 72.2226 291.852L79.2227 287.185C79.3906 287.073 79.6094 287.073 79.7774 287.185L86.7774 291.852C86.9165 291.944 87 292.1 87 292.268V341.066Z" fill="#FA9F42"/>
        <path id="26" d="M87 393.066C87 393.465 86.5549 393.703 86.2226 393.482L79.7773 389.185C79.6094 389.073 79.3906 389.073 79.2226 389.185L72.7773 393.482C72.4451 393.703 72 393.465 72 393.066V344.268C72 344.1 72.0836 343.944 72.2226 343.852L79.2227 339.185C79.3906 339.073 79.6094 339.073 79.7774 339.185L86.7774 343.852C86.9165 343.944 87 344.1 87 344.268V393.066Z" fill="#FA9F42"/>
        <path id="25" d="M87 445.066C87 445.465 86.5549 445.703 86.2226 445.482L79.7773 441.185C79.6094 441.073 79.3906 441.073 79.2226 441.185L72.7773 445.482C72.4451 445.703 72 445.465 72 445.066V396.268C72 396.1 72.0836 395.944 72.2226 395.852L79.2227 391.185C79.3906 391.073 79.6094 391.073 79.7774 391.185L86.7774 395.852C86.9165 395.944 87 396.1 87 396.268V445.066Z" fill="#FA9F42"/>
        <path id="24" d="M87 497.066C87 497.465 86.5549 497.703 86.2226 497.482L79.7773 493.185C79.6094 493.073 79.3906 493.073 79.2226 493.185L72.7773 497.482C72.4451 497.703 72 497.465 72 497.066V448.268C72 448.1 72.0836 447.944 72.2226 447.852L79.2227 443.185C79.3906 443.073 79.6094 443.073 79.7774 443.185L86.7774 447.852C86.9165 447.944 87 448.1 87 448.268V497.066Z" fill="#FA9F42"/>
        <path id="23" d="M87 549.066C87 549.465 86.5549 549.703 86.2226 549.482L79.7773 545.185C79.6094 545.073 79.3906 545.073 79.2226 545.185L72.7773 549.482C72.4451 549.703 72 549.465 72 549.066V500.268C72 500.1 72.0836 499.944 72.2226 499.852L79.2227 495.185C79.3906 495.073 79.6094 495.073 79.7774 495.185L86.7774 499.852C86.9165 499.944 87 500.1 87 500.268V549.066Z" fill="#FA9F42"/>
        <path id="22" d="M87 601.066C87 601.465 86.5549 601.703 86.2226 601.482L79.7773 597.185C79.6094 597.073 79.3906 597.073 79.2226 597.185L72.7773 601.482C72.4451 601.703 72 601.465 72 601.066V552.268C72 552.1 72.0836 551.944 72.2226 551.852L79.2227 547.185C79.3906 547.073 79.6094 547.073 79.7774 547.185L86.7774 551.852C86.9165 551.944 87 552.1 87 552.268V601.066Z" fill="#FA9F42"/>
        <path id="21" d="M87 653.066C87 653.465 86.5549 653.703 86.2226 653.482L79.7773 649.185C79.6094 649.073 79.3906 649.073 79.2226 649.185L72.7773 653.482C72.4451 653.703 72 653.465 72 653.066V604.268C72 604.1 72.0836 603.944 72.2226 603.852L79.2227 599.185C79.3906 599.073 79.6094 599.073 79.7774 599.185L86.7774 603.852C86.9165 603.944 87 604.1 87 604.268V653.066Z" fill="#FA9F42"/>
        <path id="20" d="M87 705.066C87 705.465 86.5549 705.703 86.2226 705.482L79.7773 701.185C79.6094 701.073 79.3906 701.073 79.2226 701.185L72.7773 705.482C72.4451 705.703 72 705.465 72 705.066V656.268C72 656.1 72.0836 655.944 72.2226 655.852L79.2227 651.185C79.3906 651.073 79.6094 651.073 79.7774 651.185L86.7774 655.852C86.9165 655.944 87 656.1 87 656.268V705.066Z" fill="#FA9F42"/>
        <g id="20 - active">
        <path id="03 - active" d="M87 705.066C87 705.465 86.5549 705.703 86.2226 705.482L79.7773 701.185C79.6094 701.073 79.3906 701.073 79.2226 701.185L72.7773 705.482C72.4451 705.703 72 705.465 72 705.066V656.268C72 656.1 72.0836 655.944 72.2226 655.852L79.2227 651.185C79.3906 651.073 79.6094 651.073 79.7774 651.185L86.7774 655.852C86.9165 655.944 87 656.1 87 656.268V705.066Z" fill="#D33F49"/>
        <path id="line -active" d="M89 677H106V680H89V677Z" fill="#D33F49"/>
        <circle id="inner_cirlce - active" cx="79.5" cy="678.5" r="6" fill="#FCF8F5" stroke="#7E252B"/>
        <circle id="outer_circle -active" cx="79.5" cy="678.5" r="8.5" stroke="#BD3841" stroke-width="4"/>
        <circle id="right_circle - active" cx="122.5" cy="678.5" r="16" stroke="#D33F49" stroke-width="3"/>
        <path id="20_2" d="M121.992 681.888V684H113.528V682.32L117.848 678.24C118.307 677.803 118.616 677.429 118.776 677.12C118.936 676.8 119.016 676.485 119.016 676.176C119.016 675.728 118.861 675.387 118.552 675.152C118.253 674.907 117.811 674.784 117.224 674.784C116.733 674.784 116.291 674.88 115.896 675.072C115.501 675.253 115.171 675.531 114.904 675.904L113.016 674.688C113.453 674.037 114.056 673.531 114.824 673.168C115.592 672.795 116.472 672.608 117.464 672.608C118.296 672.608 119.021 672.747 119.64 673.024C120.269 673.291 120.755 673.675 121.096 674.176C121.448 674.667 121.624 675.248 121.624 675.92C121.624 676.528 121.496 677.099 121.24 677.632C120.984 678.165 120.488 678.773 119.752 679.456L117.176 681.888H121.992ZM127.83 684.192C126.902 684.192 126.076 683.963 125.35 683.504C124.625 683.045 124.054 682.384 123.638 681.52C123.233 680.645 123.03 679.605 123.03 678.4C123.03 677.195 123.233 676.16 123.638 675.296C124.054 674.421 124.625 673.755 125.35 673.296C126.076 672.837 126.902 672.608 127.83 672.608C128.758 672.608 129.585 672.837 130.31 673.296C131.036 673.755 131.601 674.421 132.006 675.296C132.422 676.16 132.63 677.195 132.63 678.4C132.63 679.605 132.422 680.645 132.006 681.52C131.601 682.384 131.036 683.045 130.31 683.504C129.585 683.963 128.758 684.192 127.83 684.192ZM127.83 682C128.513 682 129.046 681.707 129.43 681.12C129.825 680.533 130.022 679.627 130.022 678.4C130.022 677.173 129.825 676.267 129.43 675.68C129.046 675.093 128.513 674.8 127.83 674.8C127.158 674.8 126.625 675.093 126.23 675.68C125.846 676.267 125.654 677.173 125.654 678.4C125.654 679.627 125.846 680.533 126.23 681.12C126.625 681.707 127.158 682 127.83 682Z" fill="black"/>
        </g>
        <g id="21 - active">
        <path id="03 - active_2" d="M87 653.066C87 653.465 86.5549 653.703 86.2226 653.482L79.7773 649.185C79.6094 649.073 79.3906 649.073 79.2226 649.185L72.7773 653.482C72.4451 653.703 72 653.465 72 653.066V604.268C72 604.1 72.0836 603.944 72.2226 603.852L79.2227 599.185C79.3906 599.073 79.6094 599.073 79.7774 599.185L86.7774 603.852C86.9165 603.944 87 604.1 87 604.268V653.066Z" fill="#D33F49"/>
        <path id="line -active_2" d="M89 625H106V628H89V625Z" fill="#D33F49"/>
        <circle id="inner_cirlce - active_2" cx="79.5" cy="626.5" r="6" fill="#FCF8F5" stroke="#7E252B"/>
        <circle id="outer_circle -active_2" cx="79.5" cy="626.5" r="8.5" stroke="#BD3841" stroke-width="4"/>
        <circle id="right_circle - active_2" cx="122.5" cy="626.5" r="16" stroke="#D33F49" stroke-width="3"/>
        <path id="21_2" d="M121.992 629.888V632H113.528V630.32L117.848 626.24C118.307 625.803 118.616 625.429 118.776 625.12C118.936 624.8 119.016 624.485 119.016 624.176C119.016 623.728 118.861 623.387 118.552 623.152C118.253 622.907 117.811 622.784 117.224 622.784C116.733 622.784 116.291 622.88 115.896 623.072C115.501 623.253 115.171 623.531 114.904 623.904L113.016 622.688C113.453 622.037 114.056 621.531 114.824 621.168C115.592 620.795 116.472 620.608 117.464 620.608C118.296 620.608 119.021 620.747 119.64 621.024C120.269 621.291 120.755 621.675 121.096 622.176C121.448 622.667 121.624 623.248 121.624 623.92C121.624 624.528 121.496 625.099 121.24 625.632C120.984 626.165 120.488 626.773 119.752 627.456L117.176 629.888H121.992ZM127.382 620.8V632H124.789V622.88H122.55V620.8H127.382Z" fill="black"/>
        </g>
        <g id="22 - active">
        <path id="03 - active_3" d="M87 601.066C87 601.465 86.5549 601.703 86.2226 601.482L79.7773 597.185C79.6094 597.073 79.3906 597.073 79.2226 597.185L72.7773 601.482C72.4451 601.703 72 601.465 72 601.066V552.268C72 552.1 72.0836 551.944 72.2226 551.852L79.2227 547.185C79.3906 547.073 79.6094 547.073 79.7774 547.185L86.7774 551.852C86.9165 551.944 87 552.1 87 552.268V601.066Z" fill="#D33F49"/>
        <path id="line -active_3" d="M89 573H106V576H89V573Z" fill="#D33F49"/>
        <circle id="inner_cirlce - active_3" cx="79.5" cy="574.5" r="6" fill="#FCF8F5" stroke="#7E252B"/>
        <circle id="outer_circle -active_3" cx="79.5" cy="574.5" r="8.5" stroke="#BD3841" stroke-width="4"/>
        <circle id="right_circle - active_3" cx="122.5" cy="574.5" r="16" stroke="#D33F49" stroke-width="3"/>
        <path id="22_2" d="M121.992 577.888V580H113.528V578.32L117.848 574.24C118.307 573.803 118.616 573.429 118.776 573.12C118.936 572.8 119.016 572.485 119.016 572.176C119.016 571.728 118.861 571.387 118.552 571.152C118.253 570.907 117.811 570.784 117.224 570.784C116.733 570.784 116.291 570.88 115.896 571.072C115.501 571.253 115.171 571.531 114.904 571.904L113.016 570.688C113.453 570.037 114.056 569.531 114.824 569.168C115.592 568.795 116.472 568.608 117.464 568.608C118.296 568.608 119.021 568.747 119.64 569.024C120.269 569.291 120.755 569.675 121.096 570.176C121.448 570.667 121.624 571.248 121.624 571.92C121.624 572.528 121.496 573.099 121.24 573.632C120.984 574.165 120.488 574.773 119.752 575.456L117.176 577.888H121.992ZM131.43 577.888V580H122.965V578.32L127.286 574.24C127.744 573.803 128.054 573.429 128.214 573.12C128.374 572.8 128.454 572.485 128.454 572.176C128.454 571.728 128.299 571.387 127.99 571.152C127.691 570.907 127.248 570.784 126.661 570.784C126.171 570.784 125.728 570.88 125.334 571.072C124.939 571.253 124.608 571.531 124.342 571.904L122.454 570.688C122.891 570.037 123.494 569.531 124.262 569.168C125.03 568.795 125.91 568.608 126.902 568.608C127.734 568.608 128.459 568.747 129.078 569.024C129.707 569.291 130.192 569.675 130.534 570.176C130.886 570.667 131.062 571.248 131.062 571.92C131.062 572.528 130.934 573.099 130.678 573.632C130.422 574.165 129.926 574.773 129.19 575.456L126.614 577.888H131.43Z" fill="black"/>
        </g>
        <g id="23 - active">
        <path id="03 - active_4" d="M87 549.066C87 549.465 86.5549 549.703 86.2226 549.482L79.7773 545.185C79.6094 545.073 79.3906 545.073 79.2226 545.185L72.7773 549.482C72.4451 549.703 72 549.465 72 549.066V500.268C72 500.1 72.0836 499.944 72.2226 499.852L79.2227 495.185C79.3906 495.073 79.6094 495.073 79.7774 495.185L86.7774 499.852C86.9165 499.944 87 500.1 87 500.268V549.066Z" fill="#D33F49"/>
        <path id="line -active_4" d="M89 521H106V524H89V521Z" fill="#D33F49"/>
        <circle id="inner_cirlce - active_4" cx="79.5" cy="522.5" r="6" fill="#FCF8F5" stroke="#7E252B"/>
        <circle id="outer_circle -active_4" cx="79.5" cy="522.5" r="8.5" stroke="#BD3841" stroke-width="4"/>
        <circle id="right_circle - active_4" cx="122.5" cy="522.5" r="16" stroke="#D33F49" stroke-width="3"/>
        <path id="23_2" d="M121.992 525.888V528H113.528V526.32L117.848 522.24C118.307 521.803 118.616 521.429 118.776 521.12C118.936 520.8 119.016 520.485 119.016 520.176C119.016 519.728 118.861 519.387 118.552 519.152C118.253 518.907 117.811 518.784 117.224 518.784C116.733 518.784 116.291 518.88 115.896 519.072C115.501 519.253 115.171 519.531 114.904 519.904L113.016 518.688C113.453 518.037 114.056 517.531 114.824 517.168C115.592 516.795 116.472 516.608 117.464 516.608C118.296 516.608 119.021 516.747 119.64 517.024C120.269 517.291 120.755 517.675 121.096 518.176C121.448 518.667 121.624 519.248 121.624 519.92C121.624 520.528 121.496 521.099 121.24 521.632C120.984 522.165 120.488 522.773 119.752 523.456L117.176 525.888H121.992ZM128.294 521.36C129.275 521.52 130.027 521.888 130.55 522.464C131.072 523.029 131.334 523.733 131.334 524.576C131.334 525.227 131.163 525.829 130.822 526.384C130.48 526.928 129.958 527.365 129.254 527.696C128.56 528.027 127.707 528.192 126.694 528.192C125.904 528.192 125.126 528.091 124.358 527.888C123.6 527.675 122.955 527.376 122.421 526.992L123.43 525.008C123.856 525.328 124.347 525.579 124.902 525.76C125.467 525.931 126.043 526.016 126.63 526.016C127.28 526.016 127.792 525.893 128.166 525.648C128.539 525.392 128.726 525.035 128.726 524.576C128.726 523.659 128.027 523.2 126.63 523.2H125.446V521.488L127.75 518.88H122.982V516.8H130.822V518.48L128.294 521.36Z" fill="black"/>
        </g>
        <g id="24 - active">
        <path id="03 - active_5" d="M87 497.066C87 497.465 86.5549 497.703 86.2226 497.482L79.7773 493.185C79.6094 493.073 79.3906 493.073 79.2226 493.185L72.7773 497.482C72.4451 497.703 72 497.465 72 497.066V448.268C72 448.1 72.0836 447.944 72.2226 447.852L79.2227 443.185C79.3906 443.073 79.6094 443.073 79.7774 443.185L86.7774 447.852C86.9165 447.944 87 448.1 87 448.268V497.066Z" fill="#D33F49"/>
        <path id="line -active_5" d="M89 469H106V472H89V469Z" fill="#D33F49"/>
        <circle id="inner_cirlce - active_5" cx="79.5" cy="470.5" r="6" fill="#FCF8F5" stroke="#7E252B"/>
        <circle id="outer_circle -active_5" cx="79.5" cy="470.5" r="8.5" stroke="#BD3841" stroke-width="4"/>
        <circle id="right_circle - active_5" cx="122.5" cy="470.5" r="16" stroke="#D33F49" stroke-width="3"/>
        <path id="24_2" d="M121.992 473.888V476H113.528V474.32L117.848 470.24C118.307 469.803 118.616 469.429 118.776 469.12C118.936 468.8 119.016 468.485 119.016 468.176C119.016 467.728 118.861 467.387 118.552 467.152C118.253 466.907 117.811 466.784 117.224 466.784C116.733 466.784 116.291 466.88 115.896 467.072C115.501 467.253 115.171 467.531 114.904 467.904L113.016 466.688C113.453 466.037 114.056 465.531 114.824 465.168C115.592 464.795 116.472 464.608 117.464 464.608C118.296 464.608 119.021 464.747 119.64 465.024C120.269 465.291 120.755 465.675 121.096 466.176C121.448 466.667 121.624 467.248 121.624 467.92C121.624 468.528 121.496 469.099 121.24 469.632C120.984 470.165 120.488 470.773 119.752 471.456L117.176 473.888H121.992ZM133.161 473.648H131.337V476H128.809V473.648H122.777V471.904L128.057 464.8H130.777L125.881 471.536H128.889V469.44H131.337V471.536H133.161V473.648Z" fill="black"/>
        </g>
        <g id="25 - active">
        <path id="03 - active_6" d="M87 445.066C87 445.465 86.5549 445.703 86.2226 445.482L79.7773 441.185C79.6094 441.073 79.3906 441.073 79.2226 441.185L72.7773 445.482C72.4451 445.703 72 445.465 72 445.066V396.268C72 396.1 72.0836 395.944 72.2226 395.852L79.2227 391.185C79.3906 391.073 79.6094 391.073 79.7774 391.185L86.7774 395.852C86.9165 395.944 87 396.1 87 396.268V445.066Z" fill="#D33F49"/>
        <path id="line -active_6" d="M89 417H106V420H89V417Z" fill="#D33F49"/>
        <circle id="inner_cirlce - active_6" cx="79.5" cy="418.5" r="6" fill="#FCF8F5" stroke="#7E252B"/>
        <circle id="outer_circle -active_6" cx="79.5" cy="418.5" r="8.5" stroke="#BD3841" stroke-width="4"/>
        <circle id="right_circle - active_6" cx="122.5" cy="418.5" r="16" stroke="#D33F49" stroke-width="3"/>
        <path id="25_2" d="M121.992 421.888V424H113.528V422.32L117.848 418.24C118.307 417.803 118.616 417.429 118.776 417.12C118.936 416.8 119.016 416.485 119.016 416.176C119.016 415.728 118.861 415.387 118.552 415.152C118.253 414.907 117.811 414.784 117.224 414.784C116.733 414.784 116.291 414.88 115.896 415.072C115.501 415.253 115.171 415.531 114.904 415.904L113.016 414.688C113.453 414.037 114.056 413.531 114.824 413.168C115.592 412.795 116.472 412.608 117.464 412.608C118.296 412.608 119.021 412.747 119.64 413.024C120.269 413.291 120.755 413.675 121.096 414.176C121.448 414.667 121.624 415.248 121.624 415.92C121.624 416.528 121.496 417.099 121.24 417.632C120.984 418.165 120.488 418.773 119.752 419.456L117.176 421.888H121.992ZM126.902 417.008C128.48 417.008 129.643 417.323 130.39 417.952C131.147 418.581 131.526 419.424 131.526 420.48C131.526 421.163 131.355 421.787 131.014 422.352C130.672 422.907 130.15 423.355 129.446 423.696C128.752 424.027 127.894 424.192 126.87 424.192C126.08 424.192 125.302 424.091 124.534 423.888C123.776 423.675 123.131 423.376 122.598 422.992L123.622 421.008C124.048 421.328 124.539 421.579 125.094 421.76C125.648 421.931 126.219 422.016 126.806 422.016C127.456 422.016 127.968 421.888 128.342 421.632C128.715 421.376 128.902 421.019 128.902 420.56C128.902 420.08 128.704 419.717 128.31 419.472C127.926 419.227 127.254 419.104 126.294 419.104H123.43L124.006 412.8H130.838V414.88H126.166L125.99 417.008H126.902Z" fill="black"/>
        </g>
        <g id="26 - active">
        <path id="03 - active_7" d="M87 393.066C87 393.465 86.5549 393.703 86.2226 393.482L79.7773 389.185C79.6094 389.073 79.3906 389.073 79.2226 389.185L72.7773 393.482C72.4451 393.703 72 393.465 72 393.066V344.268C72 344.1 72.0836 343.944 72.2226 343.852L79.2227 339.185C79.3906 339.073 79.6094 339.073 79.7774 339.185L86.7774 343.852C86.9165 343.944 87 344.1 87 344.268V393.066Z" fill="#D33F49"/>
        <path id="line -active_7" d="M89 365H106V368H89V365Z" fill="#D33F49"/>
        <circle id="inner_cirlce - active_7" cx="79.5" cy="366.5" r="6" fill="#FCF8F5" stroke="#7E252B"/>
        <circle id="outer_circle -active_7" cx="79.5" cy="366.5" r="8.5" stroke="#BD3841" stroke-width="4"/>
        <circle id="right_circle - active_7" cx="122.5" cy="366.5" r="16" stroke="#D33F49" stroke-width="3"/>
        <path id="26_2" d="M121.992 369.888V372H113.528V370.32L117.848 366.24C118.307 365.803 118.616 365.429 118.776 365.12C118.936 364.8 119.016 364.485 119.016 364.176C119.016 363.728 118.861 363.387 118.552 363.152C118.253 362.907 117.811 362.784 117.224 362.784C116.733 362.784 116.291 362.88 115.896 363.072C115.501 363.253 115.171 363.531 114.904 363.904L113.016 362.688C113.453 362.037 114.056 361.531 114.824 361.168C115.592 360.795 116.472 360.608 117.464 360.608C118.296 360.608 119.021 360.747 119.64 361.024C120.269 361.291 120.755 361.675 121.096 362.176C121.448 362.667 121.624 363.248 121.624 363.92C121.624 364.528 121.496 365.099 121.24 365.632C120.984 366.165 120.488 366.773 119.752 367.456L117.176 369.888H121.992ZM128.422 364.976C129.137 364.976 129.788 365.12 130.374 365.408C130.961 365.696 131.425 366.107 131.766 366.64C132.108 367.163 132.278 367.771 132.278 368.464C132.278 369.211 132.092 369.867 131.718 370.432C131.345 370.997 130.833 371.435 130.182 371.744C129.542 372.043 128.828 372.192 128.038 372.192C126.47 372.192 125.244 371.712 124.358 370.752C123.473 369.792 123.03 368.421 123.03 366.64C123.03 365.371 123.27 364.283 123.75 363.376C124.23 362.469 124.897 361.781 125.75 361.312C126.614 360.843 127.612 360.608 128.742 360.608C129.34 360.608 129.91 360.677 130.454 360.816C131.009 360.944 131.478 361.131 131.862 361.376L130.902 363.28C130.348 362.907 129.649 362.72 128.806 362.72C127.857 362.72 127.105 362.997 126.55 363.552C125.996 364.107 125.697 364.912 125.654 365.968C126.316 365.307 127.238 364.976 128.422 364.976ZM127.894 370.256C128.449 370.256 128.897 370.107 129.238 369.808C129.59 369.509 129.766 369.104 129.766 368.592C129.766 368.08 129.59 367.675 129.238 367.376C128.897 367.067 128.438 366.912 127.862 366.912C127.297 366.912 126.833 367.072 126.47 367.392C126.108 367.701 125.926 368.101 125.926 368.592C125.926 369.083 126.102 369.483 126.454 369.792C126.806 370.101 127.286 370.256 127.894 370.256Z" fill="black"/>
        </g>
        <g id="27 - active">
        <path id="03 - active_8" d="M87 341.066C87 341.465 86.5549 341.703 86.2226 341.482L79.7773 337.185C79.6094 337.073 79.3906 337.073 79.2226 337.185L72.7773 341.482C72.4451 341.703 72 341.465 72 341.066V292.268C72 292.1 72.0836 291.944 72.2226 291.852L79.2227 287.185C79.3906 287.073 79.6094 287.073 79.7774 287.185L86.7774 291.852C86.9165 291.944 87 292.1 87 292.268V341.066Z" fill="#D33F49"/>
        <path id="line -active_8" d="M89 313H106V316H89V313Z" fill="#D33F49"/>
        <circle id="inner_cirlce - active_8" cx="79.5" cy="314.5" r="6" fill="#FCF8F5" stroke="#7E252B"/>
        <circle id="outer_circle -active_8" cx="79.5" cy="314.5" r="8.5" stroke="#BD3841" stroke-width="4"/>
        <circle id="right_circle - active_8" cx="122.5" cy="314.5" r="16" stroke="#D33F49" stroke-width="3"/>
        <path id="27_2" d="M121.992 317.888V320H113.528V318.32L117.848 314.24C118.307 313.803 118.616 313.429 118.776 313.12C118.936 312.8 119.016 312.485 119.016 312.176C119.016 311.728 118.861 311.387 118.552 311.152C118.253 310.907 117.811 310.784 117.224 310.784C116.733 310.784 116.291 310.88 115.896 311.072C115.501 311.253 115.171 311.531 114.904 311.904L113.016 310.688C113.453 310.037 114.056 309.531 114.824 309.168C115.592 308.795 116.472 308.608 117.464 308.608C118.296 308.608 119.021 308.747 119.64 309.024C120.269 309.291 120.755 309.675 121.096 310.176C121.448 310.667 121.624 311.248 121.624 311.92C121.624 312.528 121.496 313.099 121.24 313.632C120.984 314.165 120.488 314.773 119.752 315.456L117.176 317.888H121.992ZM131.798 308.8V310.48L127.638 320H124.822L128.838 310.912H125.126V312.736H122.822V308.8H131.798Z" fill="black"/>
        </g>
        <g id="28 - active">
        <path id="03 - active_9" d="M87 289.066C87 289.465 86.5549 289.703 86.2226 289.482L79.7773 285.185C79.6094 285.073 79.3906 285.073 79.2226 285.185L72.7773 289.482C72.4451 289.703 72 289.465 72 289.066V240.268C72 240.1 72.0836 239.944 72.2226 239.852L79.2227 235.185C79.3906 235.073 79.6094 235.073 79.7774 235.185L86.7774 239.852C86.9165 239.944 87 240.1 87 240.268V289.066Z" fill="#D33F49"/>
        <path id="line -active_9" d="M89 261H106V264H89V261Z" fill="#D33F49"/>
        <circle id="inner_cirlce - active_9" cx="79.5" cy="262.5" r="6" fill="#FCF8F5" stroke="#7E252B"/>
        <circle id="outer_circle -active_9" cx="79.5" cy="262.5" r="8.5" stroke="#BD3841" stroke-width="4"/>
        <circle id="right_circle - active_9" cx="122.5" cy="262.5" r="16" stroke="#D33F49" stroke-width="3"/>
        <path id="28_2" d="M121.992 265.888V268H113.528V266.32L117.848 262.24C118.307 261.803 118.616 261.429 118.776 261.12C118.936 260.8 119.016 260.485 119.016 260.176C119.016 259.728 118.861 259.387 118.552 259.152C118.253 258.907 117.811 258.784 117.224 258.784C116.733 258.784 116.291 258.88 115.896 259.072C115.501 259.253 115.171 259.531 114.904 259.904L113.016 258.688C113.453 258.037 114.056 257.531 114.824 257.168C115.592 256.795 116.472 256.608 117.464 256.608C118.296 256.608 119.021 256.747 119.64 257.024C120.269 257.291 120.755 257.675 121.096 258.176C121.448 258.667 121.624 259.248 121.624 259.92C121.624 260.528 121.496 261.099 121.24 261.632C120.984 262.165 120.488 262.773 119.752 263.456L117.176 265.888H121.992ZM130.726 262.112C131.28 262.389 131.702 262.752 131.99 263.2C132.288 263.648 132.438 264.165 132.438 264.752C132.438 265.445 132.24 266.053 131.845 266.576C131.451 267.088 130.896 267.488 130.182 267.776C129.467 268.053 128.64 268.192 127.702 268.192C126.763 268.192 125.936 268.053 125.222 267.776C124.518 267.488 123.968 267.088 123.574 266.576C123.19 266.053 122.998 265.445 122.998 264.752C122.998 264.165 123.142 263.648 123.43 263.2C123.728 262.752 124.15 262.389 124.694 262.112C124.278 261.856 123.958 261.536 123.734 261.152C123.51 260.757 123.398 260.309 123.398 259.808C123.398 259.157 123.579 258.592 123.942 258.112C124.304 257.632 124.811 257.264 125.462 257.008C126.112 256.741 126.859 256.608 127.702 256.608C128.555 256.608 129.307 256.741 129.958 257.008C130.619 257.264 131.131 257.632 131.494 258.112C131.856 258.592 132.038 259.157 132.038 259.808C132.038 260.309 131.926 260.757 131.702 261.152C131.478 261.536 131.152 261.856 130.726 262.112ZM127.702 258.512C127.179 258.512 126.758 258.64 126.438 258.896C126.128 259.141 125.974 259.483 125.974 259.92C125.974 260.347 126.128 260.683 126.438 260.928C126.747 261.173 127.168 261.296 127.702 261.296C128.235 261.296 128.662 261.173 128.982 260.928C129.302 260.683 129.462 260.347 129.462 259.92C129.462 259.483 129.302 259.141 128.982 258.896C128.662 258.64 128.235 258.512 127.702 258.512ZM127.702 266.288C128.352 266.288 128.864 266.144 129.238 265.856C129.622 265.557 129.814 265.163 129.814 264.672C129.814 264.181 129.622 263.792 129.238 263.504C128.864 263.216 128.352 263.072 127.702 263.072C127.062 263.072 126.555 263.216 126.182 263.504C125.808 263.792 125.622 264.181 125.622 264.672C125.622 265.173 125.808 265.568 126.182 265.856C126.555 266.144 127.062 266.288 127.702 266.288Z" fill="black"/>
        </g>
        <g id="29 - active">
        <path id="03 - active_10" d="M87 237.066C87 237.465 86.5549 237.703 86.2226 237.482L79.7773 233.185C79.6094 233.073 79.3906 233.073 79.2226 233.185L72.7773 237.482C72.4451 237.703 72 237.465 72 237.066V188.268C72 188.1 72.0836 187.944 72.2226 187.852L79.2227 183.185C79.3906 183.073 79.6094 183.073 79.7774 183.185L86.7774 187.852C86.9165 187.944 87 188.1 87 188.268V237.066Z" fill="#D33F49"/>
        <path id="line -active_10" d="M89 209H106V212H89V209Z" fill="#D33F49"/>
        <circle id="inner_cirlce - active_10" cx="79.5" cy="210.5" r="6" fill="#FCF8F5" stroke="#7E252B"/>
        <circle id="outer_circle -active_10" cx="79.5" cy="210.5" r="8.5" stroke="#BD3841" stroke-width="4"/>
        <circle id="right_circle - active_10" cx="122.5" cy="210.5" r="16" stroke="#D33F49" stroke-width="3"/>
        <path id="29_2" d="M121.992 213.888V216H113.528V214.32L117.848 210.24C118.307 209.803 118.616 209.429 118.776 209.12C118.936 208.8 119.016 208.485 119.016 208.176C119.016 207.728 118.861 207.387 118.552 207.152C118.253 206.907 117.811 206.784 117.224 206.784C116.733 206.784 116.291 206.88 115.896 207.072C115.501 207.253 115.171 207.531 114.904 207.904L113.016 206.688C113.453 206.037 114.056 205.531 114.824 205.168C115.592 204.795 116.472 204.608 117.464 204.608C118.296 204.608 119.021 204.747 119.64 205.024C120.269 205.291 120.755 205.675 121.096 206.176C121.448 206.667 121.624 207.248 121.624 207.92C121.624 208.528 121.496 209.099 121.24 209.632C120.984 210.165 120.488 210.773 119.752 211.456L117.176 213.888H121.992ZM126.998 204.608C128.566 204.608 129.792 205.088 130.678 206.048C131.563 206.997 132.006 208.368 132.006 210.16C132.006 211.429 131.766 212.517 131.286 213.424C130.816 214.331 130.15 215.019 129.286 215.488C128.422 215.957 127.424 216.192 126.294 216.192C125.696 216.192 125.126 216.128 124.582 216C124.038 215.861 123.574 215.669 123.19 215.424L124.15 213.52C124.694 213.893 125.392 214.08 126.246 214.08C127.195 214.08 127.947 213.803 128.502 213.248C129.056 212.683 129.355 211.872 129.398 210.816C128.726 211.488 127.798 211.824 126.614 211.824C125.899 211.824 125.248 211.68 124.662 211.392C124.075 211.104 123.611 210.699 123.27 210.176C122.928 209.643 122.758 209.029 122.758 208.336C122.758 207.589 122.944 206.933 123.318 206.368C123.691 205.803 124.198 205.371 124.838 205.072C125.488 204.763 126.208 204.608 126.998 204.608ZM127.19 209.888C127.755 209.888 128.214 209.733 128.566 209.424C128.928 209.104 129.11 208.699 129.11 208.208C129.11 207.717 128.934 207.317 128.582 207.008C128.24 206.699 127.766 206.544 127.158 206.544C126.603 206.544 126.15 206.693 125.798 206.992C125.456 207.291 125.286 207.696 125.286 208.208C125.286 208.72 125.456 209.131 125.798 209.44C126.15 209.739 126.614 209.888 127.19 209.888Z" fill="black"/>
        </g>
        <g id="30 - active">
        <path id="03 - active_11" d="M87 185.066C87 185.465 86.5549 185.703 86.2226 185.482L79.7773 181.185C79.6094 181.073 79.3906 181.073 79.2226 181.185L72.7773 185.482C72.4451 185.703 72 185.465 72 185.066V136.268C72 136.1 72.0836 135.944 72.2226 135.852L79.2227 131.185C79.3906 131.073 79.6094 131.073 79.7774 131.185L86.7774 135.852C86.9165 135.944 87 136.1 87 136.268V185.066Z" fill="#D33F49"/>
        <path id="line -active_11" d="M89 157H106V160H89V157Z" fill="#D33F49"/>
        <circle id="inner_cirlce - active_11" cx="79.5" cy="158.5" r="6" fill="#FCF8F5" stroke="#7E252B"/>
        <circle id="outer_circle -active_11" cx="79.5" cy="158.5" r="8.5" stroke="#BD3841" stroke-width="4"/>
        <circle id="right_circle - active_11" cx="122.5" cy="158.5" r="16" stroke="#D33F49" stroke-width="3"/>
        <path id="30_2" d="M118.856 157.36C119.837 157.52 120.589 157.888 121.112 158.464C121.635 159.029 121.896 159.733 121.896 160.576C121.896 161.227 121.725 161.829 121.384 162.384C121.043 162.928 120.52 163.365 119.816 163.696C119.123 164.027 118.269 164.192 117.256 164.192C116.467 164.192 115.688 164.091 114.92 163.888C114.163 163.675 113.517 163.376 112.984 162.992L113.992 161.008C114.419 161.328 114.909 161.579 115.464 161.76C116.029 161.931 116.605 162.016 117.192 162.016C117.843 162.016 118.355 161.893 118.728 161.648C119.101 161.392 119.288 161.035 119.288 160.576C119.288 159.659 118.589 159.2 117.192 159.2H116.008V157.488L118.312 154.88H113.544V152.8H121.384V154.48L118.856 157.36ZM127.893 164.192C126.965 164.192 126.138 163.963 125.413 163.504C124.687 163.045 124.117 162.384 123.701 161.52C123.295 160.645 123.093 159.605 123.093 158.4C123.093 157.195 123.295 156.16 123.701 155.296C124.117 154.421 124.687 153.755 125.413 153.296C126.138 152.837 126.965 152.608 127.893 152.608C128.821 152.608 129.647 152.837 130.373 153.296C131.098 153.755 131.663 154.421 132.069 155.296C132.485 156.16 132.693 157.195 132.693 158.4C132.693 159.605 132.485 160.645 132.069 161.52C131.663 162.384 131.098 163.045 130.373 163.504C129.647 163.963 128.821 164.192 127.893 164.192ZM127.893 162C128.575 162 129.109 161.707 129.493 161.12C129.887 160.533 130.085 159.627 130.085 158.4C130.085 157.173 129.887 156.267 129.493 155.68C129.109 155.093 128.575 154.8 127.893 154.8C127.221 154.8 126.687 155.093 126.293 155.68C125.909 156.267 125.717 157.173 125.717 158.4C125.717 159.627 125.909 160.533 126.293 161.12C126.687 161.707 127.221 162 127.893 162Z" fill="black"/>
        </g>
    </g>
</svg>
