<svg xmlns="http://www.w3.org/2000/svg" viewBox="0 0 197.11 219.51"><defs><style>.cls-1{fill:#fff2c1;}.cls-2{fill:#f4d670;}.cls-3{fill:#e49c00;}.cls-4{fill:#f9e88f;}.cls-5{fill:#efc24e;}.cls-6{fill:#ff8594;}.cls-7{fill:#ff576d;}</style></defs><g id="Layer_1" data-name="Layer 1"><path class="cls-1" d="M98.55,214a20.65,20.65,0,0,1-10.32-2.77l-72.4-41.8A20.7,20.7,0,0,1,5.5,151.55V68A20.7,20.7,0,0,1,15.83,50.07l72.4-41.8a20.63,20.63,0,0,1,20.65,0l72.4,41.8A20.7,20.7,0,0,1,191.61,68v83.59a20.7,20.7,0,0,1-10.33,17.89l-72.4,41.8A20.66,20.66,0,0,1,98.55,214Z"/><path class="cls-2" d="M98.55,11a15.17,15.17,0,0,1,7.58,2l72.4,41.8A15.16,15.16,0,0,1,186.11,68v83.59a15.16,15.16,0,0,1-7.58,13.13l-72.4,41.8a15.15,15.15,0,0,1-15.15,0l-72.4-41.8A15.16,15.16,0,0,1,11,151.55V68a15.16,15.16,0,0,1,7.58-13.13L91,13a15.16,15.16,0,0,1,7.57-2m0-11A26.19,26.19,0,0,0,85.48,3.5L13.08,45.3A26.23,26.23,0,0,0,0,68v83.59a26.23,26.23,0,0,0,13.08,22.66L85.48,216a26.17,26.17,0,0,0,26.15,0l72.4-41.8a26.23,26.23,0,0,0,13.08-22.66V68A26.23,26.23,0,0,0,184,45.3L111.63,3.5A26.2,26.2,0,0,0,98.55,0Z"/><path class="cls-3" d="M170.25,76.65V157.3a2.94,2.94,0,0,1-2.87,3H29.73a2.94,2.94,0,0,1-2.87-3V62.21a2.94,2.94,0,0,1,2.87-3H74a2.84,2.84,0,0,1,2.19,1.06L86.29,72.6a2.8,2.8,0,0,0,2.19,1.05h78.9A2.94,2.94,0,0,1,170.25,76.65Z"/><path class="cls-4" d="M26.86,73.65h140.4a3,3,0,0,1,3,3V157.3a3,3,0,0,1-3,3H30a3.18,3.18,0,0,1-3.18-3.18V73.65a0,0,0,0,1,0,0Z"/><path class="cls-5" d="M167.32,73.65a2.94,2.94,0,0,1,2.93,2.94v80.7a2.93,2.93,0,0,1-2.87,3H29.73a2.93,2.93,0,0,1-2.87-3v-.08c53.55-10.64,82.61-23.36,105.46-43.56l3.22,3.35L120,133.17a3.92,3.92,0,0,0-.5,4.56,3.27,3.27,0,0,0,5.14.5l18-18.75a3.62,3.62,0,0,0,0-5L137.37,109C148,98.78,167.32,73.65,167.32,73.65Z"/><path class="cls-6" d="M74.37,138.75a2.84,2.84,0,0,1-2-.87l-18-18.75a3.11,3.11,0,0,1,0-4.25l18-18.75a2.8,2.8,0,0,1,4.07,0,3.11,3.11,0,0,1,0,4.25L60.46,117,76.4,133.63a3.11,3.11,0,0,1,0,4.25A2.82,2.82,0,0,1,74.37,138.75Z"/><path class="cls-6" d="M86.35,138.76a2.78,2.78,0,0,1-1.59-.51,3.08,3.08,0,0,1-.8-4.16l24-37.5a2.8,2.8,0,0,1,4-.83,3.08,3.08,0,0,1,.8,4.16l-24,37.5A2.85,2.85,0,0,1,86.35,138.76Z"/><path class="cls-7" d="M142.66,119.48l-18,18.75a3.26,3.26,0,0,1-4.74,0,3.62,3.62,0,0,1,0-5L135.54,117l-3.22-3.35c1.72-1.52,3.4-3.06,5.05-4.65l5.29,5.52A3.62,3.62,0,0,1,142.66,119.48Z"/><path class="cls-6" d="M137.37,109c-1.65,1.59-3.33,3.13-5.05,4.65l-12.38-12.92a3.62,3.62,0,0,1,0-5,3.26,3.26,0,0,1,4.74,0Z"/></g></svg>