<svg width="119" height="127" viewBox="0 0 119 127" fill="none" xmlns="http://www.w3.org/2000/svg">
<path d="M59.5001 122.721C58.0423 122.721 56.6024 122.357 55.3351 121.667L7.73507 95.7547C5.16467 94.3578 3.57007 91.7492 3.57007 88.9555V37.1315C3.57007 34.3322 5.16467 31.7292 7.73507 30.3324L55.3351 4.42038C56.6024 3.73036 58.0423 3.36572 59.5001 3.36572C60.9578 3.36572 62.3977 3.73036 63.6651 4.42038L111.265 30.3324C113.835 31.7292 115.43 34.3378 115.43 37.1315V88.9555C115.43 91.7548 113.835 94.3578 111.265 95.7547L63.6651 121.667C62.3977 122.357 60.9578 122.721 59.5001 122.721Z" fill="#FFEFBE"/>
<path d="M59.5 6.73184C60.333 6.73184 61.1601 6.93941 61.88 7.3321L109.48 33.2441C110.95 34.0407 111.86 35.5329 111.86 37.1317V88.9557C111.86 90.5545 110.95 92.0411 109.48 92.8433L61.88 118.755C61.1601 119.148 60.333 119.356 59.5 119.356C58.667 119.356 57.84 119.148 57.12 118.755L9.52 92.8433C8.05035 92.0467 7.14 90.5545 7.14 88.9557V37.1317C7.14 35.5329 8.05035 34.0463 9.52 33.2441L57.12 7.33771C57.84 6.94502 58.667 6.73745 59.5 6.73745M59.5 0.00561C57.4473 0.00561 55.3886 0.504888 53.55 1.50905L5.95 27.4154C2.26695 29.4182 0 33.1263 0 37.1317V88.9557C0 92.9667 2.26695 96.6692 5.95 98.672L53.55 124.584C55.3886 125.588 57.4473 126.087 59.5 126.087C61.5528 126.087 63.6115 125.588 65.45 124.584L113.05 98.672C116.733 96.6692 119 92.9611 119 88.9557V37.1317C119 33.1207 116.733 29.4182 113.05 27.4154L65.45 1.50344C63.6115 0.499278 61.5528 0 59.5 0V0.00561Z" fill="#F1D370"/>
<path d="M77.3907 85.2253H41.9763V95.5868H77.3907V85.2253Z" fill="#00A8DF"/>
<path d="M82.6513 95.5869H36.7173V101.152H82.6513V95.5869Z" fill="#E55069"/>
<path d="M67.3358 85.2249H52.0383L56.3997 72.2268L52.0383 59.2231H67.3358L62.9744 72.2268L67.3358 85.2249Z" fill="#DA8500"/>
<path d="M77.3969 85.2253V95.5868H48.7953C48.0991 92.2208 47.6826 88.7596 47.5696 85.2253H77.3969Z" fill="#006AFF"/>
<path d="M82.6571 95.5869V101.152H50.2237C49.6584 99.3287 49.1824 97.4718 48.7957 95.5869H82.6571Z" fill="#E55069"/>
<path d="M59.6838 70.5776C39.8346 70.5776 23.6863 56.4744 23.6863 39.1399V36.896H95.6753V39.1399C95.6753 56.4744 79.527 70.5776 59.6778 70.5776H59.6838ZM28.5593 41.3839C29.8862 55.201 43.3391 66.0898 59.6838 66.0898C76.0284 66.0898 89.4873 55.1954 90.8082 41.3839H28.5593Z" fill="#E6AC24"/>
<path d="M68.1563 36.896C66.6093 38.3209 65.1277 39.8187 63.7295 41.3839H90.8139C89.487 55.201 76.0341 66.0898 59.6894 66.0898C56.4229 66.0898 53.2753 65.6578 50.3182 64.85C49.866 66.2805 49.4673 67.7278 49.1282 69.1976C52.4661 70.0952 56.0183 70.5776 59.6894 70.5776C79.5327 70.5776 95.681 56.4744 95.681 39.1399V36.896H68.1563Z" fill="#DA8500"/>
<path d="M59.6841 74.7521C73.9343 74.7521 85.4892 54.7024 85.4892 29.9741H33.8789C33.8789 54.7024 45.4338 74.7521 59.6841 74.7521Z" fill="#F1D370"/>
<path d="M85.4951 29.9741C85.4951 54.7024 73.9402 74.7521 59.69 74.7521C55.8046 74.7521 52.1216 73.2655 48.8193 70.5952C52.312 53.8273 62.6709 39.3819 77.0283 29.9741H85.4951Z" fill="#ECBF4E"/>
<path d="M71.6373 45.3223C71.4767 45.1035 71.2268 44.9408 70.8996 44.8959L67.5378 44.4359L67.4545 44.4247L64.4081 44.0096C64.0452 43.9591 63.7358 43.7459 63.5751 43.4374L60.6715 37.8948C60.2669 37.1207 59.0948 37.1207 58.6902 37.8948L55.7866 43.4374C55.6259 43.7459 55.3165 43.9591 54.9536 44.0096L48.4681 44.8959C47.5637 45.0194 47.2007 46.074 47.8552 46.6743L52.5498 50.9883C52.8116 51.2295 52.9306 51.5717 52.8651 51.9139L51.7584 58.0062C51.6037 58.8589 52.5498 59.5097 53.3649 59.1057L59.1662 56.2279C59.4875 56.0708 59.8742 56.0708 60.1955 56.2279L65.9968 59.1057C66.4133 59.3133 66.8655 59.2404 67.1868 59.0048C67.1987 58.9935 67.2106 58.9823 67.2225 58.9767C67.282 58.9318 67.3415 58.8813 67.3891 58.8196C67.4129 58.7916 67.4307 58.7579 67.4486 58.7243C67.4783 58.6794 67.514 58.6345 67.5319 58.584C67.5557 58.5335 67.5676 58.4718 67.5795 58.4157C67.5854 58.3821 67.6033 58.3484 67.6092 58.3091C67.6211 58.2138 67.6211 58.1128 67.6033 58.0062L67.5259 57.5911L66.9845 54.6122L66.4906 51.9139C66.4311 51.5773 66.5501 51.2295 66.806 50.9883L71.5005 46.6743C71.923 46.2872 71.917 45.715 71.6255 45.3223H71.6373Z" fill="#E6AC24"/>
<path d="M66.8174 50.988C66.5615 51.2292 66.4425 51.577 66.502 51.9136L66.9959 54.612L67.5373 57.5908L67.6087 58.0059C67.6266 58.1125 67.6325 58.2135 67.6206 58.3089C67.6206 58.3481 67.5968 58.3762 67.5909 58.4154C67.579 58.4715 67.5671 58.5276 67.5433 58.5837C67.5195 58.6342 67.4897 58.6735 67.454 58.7184C67.4362 58.752 67.4183 58.7857 67.3945 58.8137C67.3469 58.8755 67.2874 58.9259 67.2279 58.9708C67.216 58.982 67.2101 58.9933 67.1982 59.0045C66.8769 59.2345 66.4247 59.313 66.0082 59.1055L60.201 56.2276C59.8797 56.0705 59.4929 56.0705 59.1716 56.2276L53.3704 59.1055C53.0431 59.2681 52.698 59.2625 52.4065 59.1391C55.0126 52.9907 58.5885 47.3023 62.9618 42.2534L63.5806 43.4371C63.7412 43.7456 64.0566 43.9588 64.4136 44.0093L67.46 44.4244L67.5433 44.4357L70.8991 44.8957C71.2263 44.9405 71.4762 45.1032 71.6369 45.322C71.7737 45.5015 71.8511 45.7203 71.8511 45.9447C71.8511 46.2028 71.744 46.4664 71.5179 46.674L66.8174 50.988Z" fill="#DA8500"/>
</svg>
