<svg width="746" height="559" viewBox="0 0 746 559" fill="none" xmlns="http://www.w3.org/2000/svg">
<g filter="url(#filter0_d_0_1)">
<path d="M349.653 526.614C311.198 526.614 275.887 520.033 244.691 507.073C191.238 484.842 145.457 441.046 122.241 389.857C120.642 386.354 119.084 382.598 117.605 378.722C102.021 338.082 98.0115 291.342 106.017 243.537C117.738 173.5 153.29 112.721 203.519 76.8105C242.147 49.1981 290.605 34 340.023 34C355.08 33.9981 370.105 35.4118 384.898 38.2224C427.335 46.3077 463.206 67.966 485.917 99.1881C489.913 104.769 493.815 110.47 497.545 115.998C505.817 128.239 513.622 139.814 523.772 150.63C540.009 167.946 558.404 183.264 572.643 194.679C586.882 206.094 601.521 219.015 614.441 237.863C625.308 254.117 633.447 272.038 638.537 290.916C664.338 384.143 594.182 463.903 511.544 494.539C472.157 509.191 412.084 526.574 349.666 526.574L349.653 526.614Z" fill="#263238"/>
<path d="M328.088 79.6476C328.088 80.4222 327.858 81.1793 327.428 81.8233C326.998 82.4673 326.386 82.9692 325.671 83.2656C324.955 83.562 324.168 83.6396 323.408 83.4885C322.648 83.3374 321.951 82.9644 321.403 82.4167C320.855 81.8691 320.482 81.1713 320.331 80.4116C320.18 79.652 320.258 78.8646 320.554 78.149C320.85 77.4335 321.352 76.8218 321.996 76.3915C322.64 75.9612 323.397 75.7316 324.172 75.7316C325.211 75.7316 326.207 76.1442 326.941 76.8786C327.675 77.613 328.088 78.609 328.088 79.6476Z" fill="white"/>
<path d="M567.701 232.321C567.701 233.099 567.47 233.859 567.036 234.504C566.603 235.149 565.988 235.651 565.268 235.945C564.549 236.24 563.758 236.313 562.996 236.157C562.235 236 561.537 235.62 560.993 235.066C560.448 234.512 560.08 233.808 559.936 233.044C559.793 232.28 559.88 231.49 560.187 230.776C560.493 230.062 561.006 229.455 561.658 229.033C562.311 228.611 563.075 228.392 563.852 228.405C564.88 228.419 565.861 228.839 566.582 229.572C567.303 230.305 567.705 231.293 567.701 232.321Z" fill="white"/>
<path d="M149.4 262.238C151.563 262.238 153.316 260.485 153.316 258.322C153.316 256.159 151.563 254.406 149.4 254.406C147.237 254.406 145.484 256.159 145.484 258.322C145.484 260.485 147.237 262.238 149.4 262.238Z" fill="white"/>
<path d="M213.549 133.94C215.712 133.94 217.465 132.187 217.465 130.024C217.465 127.861 215.712 126.108 213.549 126.108C211.387 126.108 209.633 127.861 209.633 130.024C209.633 132.187 211.387 133.94 213.549 133.94Z" fill="white"/>
<path d="M372.67 63.6103C372.667 63.997 372.55 64.3743 372.333 64.6945C372.117 65.0147 371.81 65.2636 371.452 65.4098C371.094 65.556 370.701 65.5928 370.322 65.5158C369.943 65.4387 369.595 65.2512 369.323 64.9768C369.05 64.7025 368.865 64.3536 368.791 63.9741C368.716 63.5947 368.756 63.2017 368.904 62.8446C369.053 62.4876 369.304 62.1826 369.625 61.9681C369.947 61.7535 370.325 61.639 370.712 61.639C370.971 61.6372 371.227 61.687 371.466 61.7856C371.706 61.8842 371.923 62.0296 372.105 62.2132C372.288 62.3968 372.431 62.6149 372.528 62.8548C372.625 63.0947 372.673 63.3516 372.67 63.6103Z" fill="white"/>
<path d="M433.17 129.438C433.169 129.826 433.054 130.205 432.839 130.527C432.623 130.849 432.316 131.1 431.958 131.248C431.599 131.396 431.205 131.434 430.825 131.357C430.444 131.281 430.095 131.093 429.822 130.818C429.549 130.542 429.363 130.192 429.289 129.812C429.215 129.431 429.256 129.037 429.406 128.679C429.557 128.322 429.81 128.017 430.133 127.803C430.457 127.59 430.837 127.477 431.225 127.48C431.481 127.48 431.735 127.531 431.972 127.629C432.209 127.728 432.424 127.872 432.605 128.054C432.785 128.236 432.928 128.452 433.025 128.69C433.122 128.927 433.171 129.181 433.17 129.438Z" fill="white"/>
<path d="M166.157 177.057C167.238 177.057 168.115 176.18 168.115 175.099C168.115 174.017 167.238 173.141 166.157 173.141C165.075 173.141 164.199 174.017 164.199 175.099C164.199 176.18 165.075 177.057 166.157 177.057Z" fill="white"/>
<path d="M232.624 123.657C232.626 124.045 232.514 124.425 232.3 124.748C232.087 125.072 231.782 125.325 231.424 125.475C231.067 125.626 230.672 125.666 230.292 125.592C229.911 125.518 229.561 125.333 229.286 125.059C229.011 124.786 228.823 124.437 228.746 124.057C228.669 123.677 228.707 123.283 228.855 122.924C229.003 122.565 229.254 122.259 229.576 122.043C229.899 121.827 230.278 121.712 230.666 121.712C231.183 121.712 231.679 121.917 232.045 122.281C232.412 122.645 232.62 123.14 232.624 123.657Z" fill="white"/>
<path d="M322.787 59.9473C323.868 59.9473 324.745 59.0707 324.745 57.9893C324.745 56.9079 323.868 56.0312 322.787 56.0312C321.705 56.0312 320.829 56.9079 320.829 57.9893C320.829 59.0707 321.705 59.9473 322.787 59.9473Z" fill="white"/>
<path d="M373.429 167.813C374.511 167.813 375.387 166.936 375.387 165.855C375.387 164.773 374.511 163.897 373.429 163.897C372.348 163.897 371.471 164.773 371.471 165.855C371.471 166.936 372.348 167.813 373.429 167.813Z" fill="white"/>
<path d="M122.814 337.949C123.895 337.949 124.772 337.072 124.772 335.991C124.772 334.91 123.895 334.033 122.814 334.033C121.732 334.033 120.855 334.91 120.855 335.991C120.855 337.072 121.732 337.949 122.814 337.949Z" fill="white"/>
<path d="M155.394 367.2C156.475 367.2 157.352 366.323 157.352 365.242C157.352 364.16 156.475 363.284 155.394 363.284C154.313 363.284 153.436 364.16 153.436 365.242C153.436 366.323 154.313 367.2 155.394 367.2Z" fill="white"/>
<path d="M142.46 379.121C143.542 379.121 144.419 378.245 144.419 377.163C144.419 376.082 143.542 375.205 142.46 375.205C141.379 375.205 140.502 376.082 140.502 377.163C140.502 378.245 141.379 379.121 142.46 379.121Z" fill="white"/>
<path d="M275.394 67.2468C276.475 67.2468 277.352 66.3701 277.352 65.2887C277.352 64.2073 276.475 63.3307 275.394 63.3307C274.313 63.3307 273.436 64.2073 273.436 65.2887C273.436 66.3701 274.313 67.2468 275.394 67.2468Z" fill="white"/>
<path d="M310.066 160.873C311.147 160.873 312.024 159.996 312.024 158.915C312.024 157.834 311.147 156.957 310.066 156.957C308.985 156.957 308.108 157.834 308.108 158.915C308.108 159.996 308.985 160.873 310.066 160.873Z" fill="white"/>
<path d="M339.086 154.623C344.257 153.785 347.769 148.915 346.932 143.744C346.094 138.574 341.224 135.061 336.054 135.899C330.883 136.736 327.371 141.607 328.208 146.777C329.046 151.947 333.916 155.46 339.086 154.623Z" fill="white"/>
<path d="M134.948 227.353C140.185 227.353 144.432 223.107 144.432 217.869C144.432 212.632 140.185 208.385 134.948 208.385C129.71 208.385 125.464 212.632 125.464 217.869C125.464 223.107 129.71 227.353 134.948 227.353Z" fill="white"/>
<path d="M200.136 186.661C203.395 186.661 206.037 184.019 206.037 180.76C206.037 177.501 203.395 174.859 200.136 174.859C196.877 174.859 194.235 177.501 194.235 180.76C194.235 184.019 196.877 186.661 200.136 186.661Z" fill="white"/>
<path d="M422.66 236.371C425.919 236.371 428.561 233.729 428.561 230.47C428.561 227.211 425.919 224.569 422.66 224.569C419.401 224.569 416.759 227.211 416.759 230.47C416.759 233.729 419.401 236.371 422.66 236.371Z" fill="white"/>
<path d="M431.558 78.0093C426.829 77.3566 426.31 76.8371 425.657 72.1085C425.018 76.8371 424.498 77.3566 419.77 78.0093C424.498 78.6486 425.018 79.1681 425.657 83.8967C426.31 79.1681 426.829 78.6486 431.558 78.0093Z" fill="white"/>
</g>
<path d="M220.682 389.856H164.376V504.337H220.682V389.856Z" fill="#3BAE49"/>
<path opacity="0.3" d="M220.682 389.856H164.376V504.337H220.682V389.856Z" fill="black" fill-opacity="0.8"/>
<path d="M313.371 426.556H257.065V504.337H313.371V426.556Z" fill="#3BAE49"/>
<path opacity="0.3" d="M313.371 426.556H257.065V504.337H313.371V426.556Z" fill="black" fill-opacity="0.8"/>
<path d="M406.061 360.841H349.755V504.337H406.061V360.841Z" fill="#3BAE49"/>
<path opacity="0.3" d="M406.061 360.841H349.755V504.337H406.061V360.841Z" fill="black" fill-opacity="0.8"/>
<path d="M498.738 281.994H442.432V504.337H498.738V281.994Z" fill="#3BAE49"/>
<path opacity="0.3" d="M498.738 281.994H442.432V504.337H498.738V281.994Z" fill="black" fill-opacity="0.8"/>
<path d="M591.428 172.751H535.122V504.337H591.428V172.751Z" fill="#3BAE49"/>
<path opacity="0.3" d="M591.428 172.751H535.122V504.337H591.428V172.751Z" fill="black" fill-opacity="0.8"/>
<path d="M235.63 389.856H179.324V504.337H235.63V389.856Z" fill="#3BAE49"/>
<path opacity="0.1" d="M235.63 389.856H179.324V504.337H235.63V389.856Z" fill="black" fill-opacity="0.8"/>
<path d="M328.32 426.556H272.014V504.337H328.32V426.556Z" fill="#3BAE49"/>
<path opacity="0.1" d="M328.32 426.556H272.014V504.337H328.32V426.556Z" fill="black" fill-opacity="0.8"/>
<path d="M420.996 360.841H364.69V504.337H420.996V360.841Z" fill="#3BAE49"/>
<path opacity="0.1" d="M420.996 360.841H364.69V504.337H420.996V360.841Z" fill="black" fill-opacity="0.8"/>
<path d="M513.686 281.994H457.38V504.337H513.686V281.994Z" fill="#3BAE49"/>
<path opacity="0.1" d="M513.686 281.994H457.38V504.337H513.686V281.994Z" fill="black" fill-opacity="0.8"/>
<path d="M606.376 172.751H550.07V504.337H606.376V172.751Z" fill="#3BAE49"/>
<path opacity="0.1" d="M606.376 172.751H550.07V504.337H606.376V172.751Z" fill="black" fill-opacity="0.8"/>
<path d="M490.303 219.254C486.686 215.635 481.779 213.601 476.662 213.6C471.546 213.598 466.638 215.63 463.019 219.247C459.4 222.865 457.366 227.771 457.365 232.888C457.364 238.005 459.395 242.913 463.012 246.532L476.658 260.164L490.29 246.519C492.082 244.729 493.503 242.605 494.473 240.266C495.443 237.928 495.943 235.421 495.944 232.889C495.945 230.357 495.448 227.85 494.48 225.51C493.512 223.171 492.093 221.045 490.303 219.254Z" fill="#3BAE49"/>
<path opacity="0.1" d="M490.303 219.254C486.686 215.635 481.779 213.601 476.662 213.6C471.546 213.598 466.638 215.63 463.019 219.247C459.4 222.865 457.366 227.771 457.365 232.888C457.364 238.005 459.395 242.913 463.012 246.532L476.658 260.164L490.29 246.519C492.082 244.729 493.503 242.605 494.473 240.266C495.443 237.928 495.943 235.421 495.944 232.889C495.945 230.357 495.448 227.85 494.48 225.51C493.512 223.171 492.093 221.045 490.303 219.254Z" fill="black" fill-opacity="0.8"/>
<path d="M206.606 347.483C221.021 297.041 248.437 298.406 248.437 298.406L255.462 306.853L255.528 306.932L263.217 316.178C263.217 316.178 259.833 341.807 207.609 346.783L207.488 346.884C207.497 346.854 207.508 346.825 207.515 346.795C207.485 346.796 207.454 346.801 207.422 346.804L206.606 347.483Z" fill="#FFC500"/>
<path d="M223.791 333.581C234.63 294.691 251.911 302.979 251.911 302.979L255.875 307.745L255.913 307.79C255.913 307.79 260.103 310.795 259.877 312.557C257.067 334.403 223.791 333.581 223.791 333.581Z" fill="#FDEBA1"/>
<path d="M264.094 318.116L247.102 297.131L253.706 291.798L270.699 312.781L264.094 318.116Z" fill="#DF3428"/>
<path d="M290.85 280.127C307.235 300.363 304.867 329.41 285.556 345.01C281.069 348.633 276.058 351.199 270.811 352.767C279.515 336.918 278.001 316.199 265.421 300.664C252.84 285.13 232.87 279.316 215.534 284.505C218.164 279.709 221.724 275.353 226.212 271.727C245.523 256.13 274.463 259.89 290.85 280.127Z" fill="#FF7748"/>
<path d="M256.668 292.259C244.616 283.213 229.257 280.401 215.534 284.505C218.164 279.709 221.724 275.353 226.212 271.727C242.438 258.624 265.457 259.191 282.116 271.707L256.668 292.259Z" fill="#DF3428"/>
<path d="M320.556 293.576C304.075 306.887 286.035 315.415 269.437 318.804C267.369 313.73 264.527 308.841 260.876 304.335C257.227 299.827 253.037 296.031 248.498 292.947C255.291 277.452 267.412 261.616 283.893 248.305C310.072 227.161 340.194 218.056 362.19 222.508C361.948 244.92 346.736 272.432 320.556 293.576Z" fill="#E2E2E2"/>
<path d="M361.746 222.9C361.118 245.148 346.391 272.711 320.557 293.576C304.075 306.887 286.035 315.415 269.437 318.804C267.673 314.474 263.674 308.279 260.76 304.341L361.746 222.9Z" fill="white"/>
<path d="M350.4 259.665L348.215 263.151C348.215 263.151 334.623 242.093 318.745 227.472L323.339 226.254C323.339 226.254 344.035 246.417 350.4 259.665Z" fill="#FFAE00"/>
<path d="M271.486 302.845C260.597 311.639 249.573 317.278 242.61 318.134C244.905 311.515 252.73 301.925 263.619 293.131C274.507 284.337 285.534 278.7 292.494 277.843C290.2 284.463 282.374 294.052 271.486 302.845Z" fill="#FF7748"/>
<path d="M242.943 318.081C242.832 318.094 242.717 318.119 242.609 318.134C244.904 311.515 252.729 301.925 263.618 293.131C274.507 284.337 285.534 278.7 292.494 277.842C292.457 277.944 292.407 278.055 292.375 278.157L242.943 318.081Z" fill="#DF3428"/>
<path d="M350.399 259.665C346.339 253.947 342.015 248.217 337.405 242.526C332.797 236.836 328.092 231.412 323.339 226.254C337.343 221.55 350.851 220.213 362.19 222.508C362.066 234.063 357.933 246.973 350.399 259.665Z" fill="#FF7748"/>
<path d="M336.954 241.977C332.489 236.49 327.938 231.245 323.34 226.253C337.344 221.55 350.851 220.213 362.19 222.508C362.188 222.716 362.175 222.929 362.17 223.137L336.954 241.977Z" fill="#DF3428"/>
<path d="M323.827 253.26L323.941 253.4C326.109 256.076 327.154 259.403 326.881 262.764C326.607 266.124 325.049 269.112 322.494 271.175C317.284 275.382 309.39 274.411 304.898 269.011L304.784 268.871C300.302 263.336 300.952 255.362 306.234 251.096C311.444 246.89 319.336 247.86 323.827 253.26Z" fill="#FFAE00"/>
<path d="M321.615 255.279C325.01 259.47 324.517 265.508 320.52 268.737C316.517 271.968 310.506 271.185 307.111 266.993C303.718 262.803 304.208 256.766 308.209 253.535C312.207 250.306 318.222 251.089 321.615 255.279Z" fill="#C0F6FF"/>
<defs>
<filter id="filter0_d_0_1" x="92" y="26" width="565.963" height="516.614" filterUnits="userSpaceOnUse" color-interpolation-filters="sRGB">
<feFlood flood-opacity="0" result="BackgroundImageFix"/>
<feColorMatrix in="SourceAlpha" type="matrix" values="0 0 0 0 0 0 0 0 0 0 0 0 0 0 0 0 0 0 127 0" result="hardAlpha"/>
<feOffset dx="2" dy="4"/>
<feGaussianBlur stdDeviation="6"/>
<feComposite in2="hardAlpha" operator="out"/>
<feColorMatrix type="matrix" values="0 0 0 0 0 0 0 0 0 0 0 0 0 0 0 0 0 0 0.25 0"/>
<feBlend mode="normal" in2="BackgroundImageFix" result="effect1_dropShadow_0_1"/>
<feBlend mode="normal" in="SourceGraphic" in2="effect1_dropShadow_0_1" result="shape"/>
</filter>
</defs>
</svg>
