<?xml version="1.0" encoding="UTF-8"?><svg xmlns="http://www.w3.org/2000/svg" viewBox="0 0 181.09 158.65"><g fill="#f15e4e"><path d="M180.08,41.3c-1.55-9.77-5.01-18.63-11.72-25.89C156.42,2.5,141.63-2.66,124.75,1.31c-16.86,3.97-27.93,15.2-33.37,32.04-.18,.56-.62,1.36-.84,1.36-.24,0-.65-.8-.84-1.36C84.27,16.52,73.2,5.29,56.35,1.31,39.46-2.66,24.68,2.5,12.74,15.41,6.02,22.67,2.57,31.53,1.02,41.3c-3.03,19.09,.87,36.3,9.7,52.19l24.13-.07,12.28-38.54c.47-1.48,1.85-2.46,3.4-2.44,1.55,.03,2.89,1.08,3.3,2.57l13.97,50.8,13.49-36.1c.51-1.37,1.82-2.27,3.28-2.27h.03c1.47,.01,2.78,.94,3.27,2.32l8.47,23.74h15.27l16.3-52.59c.45-1.47,1.81-2.46,3.34-2.46s2.89,1,3.34,2.46l16.3,52.59h19.46c8.83-15.89,12.74-33.1,9.71-52.2Z"/><path d="M144.99,98.04l-13.72-44.27-13.72,44.27c-.45,1.47-1.81,2.46-3.34,2.46h-20.31c-1.48,0-2.8-.93-3.3-2.32l-6.08-17.04-13.93,37.26c-.51,1.37-1.82,2.27-3.28,2.27-.05,0-.1,0-.16,0-1.52-.07-2.82-1.1-3.22-2.57l-13.71-49.86-9.48,29.73c-.46,1.45-1.8,2.43-3.32,2.44l-22.45,.07c.68,1.03,1.38,2.06,2.11,3.08,10,14.13,22.75,25.27,36.87,34.9,11.29,7.7,23.61,13.53,35.58,19.98,.27,.15,.66,.22,1.03,.21,.37,0,.75-.07,1.03-.21,11.97-6.45,24.29-12.28,35.58-19.98,14.11-9.63,26.86-20.77,36.87-34.9,.72-1.01,1.41-2.04,2.09-3.06h-17.78c-1.53,0-2.89-1-3.34-2.46Z"/></g></svg>