<svg xmlns="http://www.w3.org/2000/svg" viewBox="0 0 24 24"><g fill="#C8D850"><path d="M23.188 15.033a11.59 11.59 0 0 0 .314-2.056c-3.202.462-6.157 1.938-8.487 4.266l-.846.92a18.87 18.87 0 0 0-1.142-1.694l.592-.622c2.693-2.693 6.128-4.376 9.842-4.856a11.62 11.62 0 0 0-.371-1.942c-3.974.544-7.555 2.313-10.355 4.913v-3.778a2.47 2.47 0 0 0 .146.003c1.84 0 3.681-.703 5.086-2.107 1.883-1.883 2.503-4.549 1.862-6.949a7.21 7.21 0 0 0-1.863-.244 7.17 7.17 0 0 0-5.086 2.107 7.14 7.14 0 0 0-.629.719c-.297-.7-.731-1.357-1.302-1.928C9.76.595 8.202 0 6.643 0a6.11 6.11 0 0 0-1.578.206c-.543 2.034-.017 4.291 1.578 5.885a6.07 6.07 0 0 0 4.121 1.781v6.087C7.963 11.36 4.382 9.593.41 9.049a11.62 11.62 0 0 0-.371 1.942c3.715.481 7.149 2.163 9.842 4.856.203.203.4.41.592.622a16.95 16.95 0 0 1 1.278 1.591 16.72 16.72 0 0 1 1.14 1.842c.389.73.724 1.487 1.002 2.266a16.77 16.77 0 0 1 .469 1.54 11.76 11.76 0 0 0 .541-.137c.041-.011.082-.024.124-.037a11.72 11.72 0 0 0 .438-.135c.011-.004.024-.007.035-.011.034-.011.066-.024.1-.035l.241-.085c.135-.049.269-.101.402-.156a11.82 11.82 0 0 0 6.152-5.849 11.21 11.21 0 0 0-6.366 5.09 18.74 18.74 0 0 0-.858-2.276c1.919-2.568 4.753-4.412 8.016-5.045zM14.277 4.388c.987-.986 2.297-1.529 3.691-1.529l.133.001c.032 1.412-.507 2.804-1.526 3.823-.987.987-2.297 1.529-3.691 1.529-.044 0-.087-.001-.133-.001-.032-1.414.507-2.804 1.526-3.823zm-6.239.307a4.13 4.13 0 0 1-1.201-2.718c1.027.046 1.986.469 2.719 1.202s1.15 1.708 1.199 2.718a4.08 4.08 0 0 1-2.717-1.201zM1.105 17.264a11.82 11.82 0 0 0 6.152 5.849L8 23.39a10.61 10.61 0 0 0-.528-1.036 11.2 11.2 0 0 0-6.366-5.09zm9.506 2.638a15.07 15.07 0 0 0-1.277-1.741l-.847-.919A15 15 0 0 0 0 12.977a11.62 11.62 0 0 0 .314 2.056 13.15 13.15 0 0 1 8.016 5.045 13.1 13.1 0 0 1 1.278 2.09 12.78 12.78 0 0 1 .702 1.745l.373.039.107.008.621.035.338.006.643-.018a14.8 14.8 0 0 0-.641-1.881 14.92 14.92 0 0 0-1.142-2.198v-.001z"/></g></svg>