<?xml version="1.0" encoding="UTF-8"?><svg xmlns="http://www.w3.org/2000/svg" viewBox="0 0 165.24 181.33"><g fill="#8a6cb0"><polygon points="48.96 141.81 48.96 150.56 58.79 155.82 68.62 150.56 68.62 141.81 58.79 136.54 48.96 141.81"/><polygon points="72.79 103.41 72.79 112.16 82.62 117.42 92.45 112.16 92.45 103.41 82.62 98.15 72.79 103.41"/><polygon points="120.45 103.41 120.45 112.16 130.27 117.42 140.1 112.16 140.1 103.41 130.27 98.15 120.45 103.41"/><path d="M106.45,87.7l-23.83-12.76-23.83,12.76-23.83-12.76L4.14,91.45v33.9l23.83,12.76v23.32c4.2,3.64,8.77,6.87,13.64,9.63l3.28,1.76c5.13,2.6,10.55,4.7,16.22,6.21l21.52-11.52,21.54,11.53c5.15-1.37,10.1-3.2,14.81-5.48l5.59-2.99c4.53-2.63,8.78-5.67,12.72-9.08v-23.37l23.83-12.76v-33.9l-30.83-16.51-23.83,12.76ZM34.96,125.97l-16.83-9.01v-17.13l16.83-9.01,16.83,9.01v17.13l-16.83,9.01Zm40.66,29.39l-16.83,9.01-16.83-9.01v-17.13l16.83-9.01,16.83,9.01v17.13Zm-9.83-38.4v-17.13l16.83-9.01,16.83,9.01v17.13l-16.83,9.01-16.83-9.01Zm57.48,38.4l-16.83,9.01-16.83-9.01v-17.13l16.83-9.01,16.83,9.01v17.13Zm23.83-38.4l-16.83,9.01-16.83-9.01v-17.13l16.83-9.01,16.83,9.01v17.13Z"/><path d="M71.91,180.65c3.5,.45,7.08,.68,10.71,.68s7.17-.23,10.66-.67l-10.69-5.73-10.68,5.72Z"/><path d="M20.93,154.14v-12.34l-13.29-7.12c3.5,7.12,7.99,13.66,13.29,19.46Z"/><path d="M110.59,19.05V4.08C101.72,1.43,92.32,0,82.59,0s-19.13,1.43-28,4.08v15C26.04,29.24,4.64,54.46,0,85.2l.8-.43,15.62-8.37c6.12-18.92,20.15-34.3,38.17-42.26v14.85h15.02l12.98,18.81,12.98-18.81h15.02v-14.88c18.06,7.96,32.12,23.37,38.24,42.34l15.54,8.32,.87,.47c-4.63-30.78-26.06-56.03-54.65-66.19Zm-14,15.95h-28V15.17c4.61-.78,9.29-1.17,14-1.17s9.39,.39,14,1.17v19.83Z"/><path d="M144.24,154.22c5.34-5.83,9.87-12.42,13.39-19.59l-13.39,7.17v12.42Z"/></g></svg>