<?xml version="1.0" encoding="UTF-8"?><svg xmlns="http://www.w3.org/2000/svg" viewBox="0 0 153.82 153.82"><g fill="#f391bc"><path d="M79.7,11.73C71.25,4.42,60.23,0,48.19,0,21.58,0,0,21.57,0,48.19c0,12.04,4.42,23.05,11.73,31.5L79.7,11.73Z"/><path d="M142.09,74.12l-67.97,67.97c8.45,7.31,19.47,11.73,31.51,11.73,26.62,0,48.19-21.58,48.19-48.19,0-12.05-4.42-23.06-11.73-31.51Z"/><path d="M105.59,100.64l37.35-37.35c14.47-14.47,14.47-37.94,0-52.41h0c-14.47-14.47-37.94-14.47-52.41,0L53.18,48.22l52.41,52.41Z"/><path d="M48.23,53.18L10.88,90.53c-14.47,14.47-14.47,37.94,0,52.41h0c14.47,14.47,37.94,14.47,52.41,0l37.35-37.35L48.23,53.18Zm10.9,69.86l-4.95,4.95-11.7-11.7-11.7,11.7-4.95-4.95,11.7-11.7-11.7-11.7,4.95-4.95,11.7,11.7,11.7-11.7,4.95,4.95-11.7,11.7,11.7,11.7Z"/></g></svg>