<svg xmlns="http://www.w3.org/2000/svg" viewBox="0 0 24 24"><g fill="#0C8AC8"><path d="M1.896 13.922l.054.05c-.048-.381-.072-.768-.072-1.162 0-3.92 2.434-7.282 5.87-8.653a9.04 9.04 0 0 1 1.283-.408l-.657 1.228c-.072.134.032.284.168.284.023 0 .046-.004.068-.012l2.904-1.079 1.386-.515.712-.265.855-.318c.16-.059.169-.28.016-.354l-1.04-.497-1.141-.546-.664-.318L8.846.02C8.818.007 8.79 0 8.762 0c-.129 0-.233.134-.177.268l.646 1.523c-.315.055-.626.123-.932.206C3.526 3.275 0 7.639 0 12.809c0 .503.034.999.098 1.484a1.11 1.11 0 0 1 .221-.327c.213-.218.509-.343.814-.343a1.12 1.12 0 0 1 .763.299zm15.392 7.046a1.12 1.12 0 0 1-.241-.921 9.26 9.26 0 0 1-5.856 2.076c-2.217 0-4.193-.755-5.783-2.018a9.59 9.59 0 0 1-1.036-.958l1.359.027c.178 0 .263-.216.134-.334l-2.282-2.095-1.292-1.186-1.03-.945a.19.19 0 0 0-.129-.051c-.071 0-.139.04-.173.105-.011.02-.017.043-.02.067 0 .008-.003.017-.003.026l.009.373.072 2.779.082 3.097c.003.115.097.188.194.188.052 0 .106-.021.146-.07l1.063-1.27.629.712C5.17 22.682 8.029 24 11.19 24c2.752 0 5.275-.997 7.226-2.652a1.11 1.11 0 0 1-.257.029c-.338 0-.655-.149-.871-.41h.001zm6.117-4.352l-1.607-.228.265-.91a11.18 11.18 0 0 0 .322-2.669c0-4.665-2.87-8.673-6.937-10.35.062.149.092.314.085.483a1.13 1.13 0 0 1-.736 1.008l-.352.131c3.539 1.32 6.065 4.735 6.065 8.728 0 .337-.017.669-.054.996-.051.479-.138.945-.259 1.398l-.713-1.197a.19.19 0 0 0-.164-.094.19.19 0 0 0-.19.157l-.572 3.044-.583 3.098c-.005.07.011.118.04.155.036.044.091.072.15.072a.19.19 0 0 0 .106-.032l2.631-1.735 2.586-1.705c.147-.098.097-.327-.079-.351h-.003zM6.533 19.782a8.34 8.34 0 0 0 4.66 1.413 8.36 8.36 0 0 0 6.142-2.68l.296-1.575.572-3.044c.101-.534.568-.922 1.113-.922a1.15 1.15 0 0 1 .256.031l.005-.196a8.39 8.39 0 0 0-.433-2.66c-.902.452-1.973.806-3.646.806-4.645 0-4.645-2.725-9.29-2.725-.881 0-1.594.099-2.204.257a8.35 8.35 0 0 0-1.198 4.322 8.4 8.4 0 0 0 .3 2.223l1.113 1.022 2.282 2.095c.346.318.46.806.29 1.243a1.1 1.1 0 0 1-.257.39v.001zm3.811-6.944a1.26 1.26 0 0 1 1.489-.976 1.26 1.26 0 0 1 .976 1.489 1.26 1.26 0 0 1-1.489.976 1.26 1.26 0 0 1-.976-1.489zm-.656 1.855a.78.78 0 0 1 .603.92.78.78 0 0 1-.92.603.78.78 0 0 1-.603-.92.78.78 0 0 1 .92-.603zm-3.172-.237c-1.101-.229-1.808-1.308-1.578-2.409s1.308-1.808 2.409-1.578 1.808 1.308 1.578 2.409-1.308 1.808-2.409 1.578z"/></g></svg>