<?xml version="1.0" encoding="UTF-8"?><svg xmlns="http://www.w3.org/2000/svg" viewBox="0 0 179.14 178.31"><g fill="#97cb58"><path d="M91.54,92.53c-18.07-3.25-34.04-12.25-45.77-24.95-11.73,12.7-27.7,21.69-45.77,24.95,0,66.53,45.77,75.38,45.77,75.38,0,0,45.77-8.85,45.77-75.38Zm-45.79,60.76c-18.48-7.19-29.46-26.56-31.28-49.94,11.39-3.6,22.04-9.29,31.3-16.69,9.25,7.4,19.91,13.09,31.3,16.69-1.68,23.08-12.99,43.01-31.31,49.94Z"/><path d="M40.95,114.21c2.53-.53,3.95-4.02,3.17-7.8-2.11-9.03-10.83-7.22-9.17,1.9,.78,3.78,3.47,6.43,6.01,5.9Z"/><path d="M31.9,120.66c4.23-1.5,1.32-10.73-3-9.54-4.23,1.5-1.32,10.73,3,9.54Z"/><path d="M62.65,111.14c-4.32-1.19-7.23,8.04-3,9.54,4.32,1.19,7.23-8.04,3-9.54Z"/><path d="M54.87,121.64c-.58-.1-1.14-.34-1.61-.69-.25-.24-.47-.5-.67-.78-2.72-4.93-10.14-5.02-12.98-.16-.22,.32-.47,.61-.74,.88-.53,.38-1.14,.63-1.78,.72-4.15,.37-7.21,4.04-6.84,8.18,.4,5.66,7.2,8.83,11.8,5.53,.85-.42,2.24-1.15,3.52-1.18,2.71-.06,4.32,1.5,4.95,1.69,4.84,2.6,11.13-1.07,11.07-6.61,.04-3.88-2.86-7.15-6.71-7.58Z"/><path d="M50.57,114.21c2.53,.53,5.22-2.12,6.01-5.9,1.65-9.13-7.06-10.93-9.17-1.9-.78,3.78,.63,7.28,3.17,7.8Z"/><path d="M151.84,46.58c-1.64-.44-3.33-.77-5.06-.98-1.51-47.4-63.66-63-87.37-21.91C23.56,11.44-9.18,49.5,8.5,83.19c.04-.01,.08-.03,.12-.04,.6-.19,1.2-.4,1.79-.61,1.64-.56,3.27-1.22,4.87-1.89,.06-.02,.11-.05,.17-.07h0c9.54-4.13,18.18-10.17,25.17-17.75l5.15-5.57,5.14,5.57c12.17,13.4,29.57,21.48,47.63,23.84,.19,9.89-.4,21.21-2.14,29.57-.94,10.47-4.67,52.12-5.53,61.75,9.2-.79,17.97-3.08,26.07-6.62-.81-8.94-2.67-29.8-3.49-38.94l15.59-15.59c11.85,4.73,26.74,2.36,36.48-5.82,23.4-18.66,15.21-56.9-13.68-64.44Zm-39.2,76.76l-1.95-21.78c2.96,4.83,6.98,8.94,11.76,11.97l-9.81,9.81Z"/><path d="M70.25,163.02c-6.25,5.06-12.3,8.04-16.65,9.74,9.37,3.6,19.59,5.58,30.22,5.55l.08-.94,1.17-13.08c-5.01,.12-10.04-.34-14.82-1.27Z"/><path d="M145.61,126.14c-5.4,10.66-13.48,19.75-23.34,26.38,.2,2.17,1.18,13.15,1.4,15.55,18.34-10.06,32.5-26.8,39.19-46.94-5.36,2.86-11.21,4.55-17.25,5.01Z"/></g></svg>