<?xml version="1.0" encoding="UTF-8"?><svg xmlns="http://www.w3.org/2000/svg" viewBox="0 0 167.67 180.72"><g fill="#ffcb05"><path d="M6.27,68.6H161.4c2.15,0,3.12-2.69,1.46-4.06L85.29,.52c-.42-.35-.94-.52-1.46-.52s-1.04,.17-1.46,.52L4.8,64.54c-1.66,1.37-.69,4.06,1.46,4.06Z"/><path d="M145.28,8.73c0-.98-.8-1.78-1.78-1.78h-20.43c-.98,0-1.78,.8-1.78,1.78v12.42l23.99,19.8V8.73Z"/><rect x="11.31" y="75.7" width="68.63" height="30.3" rx="2.96" ry="2.96"/><rect x="87.06" y="75.7" width="68.63" height="30.3" rx="2.96" ry="2.96"/><rect x="49.37" y="113.24" width="68.63" height="30.3" rx="2.96" ry="2.96"/><path d="M164.88,75.58c-1.26,.34-2.2,1.48-2.2,2.84v24.39c0,1.63,1.32,2.96,2.96,2.96h1.57c.3-2.87,.45-5.78,.45-8.73,0-7.42-.97-14.61-2.78-21.46Z"/><path d="M3.94,103v-24.39c0-1.02-.52-1.93-1.31-2.46-1.71,6.68-2.62,13.67-2.62,20.89,0,3.01,.17,5.98,.48,8.91H.98c1.63,0,2.96-1.32,2.96-2.96Z"/><path d="M125,115.97v24.39c0,1.63,1.32,2.96,2.96,2.96h25.78c5.99-9.03,10.27-19.28,12.39-30.3h-38.17c-1.63,0-2.96,1.32-2.96,2.96Z"/><path d="M42.26,140.59v-24.39c0-1.63-1.32-2.96-2.96-2.96H1.58c2.16,11.03,6.48,21.28,12.5,30.3h25.23c1.63,0,2.96-1.32,2.96-2.96Z"/><path d="M87.57,153.74v24.39c0,1.11,.62,2.06,1.52,2.57,23.71-1.47,44.75-12.78,59.07-29.92h-57.64c-1.63,0-2.96,1.32-2.96,2.96Z"/><path d="M77.5,150.78H19.5c14.39,17.21,35.55,28.55,59.39,29.94,.93-.5,1.57-1.47,1.57-2.59v-24.39c0-1.63-1.32-2.96-2.96-2.96Z"/></g></svg>