<?xml version="1.0" encoding="UTF-8"?><svg xmlns="http://www.w3.org/2000/svg" viewBox="0 0 167.11 178.68"><g fill="#9d9fa2"><path class="cls-1" d="M14.41,102.66C8.34,99.45,3.32,94.51,0,88.5v6.62c0,24.6,10.63,46.72,27.56,62.01,.01-5.38,2.47-10.2,6.32-13.4h0c-10.62-10.86-17.74-25.16-19.46-41.07h0Z"/><path class="cls-1" d="M152.3,105.77c-2.26,14.66-9.12,27.83-19.05,37.98h0c3.84,3.2,6.29,8.01,6.31,13.38,16.59-15,27.13-36.57,27.53-60.61-3.82,4.45-8.94,7.74-14.78,9.25Z"/><path class="cls-1" d="M73.06,141.95v-35.29h-7v31.64l-14.89,10.37c-1.72-1.24-3.83-1.98-6.11-1.98-5.8,0-10.5,4.7-10.5,10.5s4.7,10.5,10.5,10.5,10.5-4.7,10.5-10.5c0-.96-.14-1.89-.38-2.78l17.88-12.45Z"/><path class="cls-1" d="M87.06,158.3v-51.64h-7v51.64c-4.08,1.44-7,5.32-7,9.89,0,5.8,4.7,10.5,10.5,10.5s10.5-4.7,10.5-10.5c0-4.57-2.92-8.45-7-9.89Z"/><path class="cls-1" d="M122.06,146.68c-2.28,0-4.39,.74-6.12,1.98l-14.88-10.37v-31.64h-7v35.29l17.88,12.45c-.24,.89-.38,1.82-.38,2.78,0,5.8,4.7,10.5,10.5,10.5s10.5-4.7,10.5-10.5-4.7-10.5-10.5-10.5Z"/><path class="cls-1" d="M30.73,99.7h35.33v-24.64l-14.88-10.37c-1.72,1.24-3.83,1.98-6.12,1.98-5.8,0-10.5-4.7-10.5-10.5s4.7-10.5,10.5-10.5,10.5,4.7,10.5,10.5c0,.96-.14,1.89-.38,2.78l17.88,12.45v28.29h7V55.07c-4.08-1.44-7-5.32-7-9.89,0-5.8,4.7-10.5,10.5-10.5s10.5,4.7,10.5,10.5c0,4.57-2.92,8.45-7,9.89v44.64h.78c.1,0,.19,0,.29,0,.1,0,.19,0,.29,0h5.65v-28.29l17.88-12.45c-.24-.89-.38-1.82-.38-2.78,0-5.8,4.7-10.5,10.5-10.5s10.5,4.7,10.5,10.5-4.7,10.5-10.5,10.5c-2.28,0-4.39-.74-6.12-1.98l-14.88,10.37v24.64h43.91c12.23,0,22.15-9.92,22.15-22.15,0-11.6-8.92-21.11-20.28-22.06,1.43-3.7,2.22-7.72,2.22-11.93,0-18.31-14.84-33.16-33.16-33.16-6.35,0-12.27,1.79-17.31,4.88C91.28,5.98,79.94,0,67.19,0,45.16,0,27.29,17.87,27.29,39.91c0,1.3,.07,2.59,.19,3.85-13.97,1.61-24.82,13.47-24.82,27.88h0c0,15.5,12.57,28.07,28.07,28.07Z"/></g></svg>