<svg xmlns="http://www.w3.org/2000/svg" viewBox="0 0 181.29 182.31" fill="#949595" xmlns:v="https://vecta.io/nano" class="h-12 w-12 md:h-16 md:w-16"><path d="M179.82 74.04c-6.98-2.6-14.43-3.97-22.1-3.97-16.88 0-32.76 6.58-44.7 18.51-11.94 11.94-18.51 27.81-18.51 44.7s6.58 32.76 18.51 44.7c1.53 1.53 3.13 2.97 4.78 4.32 12.75-4.73 24.71-12.19 34.95-22.43 23.35-23.35 32.35-55.6 27.06-85.83zm-47.16-35.16l1.55 1.47c6.75 6.75 11.99 14.61 15.54 23.18 2.63-.3 5.29-.46 7.98-.46 1.62 0 3.24.07 4.85.18-4.09-11.7-10.79-22.42-19.81-31.45a89.97 89.97 0 0 0-3.34-3.16c-1.3 3.54-3.36 6.86-6.19 9.7a14.02 14.02 0 0 1-.56.53zM83.63 162.47c-13.57 0-26.55-3.77-37.77-10.78 5.56 1.58 11.37 2.41 17.31 2.41 9.13 0 17.95-1.94 26.02-5.59-.86-3.91-1.4-7.91-1.59-11.98-7.42 3.99-15.77 6.11-24.43 6.11s-17.04-2.13-24.47-6.13c2.45.4 4.94.61 7.47.61 12.34 0 23.93-4.8 32.65-13.53 8.72-8.72 13.53-20.32 13.53-32.65a45.84 45.84 0 0 0-13.53-32.65C70.1 49.57 58.5 44.76 46.17 44.76c-2.53 0-5.02.21-7.47.61 7.44-4.01 15.79-6.13 24.47-6.13 4.26 0 8.44.52 12.47 1.51.14.04.28.07.43.11.65.17 1.3.34 1.94.54.11.03.22.06.33.1.75.23 1.49.47 2.23.74.07.02.13.05.2.07a70.22 70.22 0 0 1 2.02.78l.31.12a50.76 50.76 0 0 1 4.35 2.06c.05.02.09.05.14.08 4.41 2.37 8.5 5.4 12.15 9.04 6.84 6.84 11.51 15.25 13.71 24.42 3.15-2.57 6.5-4.84 10-6.8-3-9.61-8.3-18.41-15.61-25.73-6.36-6.36-13.85-11.18-22-14.31-.11-.04-.23-.09-.34-.13-.5-.19-1-.37-1.5-.54l-.69-.23a78.92 78.92 0 0 0-2.18-.69l-1.14-.33-1.11-.29-1.38-.34-.88-.2a87.03 87.03 0 0 0-2.22-.44l-.72-.12-1.88-.28c-.2-.03-.4-.06-.6-.08-.82-.1-1.64-.19-2.46-.26-.04 0-.07 0-.11-.01h0c-1.8-.15-3.62-.23-5.46-.23-5.94 0-11.75.83-17.31 2.41 11.23-7.01 24.21-10.78 37.77-10.78 1.3 0 2.59.04 3.87.11a26.72 26.72 0 0 1 2.74-11.92c-2.19-.17-4.39-.28-6.61-.28-22.34 0-43.34 8.7-59.13 24.49C9.23 47.07.62 67.2.05 88.7.02 89.44 0 90.19 0 90.94s.02 1.5.05 2.24c.56 21.5 9.18 41.63 24.44 56.89 15.8 15.8 36.8 24.49 59.13 24.49 5.5 0 10.92-.53 16.2-1.56a69.49 69.49 0 0 1-6.29-11.22c-3.26.45-6.57.69-9.91.69zM10.6 90.94c0-19.79 16.04-35.83 35.83-35.83s35.83 16.04 35.83 35.83-16.04 35.83-35.83 35.83S10.6 110.73 10.6 90.94zm117.41-57.81c7.57-7.57 7.57-19.89 0-27.46s-19.89-7.57-27.46 0-7.57 19.89 0 27.46 19.89 7.57 27.46 0zM53.39 113.9l3.35-6.12a15.18 15.18 0 0 1 6.05-6.05l6.12-3.35a8.13 8.13 0 0 0 4.28-7.22 8.13 8.13 0 0 0-4.28-7.22l-6.12-3.35a15.18 15.18 0 0 1-6.05-6.05l-3.35-6.12a8.13 8.13 0 0 0-7.22-4.28 8.13 8.13 0 0 0-7.22 4.28l-3.35 6.13c-1.4 2.56-3.5 4.65-6.05 6.05l-6.12 3.35a8.13 8.13 0 0 0-4.28 7.22 8.13 8.13 0 0 0 4.28 7.22l6.12 3.35a15.18 15.18 0 0 1 6.05 6.05l3.35 6.13a8.13 8.13 0 0 0 7.22 4.28 8.13 8.13 0 0 0 7.22-4.28z"></path></svg>