<?xml version="1.0" encoding="UTF-8"?><svg xmlns="http://www.w3.org/2000/svg" viewBox="0 0 167.3 176.05"><g fill="#0db26b"><path d="M60.37,26.43c7.18,6.46,13.52,4.96,17.94,.05,4.41-4.91,5.23-11.37-1.95-17.83C70.29,3.21,54.74,.67,50.02,0c-.59-.08-1.2,.59-1.05,1.17,1.16,4.62,5.33,19.81,11.39,25.26Z"/><path d="M132.95,32.15c-3.33-.95-6.72-1.41-10.1-1.41-13.97,0-28.02,7.8-39.2,20.93-11.18-13.13-25.23-20.93-39.2-20.93-3.39,0-6.77,.46-10.1,1.41C6.93,39.98-6.91,78.23,3.43,117.57c9.08,34.56,33.81,58.47,58.27,58.47,3.39,0,6.77-.46,10.11-1.41,4.3-1.23,8.26-3.2,11.85-5.81,3.59,2.61,7.55,4.58,11.85,5.81,3.34,.95,6.72,1.41,10.11,1.41,24.46,0,49.18-23.91,58.27-58.47,10.34-39.35-3.5-77.59-30.91-85.42Zm-20.56,34.13c2.57-9.74,15.1-18.96,15.1-18.96,0,0,6.37,14.2,3.8,23.94-2.2,8.34-6.47,11.95-10.93,11.95-.75,0-1.5-.1-2.25-.3-5.22-1.38-8.29-6.89-5.72-16.63Zm-25.79,4.2s14.77,4.91,20.21,13.38c5.44,8.47,4.22,14.67-.32,17.58-1.38,.89-2.92,1.37-4.54,1.37-3.69,0-7.81-2.5-11.59-8.39-5.44-8.47-3.76-23.94-3.76-23.94Zm9.55,79.32c-.99,.64-2.09,.98-3.25,.98-2.64,0-5.6-1.8-8.31-6.02-3.9-6.08-2.69-17.17-2.69-17.17,0,0,10.59,3.52,14.49,9.6,3.9,6.08,3.02,10.52-.23,12.61Zm4.92-22.2c-1.19,.76-2.51,1.18-3.9,1.18-3.17,0-6.71-2.15-9.96-7.21-4.68-7.28-3.23-20.58-3.23-20.58,0,0,12.69,4.22,17.36,11.5,4.68,7.28,3.62,12.61-.28,15.11Zm16.05,25.59c-2.63,1.41-4.92,2.03-6.83,2.03-2.71,0-4.65-1.25-5.72-3.24-1.83-3.41-.44-7.72,5.92-11.14,2.88-1.55,6.71-1.97,10.03-1.97,4.01,0,7.29,.62,7.29,.62,0,0-4.33,10.28-10.69,13.7Zm8.97-21.56c-3.15,1.69-5.9,2.44-8.19,2.44-3.24,0-5.57-1.49-6.86-3.89-2.2-4.09-.53-9.25,7.09-13.35,3.45-1.86,8.04-2.36,12.02-2.36,4.81,0,8.74,.74,8.74,.74,0,0-5.19,12.32-12.81,16.42Zm10.43-25.25c-3.67,1.97-6.86,2.84-9.53,2.84-3.77,0-6.48-1.74-7.98-4.52-2.56-4.75-.62-10.76,8.25-15.53,4.02-2.16,9.36-2.75,13.99-2.75,5.6,0,10.17,.86,10.17,.86,0,0-6.04,14.34-14.91,19.11Z"/><path d="M83.65,44.25c1.17-1.2,2.37-2.34,3.59-3.43,2.83-16.94,17.57-29.89,35.3-29.89V3.93c-21.62,0-39.54,16.12-42.39,36.97,1.18,1.07,2.35,2.17,3.5,3.35Z"/></g></svg>